<?xml version="1.0" encoding="UTF-8"?><svg id="a" xmlns="http://www.w3.org/2000/svg" xmlns:xlink="http://www.w3.org/1999/xlink" viewBox="0 0 51.9 52.23"><defs><style>.c{fill:#fff;}.d{fill:url(#b);}</style><linearGradient id="b" x1="0" y1="1088.11" x2="51.9" y2="1088.11" gradientTransform="translate(0 -1062)" gradientUnits="userSpaceOnUse"><stop offset="0" stop-color="#feaf9f"/><stop offset="1" stop-color="#fe6d73"/></linearGradient></defs><path class="d" d="M12.65,0h26.92c6.81,0,12.33,5.51,12.33,12.65v26.92c0,6.81-5.51,12.65-12.65,12.65H12.65c-7.14-.32-12.65-5.84-12.65-12.98V12.65C0,5.51,5.51,0,12.65,0Z"/><path class="c" d="M36.01,30.82c-.32-.32-.65-.65-.97-1.3,.32,0,.97-.32,1.3-.32,5.19-1.62,8.76-4.54,8.11-6.81v-.32h-.32c-.65,0-1.3-.32-1.3-.97-.32-.65,0-1.3,.65-1.3,0,0,.32-.32,0-.32h0c-.65-2.27-5.19-2.92-10.38-1.3-.65,.32-.97,.32-1.62,.65v-1.95c0-5.19-1.62-9.73-3.89-9.73h-.32s-.32,0-.32,.32c0,.65-.65,.97-1.3,.97s-.97-.32-1.3-.97c0,0,0-.32-.32-.32h0c-2.27,0-4.22,4.22-4.54,9.41v2.27c.65,0,.32,0,0,0-4.87-1.95-9.73-1.62-10.38,.65v.65c.65,0,.65,.65,.65,1.3-.32,.65-.97,.97-1.3,.65h-.32c-.97,2.27,2.6,5.51,7.46,7.46,.32,0,.65,.32,.65,.32,0,0-.32,.32-.32,.65-3.24,4.22-4.22,8.76-2.6,10.06h.65c.32-.32,.97-.32,1.62,0,.32,.32,.65,.97,.32,1.62v.32h0c1.95,1.3,5.84-.97,9.08-5.19,.32-.32,.65-.97,.97-1.3,.32,.32,.32,.65,.65,.97,2.92,4.22,6.81,6.81,8.76,5.51h.32v-.32c-.32-.65,0-1.3,.32-1.62,.65-.32,1.3-.32,1.62,0h.32c1.62-.97,.97-5.51-1.95-9.73Zm-11.68-.32c-2.27-.65-3.57-3.24-2.6-5.51,.65-2.27,3.24-3.57,5.51-2.6,2.27,.65,3.57,3.24,2.6,5.51-.65,2.27-3.24,3.24-5.51,2.6Z"/></svg>