<?xml version="1.0" encoding="UTF-8" standalone="no"?>
<svg
   id="a"
   viewBox="0 0 32.803277 32.02553"
   version="1.1"
   sodipodi:docname="titled_gray.svg"
   width="32.803276"
   height="32.025532"
   inkscape:version="1.4.4 (dcaf3e7d9e, 2026-05-05)"
   xmlns:inkscape="http://www.inkscape.org/namespaces/inkscape"
   xmlns:sodipodi="http://sodipodi.sourceforge.net/DTD/sodipodi-0.dtd"
   xmlns:xlink="http://www.w3.org/1999/xlink"
   xmlns="http://www.w3.org/2000/svg"
   xmlns:svg="http://www.w3.org/2000/svg">
  <sodipodi:namedview
     id="namedview10"
     pagecolor="#ffffff"
     bordercolor="#000000"
     borderopacity="0.25"
     inkscape:showpageshadow="2"
     inkscape:pageopacity="0.0"
     inkscape:pagecheckerboard="0"
     inkscape:deskcolor="#d1d1d1"
     inkscape:zoom="5.3341152"
     inkscape:cx="-40.681536"
     inkscape:cy="57.647799"
     inkscape:window-width="2560"
     inkscape:window-height="1335"
     inkscape:window-x="0"
     inkscape:window-y="0"
     inkscape:window-maximized="1"
     inkscape:current-layer="a" />
  <defs
     id="defs1">
    <linearGradient
       id="swatch10"
       inkscape:swatch="solid"
       gradientTransform="translate(0.00325147,-0.01)">
      <stop
         style="stop-color:#ffffff;stop-opacity:1;"
         offset="0"
         id="stop10" />
    </linearGradient>
    <style
       id="style1">.b{fill:#ccc;}</style>
    <linearGradient
       inkscape:collect="always"
       xlink:href="#swatch10"
       id="linearGradient10"
       x1="50.419998"
       y1="16.174999"
       x2="168.11"
       y2="16.174999"
       gradientUnits="userSpaceOnUse" />
  </defs>
  <path
     class="b"
     d="m 25.173251,21.23 c -0.29,-0.29 -0.58,-0.58 -0.87,-1.16 0.29,0 0.87,-0.29 1.16,-0.29 4.66,-1.45 7.86,-4.07 7.27,-6.11 v -0.29 h -0.29 c -0.58,0 -1.16,-0.29 -1.16,-0.87 -0.29,-0.58 0,-1.16 0.58,-1.16 0,0 0.29,-0.29 0,-0.29 v 0 c -0.58,-2.04 -4.66,-2.62 -9.31,-1.16 -0.58,0.29 -0.87,0.29 -1.45,0.58 V 8.73 c 0,-4.66 -1.45,-8.73 -3.49,-8.73 h -0.29 c 0,0 -0.29,0 -0.29,0.29 0,0.58 -0.58,0.87 -1.16,0.87 -0.58,0 -0.87,-0.29 -1.16,-0.87 0,0 0,-0.29 -0.29,-0.29 v 0 c -2.04,0 -3.78,3.78 -4.07,8.44 v 2.04 c 0.58,0 0.29,0 0,0 C 5.9932515,8.73 1.6232515,9.03 1.0432515,11.06 v 0.58 c 0.58,0 0.58,0.58 0.58,1.16 -0.29,0.58 -0.87000003,0.87 -1.16000003,0.58 h -0.32 c -0.87,2.04 2.33000003,4.95 6.69000003,6.69 0.29,0 0.58,0.29 0.58,0.29 0,0 -0.29,0.29 -0.29,0.58 -2.91,3.78 -3.78,7.86 -2.33,9.02 h 0.58 c 0.29,-0.29 0.87,-0.29 1.45,0 0.29,0.29 0.58,0.87 0.29,1.45 v 0.29 0 c 1.75,1.16 5.2399995,-0.87 8.1499995,-4.66 0.29,-0.29 0.58,-0.87 0.87,-1.16 0.29,0.29 0.29,0.58 0.58,0.87 2.62,3.78 6.11,6.11 7.86,4.95 h 0.29 v -0.29 c -0.29,-0.58 0,-1.16 0.29,-1.45 0.58,-0.29 1.16,-0.29 1.45,0 h 0.29 c 1.45,-0.87 0.87,-4.95 -1.75,-8.73 z m -10.48,-0.29 c -2.04,-0.58 -3.2,-2.91 -2.33,-4.95 0.58,-2.04 2.91,-3.2 4.95,-2.33 2.04,0.58 3.2,2.91 2.33,4.95 -0.58,2.04 -2.91,2.91 -4.95,2.33 z"
     id="path1"
     style="fill:url(#swatch10);fill-opacity:1" />
  <g
     id="g10"
     style="fill:url(#linearGradient10)"
     transform="translate(0.00325147,-0.01)" />
</svg>
