<?xml version="1.0" encoding="UTF-8"?><svg id="a" xmlns="http://www.w3.org/2000/svg" viewBox="0 0 168.09 32.33"><defs><style>.b{fill:#ccc;}</style></defs><path class="b" d="M25.17,21.24c-.29-.29-.58-.58-.87-1.16,.29,0,.87-.29,1.16-.29,4.66-1.45,7.86-4.07,7.27-6.11v-.29h-.29c-.58,0-1.16-.29-1.16-.87-.29-.58,0-1.16,.58-1.16,0,0,.29-.29,0-.29h0c-.58-2.04-4.66-2.62-9.31-1.16-.58,.29-.87,.29-1.45,.58v-1.75c0-4.66-1.45-8.73-3.49-8.73h-.29s-.29,0-.29,.29c0,.58-.58,.87-1.16,.87s-.87-.29-1.16-.87c0,0,0-.29-.29-.29h0c-2.04,0-3.78,3.78-4.07,8.44v2.04c.58,0,.29,0,0,0-4.36-1.75-8.73-1.45-9.31,.58v.58c.58,0,.58,.58,.58,1.16-.29,.58-.87,.87-1.16,.58H.14c-.87,2.04,2.33,4.95,6.69,6.69,.29,0,.58,.29,.58,.29,0,0-.29,.29-.29,.58-2.91,3.78-3.78,7.86-2.33,9.02h.58c.29-.29,.87-.29,1.45,0,.29,.29,.58,.87,.29,1.45v.29h0c1.75,1.16,5.24-.87,8.15-4.66,.29-.29,.58-.87,.87-1.16,.29,.29,.29,.58,.58,.87,2.62,3.78,6.11,6.11,7.86,4.95h.29v-.29c-.29-.58,0-1.16,.29-1.45,.58-.29,1.16-.29,1.45,0h.29c1.45-.87,.87-4.95-1.75-8.73Zm-10.48-.29c-2.04-.58-3.2-2.91-2.33-4.95,.58-2.04,2.91-3.2,4.95-2.33,2.04,.58,3.2,2.91,2.33,4.95-.58,2.04-2.91,2.91-4.95,2.33Z"/><g><path class="b" d="M56.36,25.36c-.98,0-1.83-.11-2.53-.34s-1.3-.52-1.78-.89c-.48-.37-.85-.81-1.11-1.32-.26-.51-.43-1.05-.52-1.62h2.84c.12,.5,.41,.93,.87,1.29,.46,.36,1.2,.54,2.24,.54,1.14,0,1.94-.18,2.4-.53,.47-.35,.7-.78,.7-1.28,0-.24-.05-.46-.16-.65s-.29-.37-.56-.53c-.27-.16-.63-.31-1.09-.44-.46-.13-1.04-.25-1.75-.35-.76-.1-1.45-.25-2.08-.45s-1.17-.46-1.62-.79c-.45-.33-.8-.73-1.05-1.2-.25-.47-.38-1.05-.38-1.72,0-.55,.12-1.07,.36-1.55,.24-.48,.6-.91,1.07-1.28,.47-.37,1.06-.66,1.75-.87,.69-.21,1.48-.31,2.38-.31s1.67,.12,2.31,.35c.65,.23,1.18,.54,1.62,.92s.77,.82,1.01,1.32c.24,.5,.4,1.03,.49,1.58h-2.84c-.12-.55-.39-1-.8-1.33s-1.01-.5-1.78-.5c-1.02,0-1.72,.16-2.12,.49-.4,.33-.59,.72-.59,1.19,0,.53,.25,.94,.74,1.21s1.35,.49,2.57,.65c.81,.1,1.54,.25,2.2,.45,.66,.2,1.22,.47,1.69,.8,.47,.34,.84,.75,1.09,1.24s.38,1.08,.38,1.77c0,.57-.12,1.11-.38,1.62-.25,.51-.62,.95-1.11,1.32-.49,.37-1.11,.66-1.85,.88-.74,.22-1.61,.32-2.61,.32Z"/><path class="b" d="M69.18,25.36c-.74,0-1.41-.11-1.99-.32-.59-.21-1.08-.52-1.47-.9s-.7-.84-.9-1.36-.31-1.09-.31-1.71c0-1.36,.41-2.37,1.21-3.01,.81-.65,2-.97,3.57-.97h4.26v-.8c0-1.07-.24-1.8-.72-2.2-.48-.4-1.19-.59-2.12-.59-.88,0-1.52,.15-1.91,.46-.4,.31-.62,.7-.67,1.16h-2.84c.04-.57,.19-1.1,.45-1.59,.27-.49,.64-.92,1.11-1.28,.47-.36,1.05-.65,1.72-.85,.67-.21,1.43-.31,2.28-.31s1.61,.09,2.29,.28c.68,.19,1.26,.49,1.75,.89,.48,.41,.86,.93,1.12,1.58,.27,.65,.4,1.43,.4,2.37v5.38c0,.72,0,1.36,.03,1.9,.02,.54,.06,1.07,.13,1.59h-2.58c-.05-.36-.09-.7-.1-1.01-.02-.31-.03-.67-.03-1.09-.19,.34-.43,.66-.72,.94s-.63,.53-1.02,.75-.83,.38-1.32,.5-1.02,.18-1.59,.18Zm.75-2.3c.5,0,.97-.07,1.41-.22s.82-.35,1.15-.62,.59-.59,.78-.98,.28-.83,.28-1.33v-.8h-3.75c-.76,0-1.34,.16-1.76,.49-.41,.33-.62,.8-.62,1.42,0,.59,.2,1.07,.59,1.46,.4,.39,1.03,.58,1.91,.58Z"/><path class="b" d="M79.89,25.08V6.98h2.84v10.37l5.69-5.97h3.36l-5.4,5.69,5.92,8.01h-3.46l-4.45-6.02-1.65,1.65v4.37h-2.84Z"/><path class="b" d="M99.4,25.36c-1.64,0-2.87-.46-3.68-1.4s-1.23-2.36-1.23-4.29V11.38h2.84v8.01c0,1.16,.24,2.03,.71,2.61,.47,.59,1.24,.88,2.31,.88,.59,0,1.09-.1,1.51-.3,.42-.2,.77-.46,1.03-.78,.27-.32,.47-.69,.61-1.11,.14-.42,.21-.86,.21-1.31V11.38h2.84v13.7h-2.64v-2.35c-.33,.72-.87,1.34-1.63,1.86s-1.72,.78-2.9,.78Z"/><path class="b" d="M110.18,25.08V11.38h2.64v2.35c.14-.36,.32-.7,.56-1.01,.23-.31,.51-.58,.83-.83,.32-.24,.68-.43,1.09-.58s.84-.22,1.31-.22c.33,0,.59,.02,.8,.05,.21,.03,.39,.08,.54,.13v2.56c-.17-.09-.38-.15-.63-.19s-.57-.06-.97-.06c-.5,0-.95,.09-1.36,.26-.41,.17-.75,.41-1.03,.72s-.51,.68-.67,1.11c-.16,.43-.25,.9-.25,1.4v8.01h-2.84Z"/><path class="b" d="M123.99,25.36c-.74,0-1.41-.11-1.99-.32-.59-.21-1.08-.52-1.47-.9s-.7-.84-.9-1.36-.31-1.09-.31-1.71c0-1.36,.41-2.37,1.21-3.01,.81-.65,2-.97,3.57-.97h4.26v-.8c0-1.07-.24-1.8-.72-2.2-.48-.4-1.19-.59-2.12-.59-.88,0-1.52,.15-1.91,.46-.4,.31-.62,.7-.67,1.16h-2.84c.04-.57,.19-1.1,.45-1.59,.27-.49,.64-.92,1.11-1.28,.47-.36,1.05-.65,1.72-.85,.67-.21,1.43-.31,2.28-.31s1.61,.09,2.29,.28c.68,.19,1.26,.49,1.75,.89,.48,.41,.86,.93,1.12,1.58,.27,.65,.4,1.43,.4,2.37v5.38c0,.72,0,1.36,.03,1.9,.02,.54,.06,1.07,.13,1.59h-2.58c-.05-.36-.09-.7-.1-1.01-.02-.31-.03-.67-.03-1.09-.19,.34-.43,.66-.72,.94s-.63,.53-1.02,.75-.83,.38-1.32,.5-1.02,.18-1.59,.18Zm.75-2.3c.5,0,.97-.07,1.41-.22s.82-.35,1.15-.62,.59-.59,.78-.98,.28-.83,.28-1.33v-.8h-3.75c-.76,0-1.34,.16-1.76,.49-.41,.33-.62,.8-.62,1.42,0,.59,.2,1.07,.59,1.46,.4,.39,1.03,.58,1.91,.58Z"/><path class="b" d="M139.78,25.21c-.76,0-1.42-.08-1.98-.25-.56-.16-1.02-.42-1.38-.76-.36-.34-.62-.79-.79-1.33s-.25-1.19-.25-1.93v-7.13h-1.94v-2.43h1.94v-3.1h2.84v3.1h3.49v2.43h-3.49v6.75c0,.38,.04,.71,.1,1,.07,.28,.19,.51,.36,.68,.17,.17,.4,.3,.67,.38s.63,.12,1.06,.12c.26,0,.52,0,.78-.01,.26,0,.52-.03,.78-.06v2.43c-.33,.03-.66,.06-1,.09-.34,.03-.74,.04-1.2,.04Z"/><path class="b" d="M150.77,25.36c-.91,0-1.78-.14-2.59-.43-.81-.28-1.52-.71-2.13-1.29-.61-.58-1.1-1.31-1.46-2.18-.36-.88-.54-1.91-.54-3.1v-.52c0-1.12,.18-2.1,.54-2.95,.36-.84,.85-1.55,1.46-2.11,.61-.56,1.32-.98,2.13-1.27,.81-.28,1.67-.43,2.59-.43s1.77,.14,2.58,.43c.81,.29,1.52,.71,2.13,1.28,.61,.57,1.1,1.27,1.46,2.11,.36,.84,.54,1.81,.54,2.93v.52c0,1.17-.18,2.2-.54,3.08-.36,.88-.85,1.61-1.46,2.2-.61,.59-1.32,1.02-2.13,1.3-.81,.29-1.67,.43-2.58,.43Zm0-2.48c.5,0,.98-.09,1.45-.27,.47-.18,.87-.45,1.21-.81s.62-.83,.83-1.4c.21-.57,.31-1.25,.31-2.04v-.52c0-.72-.1-1.35-.31-1.89-.21-.53-.48-.98-.83-1.33-.34-.35-.75-.62-1.21-.79-.46-.17-.95-.26-1.45-.26s-.98,.09-1.45,.26c-.46,.17-.87,.44-1.21,.79-.34,.35-.62,.8-.83,1.33-.21,.54-.31,1.16-.31,1.89v.52c0,.79,.1,1.47,.31,2.04,.21,.57,.48,1.04,.83,1.41,.34,.37,.75,.64,1.21,.81,.47,.17,.95,.26,1.45,.26Z"/><path class="b" d="M160.34,25.08V11.38h2.64v2.35c.14-.36,.32-.7,.56-1.01,.23-.31,.51-.58,.83-.83,.32-.24,.68-.43,1.09-.58s.84-.22,1.31-.22c.33,0,.59,.02,.8,.05,.21,.03,.39,.08,.54,.13v2.56c-.17-.09-.38-.15-.63-.19s-.57-.06-.97-.06c-.5,0-.95,.09-1.36,.26-.41,.17-.75,.41-1.03,.72s-.51,.68-.67,1.11c-.16,.43-.25,.9-.25,1.4v8.01h-2.84Z"/></g></svg>