<?xml version="1.0" encoding="UTF-8"?><svg id="a" xmlns="http://www.w3.org/2000/svg" viewBox="0 0 100 100"><defs><style>.b{stroke:#1a1a1a;stroke-width:5px;}.b,.c{fill:none;stroke-miterlimit:10;}.c{stroke:#ccc;stroke-width:.25px;}.d{fill:#ccc;}</style></defs><path class="b" d="M14.43,29.3c10.33,1.37,23.43,2.18,38.46,.86,12.73-1.12,23.75-3.49,32.69-6.04"/><path class="b" d="M66.92,18.23c2.38,9.69,3.01,17.84,3.11,23.69,.19,10.98-1.51,13.41-2.98,14.67-5.12,4.38-14.46,.47-15.56,0"/><path class="b" d="M27.57,18.86c-.42,7.7-.91,18.47-1.13,31.39-.35,20.08,.3,23.57,2.5,26.42,9.8,12.72,42.37,2.1,47.71,.31"/><path class="d" d="M5.04,29.22v-.49h1v-3.09l-1,.71v-.61l1.02-.72h.56v3.71h.82v.49h-2.4Z"/><g><line class="d" x1="9.92" y1="27.83" x2="12.82" y2="28.7"/><g><line class="c" x1="9.92" y1="27.83" x2="11.1" y2="28.18"/><polygon class="d" points="10.39 29.27 12.82 28.7 11.11 26.89 10.39 29.27"/></g></g><path class="d" d="M63.44,12.36v-.46l1.68-1.46c.13-.11,.23-.21,.32-.29,.08-.09,.15-.17,.2-.25,.05-.08,.08-.16,.1-.23,.02-.08,.03-.16,.03-.25,0-.24-.07-.44-.21-.59-.14-.15-.33-.23-.58-.23-.29,0-.52,.08-.67,.24s-.23,.38-.23,.67h-.56c0-.2,.04-.39,.11-.57,.07-.17,.17-.32,.3-.45,.13-.12,.29-.22,.47-.29,.18-.07,.38-.11,.6-.11s.4,.03,.57,.1,.31,.16,.43,.28,.2,.26,.26,.42c.06,.16,.09,.34,.09,.53,0,.14-.02,.28-.07,.4-.04,.12-.1,.24-.18,.35-.08,.11-.17,.22-.28,.33-.11,.11-.23,.21-.36,.33l-1.26,1.04h2.21v.49h-2.95Z"/><g><line class="d" x1="65.75" y1="14.34" x2="66.78" y2="17.18"/><g><line class="c" x1="65.75" y1="14.34" x2="66.17" y2="15.5"/><polygon class="d" points="64.87 15.58 66.78 17.18 67.21 14.73 64.87 15.58"/></g></g><path class="d" d="M28.2,12.74c-.23,0-.43-.03-.61-.09-.18-.06-.33-.15-.45-.25s-.22-.24-.28-.38-.1-.3-.1-.47h.56c0,.2,.07,.37,.21,.5,.14,.13,.36,.2,.67,.2s.53-.07,.67-.2c.14-.13,.21-.31,.21-.53,0-.23-.07-.41-.21-.55-.14-.14-.36-.2-.66-.2h-.45v-.48h.45c.29,0,.5-.06,.62-.18,.13-.12,.19-.29,.19-.51s-.06-.37-.18-.49c-.12-.12-.33-.18-.63-.18s-.5,.06-.62,.18c-.13,.12-.19,.27-.19,.45h-.57c0-.16,.03-.3,.09-.44,.06-.14,.15-.26,.27-.36,.12-.1,.26-.18,.43-.24,.17-.06,.37-.09,.58-.09s.42,.03,.59,.09c.17,.06,.31,.14,.43,.24,.12,.1,.21,.22,.27,.35,.06,.13,.09,.28,.09,.43,0,.24-.06,.44-.19,.61-.13,.17-.3,.28-.53,.35,.24,.08,.43,.2,.57,.37,.14,.17,.21,.41,.21,.71,0,.16-.03,.31-.1,.45-.06,.14-.16,.27-.28,.37s-.27,.19-.45,.25c-.18,.06-.38,.09-.61,.09Z"/><g><line class="d" x1="28.01" y1="14.83" x2="27.81" y2="17.85"/><g><line class="c" x1="28.01" y1="14.83" x2="27.93" y2="16.06"/><polygon class="d" points="26.71 15.61 27.81 17.85 29.19 15.77 26.71 15.61"/></g></g></svg>