<?xml version="1.0" encoding="UTF-8"?><svg id="a" xmlns="http://www.w3.org/2000/svg" viewBox="0 0 100 100"><defs><style>.b{stroke:#1a1a1a;stroke-width:5px;}.b,.c{fill:none;stroke-miterlimit:10;}.c{stroke:#ccc;stroke-width:.25px;}.d{fill:#ccc;}</style></defs><g><path class="b" d="M34.67,18.91c-1.56,9.63-2.91,19.91-3.91,30.79-1.22,13.27-1.77,25.77-1.86,37.38"/><path class="b" d="M20.19,31.49c8.44-2.04,16.88-4.08,25.32-6.12-5.34,5.3-13.34,14.6-19.31,28.38-4.99,11.53-6.74,21.97-7.38,29.09-.01,.14,.97-5.5,3.98-12.66,0,0,3.02-7.2,7.94-13.94,7.07-9.69,35.61-39.3,48.48-31.19,13.76,8.67,10.3,49.96-3.82,58.14-6.68,3.87-12.43,2.53-12.43,2.53-4.3-1-7.07-3.85-8.3-5.32"/></g><path class="d" d="M35.1,11.97v-.49h1v-3.09l-1,.71v-.61l1.02-.72h.56v3.71h.82v.49h-2.4Z"/><g><line class="d" x1="35.8" y1="13.82" x2="35.23" y2="16.79"/><g><line class="c" x1="35.8" y1="13.82" x2="35.57" y2="15.03"/><polygon class="d" points="34.41 14.44 35.23 16.79 36.86 14.91 34.41 14.44"/></g></g><path class="d" d="M10.28,34.56v-.46l1.68-1.46c.13-.11,.23-.21,.32-.29s.15-.17,.2-.25c.05-.08,.08-.16,.1-.23s.03-.16,.03-.25c0-.24-.07-.44-.21-.59-.14-.15-.33-.23-.58-.23-.29,0-.52,.08-.67,.24s-.23,.38-.23,.67h-.56c0-.2,.04-.39,.11-.57,.07-.17,.17-.32,.3-.45,.13-.12,.29-.22,.47-.29s.38-.11,.6-.11,.4,.03,.57,.1c.17,.07,.31,.16,.43,.28,.12,.12,.2,.26,.26,.42s.09,.34,.09,.53c0,.14-.02,.28-.07,.4-.04,.12-.1,.24-.18,.35s-.17,.22-.28,.33c-.11,.11-.23,.22-.36,.33l-1.26,1.04h2.21v.49h-2.94Z"/><g><line class="d" x1="15.22" y1="32.59" x2="18.19" y2="32.03"/><g><line class="c" x1="15.22" y1="32.59" x2="16.43" y2="32.36"/><polygon class="d" points="16.3 33.66 18.19 32.03 15.84 31.21 16.3 33.66"/></g></g></svg>