<?xml version="1.0" encoding="UTF-8"?><svg id="a" xmlns="http://www.w3.org/2000/svg" viewBox="0 0 100 100"><defs><style>.b{stroke:#1a1a1a;stroke-width:5px;}.b,.c{fill:none;stroke-miterlimit:10;}.c{stroke:#ccc;stroke-width:.25px;}.d{fill:#ccc;}</style></defs><path class="b" d="M29.23,15.28c-5.34,13.17-7.01,24.27-7.58,31.55-1.34,17.07,1.52,36.06,6.91,37.49,1.25,.33,2.35-.06,2.35-.06,2.93-1.04,4.02-5.9,3.97-9.12,0-.69-.07-1.25-.12-1.62"/><path class="b" d="M46.36,16.9c5.63,.69,12.15,1.16,19.4,1.11,6.14-.05,11.71-.47,16.61-1.07"/><path class="d" d="M31.17,10.57v-.49h1v-3.09l-1,.71v-.61l1.02-.72h.57v3.71h.82v.49h-2.4Z"/><g><line class="d" x1="30.99" y1="11.67" x2="29.54" y2="14.32"/><g><line class="c" x1="30.99" y1="11.67" x2="30.4" y2="12.75"/><polygon class="d" points="29.49 11.83 29.54 14.32 31.67 13.03 29.49 11.83"/></g></g><path class="d" d="M36.91,17.44v-.46l1.68-1.46c.13-.11,.23-.21,.32-.29,.08-.09,.15-.17,.2-.25s.08-.16,.1-.23c.02-.08,.03-.16,.03-.25,0-.24-.07-.44-.21-.59-.14-.15-.33-.23-.58-.23-.29,0-.52,.08-.67,.24s-.23,.38-.23,.67h-.57c0-.2,.04-.39,.11-.57,.07-.17,.17-.32,.3-.45,.13-.12,.29-.22,.47-.29,.18-.07,.38-.11,.6-.11s.4,.03,.57,.1c.17,.07,.31,.16,.43,.28s.21,.26,.26,.42c.06,.16,.09,.34,.09,.53,0,.14-.02,.28-.07,.4-.04,.12-.11,.24-.18,.35-.08,.11-.17,.22-.28,.33s-.23,.21-.36,.33l-1.26,1.04h2.21v.49h-2.94Z"/><g><line class="d" x1="41.25" y1="16.05" x2="44.21" y2="16.68"/><g><line class="c" x1="41.25" y1="16.05" x2="42.45" y2="16.3"/><polygon class="d" points="41.84 17.45 44.21 16.68 42.35 15.01 41.84 17.45"/></g></g><path class="b" d="M48.65,32.13c5.63,.69,12.15,1.16,19.4,1.11,6.14-.05,11.71-.47,16.61-1.07"/><path class="d" d="M41.29,33.3c-.23,0-.43-.03-.61-.09-.18-.06-.33-.15-.45-.26-.12-.11-.22-.24-.28-.38-.06-.15-.1-.3-.1-.47h.57c0,.2,.07,.37,.21,.5,.14,.13,.36,.2,.67,.2s.53-.07,.67-.2c.14-.13,.21-.31,.21-.53,0-.23-.07-.41-.21-.55-.14-.14-.36-.2-.66-.2h-.45v-.48h.45c.29,0,.5-.06,.62-.18s.19-.29,.19-.51-.06-.37-.18-.49-.33-.18-.63-.18-.5,.06-.62,.18c-.13,.12-.19,.27-.19,.45h-.56c0-.16,.03-.3,.09-.44,.06-.14,.15-.26,.27-.36,.12-.1,.26-.18,.43-.24,.17-.06,.37-.09,.59-.09s.42,.03,.59,.09c.17,.06,.31,.14,.43,.24,.12,.1,.21,.22,.27,.35,.06,.13,.09,.28,.09,.43,0,.24-.06,.44-.19,.61-.13,.17-.3,.28-.53,.35,.24,.08,.43,.2,.57,.37,.14,.17,.21,.41,.21,.71,0,.16-.03,.31-.1,.45-.06,.14-.16,.27-.28,.37-.12,.11-.27,.19-.45,.25-.18,.06-.38,.09-.61,.09Z"/><g><line class="d" x1="43.54" y1="31.28" x2="46.5" y2="31.91"/><g><line class="c" x1="43.54" y1="31.28" x2="44.74" y2="31.53"/><polygon class="d" points="44.13 32.68 46.5 31.91 44.64 30.24 44.13 32.68"/></g></g><path class="d" d="M62.43,10.17v-1.02h-2.14v-.43l2.08-2.76h.62v2.7h.54v.49h-.54v1.02h-.56Zm-1.54-1.51h1.54v-2.04l-1.54,2.04Z"/><g><line class="d" x1="62.54" y1="11.6" x2="63.46" y2="14.49"/><g><line class="c" x1="62.54" y1="11.6" x2="62.91" y2="12.78"/><polygon class="d" points="61.62 12.81 63.46 14.49 63.99 12.05 61.62 12.81"/></g></g><path class="b" d="M63.81,16.96c4.17,16.29,13.49,56.76,1.6,63.06-2.45,1.3-8.65,2.66-12.45-.51-2.74-2.29-4.08-6.81-2.48-10.21,1.89-4.03,7.1-4.74,9.31-5.05,12.86-1.76,24.01,11.67,25.98,14.11"/></svg>