<?xml version="1.0" encoding="UTF-8"?><svg id="a" xmlns="http://www.w3.org/2000/svg" viewBox="0 0 100 100"><defs><style>.b{stroke:#1a1a1a;stroke-width:5px;}.b,.c{fill:none;stroke-miterlimit:10;}.c{stroke:#ccc;stroke-width:.25px;}.d{fill:#ccc;}</style></defs><path class="b" d="M22.92,32.57c-2.61,12.11-.46,36.68-.46,36.68,.12-3.98,.83-10.32,4.04-17.19,1.96-4.2,8.06-17.23,21.84-20.9,9.65-2.57,24.36-.89,30.34,9.61,3.28,5.75,4.02,14.29-.29,20.53-6.74,9.78-21.33,7.4-23.64,7.02-8.46-1.38-14.08-6.18-16.43-8.47"/><path class="b" d="M60.65,19.92c.4,20.64,7.2,48.2-14.49,60.15"/><path class="d" d="M23.11,26.19v-.49h1v-3.09l-1,.71v-.61l1.02-.72h.56v3.71h.82v.49h-2.4Z"/><g><line class="d" x1="23.93" y1="28.11" x2="23.21" y2="31.05"/><g><line class="c" x1="23.93" y1="28.11" x2="23.64" y2="29.31"/><polygon class="d" points="22.51 28.66 23.21 31.05 24.93 29.25 22.51 28.66"/></g></g><path class="d" d="M59.06,13.4v-.46l1.68-1.46c.13-.11,.23-.21,.32-.29,.08-.09,.15-.17,.2-.25,.05-.08,.08-.16,.1-.23,.02-.08,.03-.16,.03-.25,0-.24-.07-.44-.21-.59-.14-.15-.33-.23-.58-.23-.29,0-.52,.08-.67,.24s-.23,.38-.23,.67h-.56c0-.2,.04-.39,.11-.57,.07-.17,.17-.32,.3-.45,.13-.12,.29-.22,.47-.29,.18-.07,.38-.11,.6-.11s.4,.03,.57,.1,.31,.16,.43,.28,.2,.26,.26,.42c.06,.16,.09,.34,.09,.53,0,.14-.02,.28-.07,.4-.04,.12-.1,.24-.18,.35-.08,.11-.17,.22-.28,.33-.11,.11-.23,.21-.36,.33l-1.26,1.04h2.21v.49h-2.95Z"/><g><line class="d" x1="60.56" y1="15.49" x2="60.57" y2="18.51"/><g><line class="c" x1="60.56" y1="15.49" x2="60.56" y2="16.72"/><polygon class="d" points="59.32 16.36 60.57 18.51 61.81 16.35 59.32 16.36"/></g></g></svg>