<?xml version="1.0" encoding="UTF-8"?><svg id="a" xmlns="http://www.w3.org/2000/svg" viewBox="0 0 100 100"><defs><style>.b{stroke:#1a1a1a;stroke-width:5px;}.b,.c{fill:none;stroke-miterlimit:10;}.c{stroke:#ccc;stroke-width:.25px;}.d{fill:#ccc;}</style></defs><path class="b" d="M21.24,21.96l17.76-3.24c.12-.02,.19,.12,.1,.2-16.84,14.35-25.13,32.5-20.03,46.71,.57,1.58,5.57,15.52,17.12,17.78,5.16,1.01,9.88-.64,11.65-1.26,7.81-2.73,12.07-8.42,13.7-10.65,13.6-18.67,5.95-51.31,4.98-55.16-.02-.06,.08-.09,.11-.03,5.27,8.86,10.54,17.73,15.81,26.59"/><g><line class="d" x1="16.8" y1="23.18" x2="19.71" y2="22.36"/><g><line class="c" x1="16.8" y1="23.18" x2="17.98" y2="22.84"/><polygon class="d" points="17.97 24.14 19.71 22.36 17.29 21.75 17.97 24.14"/></g></g></svg>