<?xml version="1.0" encoding="UTF-8"?><svg id="a" xmlns="http://www.w3.org/2000/svg" viewBox="0 0 100 100"><defs><style>.b{stroke:#1a1a1a;stroke-width:5px;}.b,.c{fill:none;stroke-miterlimit:10;}.c{stroke:#ccc;stroke-width:.25px;}.d{fill:#ccc;}</style></defs><path class="b" d="M24.8,25.98c3.13,.83,8.59,1.83,15.15,.6,4.02-.75,7.24-2.12,9.53-3.32"/><path class="b" d="M37.14,16.57c8.56,48.61,6.55,61.48,2.38,62.86-3.83,1.27-11.83-4.7-12.38-11.15-.45-5.18,4.04-9.33,6.51-11.62,9.05-8.38,26.05-14.1,36.51-6.38,1.13,.84,7.19,5.52,6.89,12.26-.3,6.76-6.88,13.26-16.6,15.19"/><path class="b" d="M66.08,25.2c4.09,2.09,5.87,7.71,5.87,7.71"/><path class="d" d="M15.68,24.72v-.49h1v-3.09l-1,.71v-.61l1.02-.72h.57v3.71h.82v.49h-2.4Z"/><g><line class="d" x1="20.63" y1="24.63" x2="23.43" y2="25.78"/><g><line class="c" x1="20.63" y1="24.63" x2="21.77" y2="25.1"/><polygon class="d" points="20.96 26.11 23.43 25.78 21.91 23.8 20.96 26.11"/></g></g><path class="d" d="M34.51,10.91v-.46l1.68-1.46c.13-.11,.23-.21,.32-.29,.08-.09,.15-.17,.2-.25s.08-.16,.1-.23c.02-.08,.03-.16,.03-.25,0-.24-.07-.44-.21-.59-.14-.15-.33-.23-.58-.23-.29,0-.52,.08-.67,.24s-.23,.38-.23,.67h-.57c0-.2,.04-.39,.11-.57s.17-.32,.3-.45c.13-.12,.29-.22,.47-.29,.18-.07,.38-.11,.6-.11s.4,.03,.57,.1c.17,.07,.31,.16,.43,.28s.21,.26,.26,.42c.06,.16,.09,.34,.09,.53,0,.14-.02,.28-.07,.4-.04,.12-.11,.24-.18,.35-.08,.11-.17,.22-.28,.33-.11,.11-.23,.22-.36,.33l-1.26,1.04h2.21v.49h-2.94Z"/><g><line class="d" x1="36.47" y1="12.46" x2="36.92" y2="15.45"/><g><line class="c" x1="36.47" y1="12.46" x2="36.65" y2="13.68"/><polygon class="d" points="35.36 13.5 36.92 15.45 37.83 13.13 35.36 13.5"/></g></g><path class="d" d="M59.86,23.19c-.23,0-.43-.03-.61-.09-.18-.06-.33-.15-.45-.26-.12-.11-.22-.24-.28-.38-.06-.15-.1-.3-.1-.47h.56c0,.2,.07,.37,.21,.5,.14,.13,.36,.2,.67,.2s.53-.07,.67-.2c.14-.13,.21-.31,.21-.53,0-.23-.07-.41-.21-.55-.14-.14-.36-.2-.66-.2h-.45v-.48h.45c.29,0,.5-.06,.62-.18,.13-.12,.19-.29,.19-.51s-.06-.37-.18-.49c-.12-.12-.33-.18-.63-.18s-.5,.06-.62,.18c-.13,.12-.19,.27-.19,.45h-.57c0-.16,.03-.3,.09-.44,.06-.14,.15-.26,.27-.36s.26-.18,.43-.24c.17-.06,.37-.09,.58-.09s.42,.03,.59,.09c.17,.06,.31,.14,.43,.24s.21,.22,.27,.35c.06,.13,.09,.28,.09,.43,0,.24-.06,.44-.19,.61-.13,.17-.3,.28-.53,.35,.24,.08,.43,.2,.57,.37,.14,.17,.21,.41,.21,.71,0,.16-.03,.31-.1,.45-.06,.14-.16,.27-.28,.37-.12,.11-.27,.19-.45,.25-.18,.06-.38,.09-.61,.09Z"/><g><line class="d" x1="62.91" y1="23.2" x2="65.46" y2="24.83"/><g><line class="c" x1="62.91" y1="23.2" x2="63.95" y2="23.86"/><polygon class="d" points="62.97 24.72 65.46 24.83 64.31 22.62 62.97 24.72"/></g></g></svg>