<?xml version="1.0" encoding="UTF-8"?><svg id="a" xmlns="http://www.w3.org/2000/svg" viewBox="0 0 100 100"><defs><style>.b{stroke:#1a1a1a;stroke-width:5px;}.b,.c{fill:none;stroke-miterlimit:10;}.c{stroke:#ccc;stroke-width:.25px;}.d{fill:#ccc;}</style></defs><path class="b" d="M19.64,20.53c14.54,3.28,26.06,3.13,33.96,2.36,11.72-1.14,28.72-4.91,28.72-4.91h0"/><path class="b" d="M51.58,10.53c3.72,12.16,10.45,37.29,2.46,42.11-2.89,1.74-8.89,1.54-11.68-1.85-1.98-2.41-2.19-6.23-.61-8.8,2.88-4.7,11.06-4.23,14.57-.81,1.72,1.68,2.12,3.87,2.34,5.36,1.25,8.54,3.26,22.2-6.37,32.93-1.73,1.93-4.86,4.9-9.89,7.28"/><path class="d" d="M10.68,20.81v-.49h1v-3.09l-1,.71v-.61l1.02-.72h.56v3.71h.82v.49h-2.4Z"/><g><line class="d" x1="15.57" y1="19.42" x2="18.47" y2="20.3"/><g><line class="c" x1="15.57" y1="19.42" x2="16.75" y2="19.78"/><polygon class="d" points="16.04 20.86 18.47 20.3 16.76 18.48 16.04 20.86"/></g></g><path class="d" d="M44.66,9.72v-.46l1.68-1.46c.13-.11,.23-.21,.32-.29,.08-.09,.15-.17,.2-.25s.08-.16,.1-.23c.02-.08,.03-.16,.03-.25,0-.24-.07-.44-.21-.59s-.33-.23-.58-.23c-.29,0-.52,.08-.67,.24s-.23,.38-.23,.67h-.57c0-.2,.04-.39,.11-.57,.07-.17,.17-.32,.3-.45,.13-.12,.29-.22,.47-.29s.38-.11,.6-.11,.4,.03,.57,.1c.17,.07,.31,.16,.43,.28,.12,.12,.2,.26,.26,.42,.06,.16,.09,.34,.09,.53,0,.14-.02,.28-.07,.4-.04,.12-.1,.24-.18,.35-.08,.11-.17,.22-.28,.33-.11,.11-.23,.21-.36,.33l-1.26,1.04h2.21v.49h-2.94Z"/><g><line class="d" x1="50.57" y1="6.29" x2="51.39" y2="9.2"/><g><line class="c" x1="50.57" y1="6.29" x2="50.9" y2="7.47"/><polygon class="d" points="49.6 7.46 51.39 9.2 52 6.78 49.6 7.46"/></g></g></svg>