<?xml version="1.0" encoding="UTF-8"?><svg id="a" xmlns="http://www.w3.org/2000/svg" viewBox="0 0 100 100"><defs><style>.b{stroke:#1a1a1a;stroke-width:5px;}.b,.c{fill:none;stroke-miterlimit:10;}.c{stroke:#ccc;stroke-width:.25px;}.d{fill:#ccc;}</style></defs><path class="b" d="M34.7,18.82l24.13-5.23L19.86,64.97c-.08,.11,.07,.24,.17,.14,24.83-23.31,48.03-33.7,57.95-26.39,7.24,5.34,9.38,24.99-.89,37.02-12.13,14.2-36.93,12.46-41.15,4.94-2.01-3.6,.21-9.35,3.49-12.34,6.12-5.58,15.95-1.6,16.72-1.28,9.4,3.97,11.72,14.33,11.97,15.52"/><g><line class="d" x1="30.58" y1="19.93" x2="33.5" y2="19.12"/><g><line class="c" x1="30.58" y1="19.93" x2="31.77" y2="19.6"/><polygon class="d" points="31.75 20.9 33.5 19.12 31.08 18.5 31.75 20.9"/></g></g></svg>