<?xml version="1.0" encoding="UTF-8"?><svg id="a" xmlns="http://www.w3.org/2000/svg" viewBox="0 0 100 100"><defs><style>.b{stroke:#1a1a1a;stroke-width:5px;}.b,.c{fill:none;stroke-miterlimit:10;}.c{stroke:#ccc;stroke-width:.25px;}.d{fill:#ccc;}</style></defs><path class="b" d="M29.6,27.83c6.3,.79,13.61,1.31,21.74,1.19,6.88-.1,13.12-.65,18.62-1.4"/><path class="b" d="M32.67,39.94c6.3,.79,13.61,1.31,21.74,1.19,6.88-.1,13.12-.65,18.62-1.4"/><path class="d" d="M19.37,28.39v-.49h1v-3.09l-1,.71v-.61l1.02-.72h.56v3.71h.82v.49h-2.4Z"/><g><line class="d" x1="23.53" y1="26.68" x2="26.49" y2="27.3"/><g><line class="c" x1="23.53" y1="26.68" x2="24.73" y2="26.93"/><polygon class="d" points="24.12 28.07 26.49 27.3 24.63 25.64 24.12 28.07"/></g></g><path class="d" d="M21.96,40.43v-.46l1.68-1.46c.13-.11,.23-.21,.32-.29,.08-.09,.15-.17,.2-.25,.05-.08,.08-.16,.1-.23s.03-.16,.03-.25c0-.24-.07-.44-.21-.59s-.33-.23-.58-.23c-.29,0-.52,.08-.67,.24s-.23,.38-.23,.67h-.56c0-.2,.04-.39,.11-.57,.07-.17,.17-.32,.3-.45,.13-.12,.29-.22,.47-.29s.38-.11,.6-.11,.4,.03,.57,.1c.17,.07,.31,.16,.43,.28s.2,.26,.26,.42,.09,.34,.09,.53c0,.14-.02,.28-.07,.4-.04,.12-.1,.24-.18,.35-.08,.11-.17,.22-.28,.33-.11,.11-.23,.21-.36,.33l-1.26,1.04h2.21v.49h-2.94Z"/><g><line class="d" x1="26.8" y1="39.03" x2="29.75" y2="39.66"/><g><line class="c" x1="26.8" y1="39.03" x2="28" y2="39.29"/><polygon class="d" points="27.38 40.43 29.75 39.66 27.9 37.99 27.38 40.43"/></g></g><path class="d" d="M43.64,10.6c-.23,0-.43-.03-.61-.09-.18-.06-.33-.15-.45-.25s-.22-.24-.28-.38c-.06-.15-.1-.3-.1-.47h.56c0,.2,.07,.37,.21,.5s.36,.2,.67,.2,.53-.07,.67-.2c.14-.13,.21-.31,.21-.53,0-.23-.07-.41-.21-.55-.14-.14-.36-.2-.66-.2h-.45v-.48h.45c.29,0,.5-.06,.62-.18,.13-.12,.19-.29,.19-.51s-.06-.37-.18-.49c-.12-.12-.33-.18-.63-.18s-.5,.06-.62,.18c-.13,.12-.19,.27-.19,.45h-.56c0-.16,.03-.3,.09-.44,.06-.14,.15-.26,.27-.36,.12-.1,.26-.18,.43-.24,.17-.06,.37-.09,.59-.09s.42,.03,.59,.09c.17,.06,.31,.14,.43,.24,.12,.1,.21,.22,.27,.35,.06,.13,.09,.28,.09,.43,0,.24-.06,.44-.19,.61-.13,.17-.3,.28-.53,.35,.24,.08,.43,.2,.57,.37,.14,.17,.21,.41,.21,.71,0,.16-.03,.31-.1,.45-.06,.14-.16,.27-.28,.37s-.27,.19-.45,.25c-.18,.06-.38,.09-.61,.09Z"/><g><line class="d" x1="44.23" y1="11.97" x2="45.14" y2="14.85"/><g><line class="c" x1="44.23" y1="11.97" x2="44.6" y2="13.14"/><polygon class="d" points="43.3 13.17 45.14 14.85 45.68 12.41 43.3 13.17"/></g></g><path class="b" d="M46.05,17.02c5.18,16.29,16.74,56.76,1.98,63.06-3.04,1.3-10.73,2.66-15.45-.51-3.39-2.29-5.06-6.81-3.08-10.21,2.35-4.03,8.82-4.74,11.56-5.05,15.95-1.76,29.8,11.67,32.24,14.11"/></svg>