<?xml version="1.0" encoding="UTF-8"?><svg id="a" xmlns="http://www.w3.org/2000/svg" viewBox="0 0 100 100"><defs><style>.b{stroke:#1a1a1a;stroke-width:5px;}.b,.c{fill:none;stroke-miterlimit:10;}.c{stroke:#ccc;stroke-width:.25px;}.d{fill:#ccc;}</style></defs><path class="b" d="M20.89,29.08s4.56,2.17,19.77,0,19.55-4.6,19.55-4.6"/><path class="b" d="M32,12.89c1.57,11.98,2.22,28.72-2.05,47.92-2.05,9.22-4.85,17.28-7.74,24.06"/><path class="b" d="M50.77,45.57c2.98-1.96,8.57-5.07,16.21-6,4.98-.61,9.19-.1,12.13,.51"/><path class="b" d="M45.97,62.46s-5.11,12.26,4.09,15.45,28.34-3.57,28.34-3.57"/><path class="d" d="M12.09,28.37v-.49h1v-3.09l-1,.71v-.61l1.02-.72h.56v3.71h.82v.49h-2.4Z"/><g><line class="d" x1="16.64" y1="27.36" x2="19.36" y2="28.68"/><g><line class="c" x1="16.64" y1="27.36" x2="17.75" y2="27.9"/><polygon class="d" points="16.88 28.86 19.36 28.68 17.96 26.62 16.88 28.86"/></g></g><path class="d" d="M29.73,7.66v-.46l1.68-1.46c.13-.11,.23-.21,.32-.29,.08-.09,.15-.17,.2-.25,.05-.08,.08-.16,.1-.23s.03-.16,.03-.25c0-.24-.07-.44-.21-.59s-.33-.23-.58-.23c-.29,0-.52,.08-.67,.24s-.23,.38-.23,.67h-.56c0-.2,.04-.39,.11-.57,.07-.17,.17-.32,.3-.45,.13-.12,.29-.22,.47-.29s.38-.11,.6-.11,.4,.03,.57,.1c.17,.07,.31,.16,.43,.28s.2,.26,.26,.42,.09,.34,.09,.53c0,.14-.02,.28-.07,.4-.04,.12-.1,.24-.18,.35-.08,.11-.17,.22-.28,.33-.11,.11-.23,.21-.36,.33l-1.26,1.04h2.21v.49h-2.94Z"/><g><line class="d" x1="31.46" y1="9.03" x2="31.9" y2="12.02"/><g><line class="c" x1="31.46" y1="9.03" x2="31.64" y2="10.24"/><polygon class="d" points="30.35 10.07 31.9 12.02 32.82 9.7 30.35 10.07"/></g></g><path class="d" d="M44.69,50.44c-.23,0-.43-.03-.61-.09-.18-.06-.33-.15-.45-.25s-.22-.24-.28-.38c-.06-.15-.1-.3-.1-.47h.56c0,.2,.07,.37,.21,.5s.36,.2,.67,.2,.53-.07,.67-.2c.14-.13,.21-.31,.21-.53,0-.23-.07-.41-.21-.55-.14-.14-.36-.2-.66-.2h-.45v-.48h.45c.29,0,.5-.06,.62-.18,.13-.12,.19-.29,.19-.51s-.06-.37-.18-.49c-.12-.12-.33-.18-.63-.18s-.5,.06-.62,.18c-.13,.12-.19,.27-.19,.45h-.56c0-.16,.03-.3,.09-.44,.06-.14,.15-.26,.27-.36,.12-.1,.26-.18,.43-.24,.17-.06,.37-.09,.59-.09s.42,.03,.59,.09c.17,.06,.31,.14,.43,.24,.12,.1,.21,.22,.27,.35,.06,.13,.09,.28,.09,.43,0,.24-.06,.44-.19,.61-.13,.17-.3,.28-.53,.35,.24,.08,.43,.2,.57,.37,.14,.17,.21,.41,.21,.71,0,.16-.03,.31-.1,.45-.06,.14-.16,.27-.28,.37s-.27,.19-.45,.25c-.18,.06-.38,.09-.61,.09Z"/><g><line class="d" x1="47.45" y1="47.94" x2="49.87" y2="46.13"/><g><line class="c" x1="47.45" y1="47.94" x2="48.43" y2="47.21"/><polygon class="d" points="48.89 48.42 49.87 46.13 47.39 46.43 48.89 48.42"/></g></g><path class="d" d="M49.9,58.58v-1.02h-2.14v-.43l2.08-2.76h.62v2.7h.54v.49h-.54v1.02h-.56Zm-1.54-1.51h1.54v-2.04l-1.54,2.04Z"/><g><line class="d" x1="47.67" y1="58.84" x2="46.17" y2="61.47"/><g><line class="c" x1="47.67" y1="58.84" x2="47.06" y2="59.91"/><polygon class="d" points="46.16 58.98 46.17 61.47 48.32 60.21 46.16 58.98"/></g></g></svg>