<?xml version="1.0" encoding="UTF-8"?><svg id="a" xmlns="http://www.w3.org/2000/svg" viewBox="0 0 100 100"><defs><style>.b{stroke:#1a1a1a;stroke-width:5px;}.b,.c{fill:none;stroke-miterlimit:10;}.c{stroke:#ccc;stroke-width:.25px;}.d{fill:#ccc;}</style></defs><path class="b" d="M33.13,14.02s7.43,5.5,19.53,6.51"/><path class="b" d="M30.02,27.59l-4.26,26.47s9.45-8.09,22.64-8.09,30.64,3.74,24.6,18.72c-6.04,14.98-33.45,18.47-38.81,16.6"/><path class="d" d="M24.77,12.29v-.49h1v-3.09l-1,.71v-.61l1.02-.72h.56v3.71h.82v.49h-2.4Z"/><g><line class="d" x1="29.51" y1="12" x2="32.14" y2="13.48"/><g><line class="c" x1="29.51" y1="12" x2="30.58" y2="12.6"/><polygon class="d" points="29.65 13.51 32.14 13.48 30.87 11.34 29.65 13.51"/></g></g><path class="d" d="M24.87,25.04v-.46l1.68-1.46c.13-.11,.23-.21,.32-.29s.15-.17,.2-.25c.05-.08,.08-.16,.1-.23s.03-.16,.03-.25c0-.24-.07-.44-.21-.59-.14-.15-.33-.23-.58-.23-.29,0-.52,.08-.67,.24s-.23,.38-.23,.67h-.56c0-.2,.04-.39,.11-.57,.07-.17,.17-.32,.3-.45s.29-.22,.47-.29c.18-.07,.38-.11,.6-.11s.4,.03,.57,.1c.17,.07,.31,.16,.43,.28s.2,.26,.26,.42,.09,.34,.09,.53c0,.14-.02,.28-.07,.4s-.1,.24-.18,.35-.17,.22-.28,.33c-.11,.11-.23,.22-.36,.33l-1.26,1.04h2.21v.49h-2.94Z"/><g><line class="d" x1="30.76" y1="23.55" x2="30.18" y2="26.52"/><g><line class="c" x1="30.76" y1="23.55" x2="30.52" y2="24.76"/><polygon class="d" points="29.37 24.16 30.18 26.52 31.81 24.64 29.37 24.16"/></g></g></svg>