<?xml version="1.0" encoding="UTF-8"?><svg id="a" xmlns="http://www.w3.org/2000/svg" viewBox="0 0 100 100"><defs><style>.b{stroke:#1a1a1a;stroke-width:5px;}.b,.c{fill:none;stroke-miterlimit:10;}.c{stroke:#ccc;stroke-width:.25px;}.d{fill:#ccc;}</style></defs><path class="b" d="M49.92,34.72c4.03,.11,8.67-.15,13.77-1.14,4.31-.84,8.19-2.05,11.59-3.38"/><path class="d" d="M41.03,37.59v-.49h1v-3.09l-1,.71v-.61l1.02-.72h.57v3.71h.82v.49h-2.4Z"/><g><line class="d" x1="44.91" y1="35.62" x2="47.92" y2="35.34"/><g><line class="c" x1="44.91" y1="35.62" x2="46.13" y2="35.51"/><polygon class="d" points="45.89 36.78 47.92 35.34 45.65 34.3 45.89 36.78"/></g></g><path class="d" d="M42.18,10.54v-.46l1.68-1.46c.13-.11,.23-.21,.32-.29s.15-.17,.2-.25,.08-.16,.1-.23c.02-.08,.03-.16,.03-.25,0-.24-.07-.44-.21-.59-.14-.15-.33-.23-.58-.23-.29,0-.52,.08-.67,.24s-.23,.38-.23,.67h-.57c0-.2,.04-.39,.11-.57,.07-.17,.17-.32,.3-.45,.13-.12,.29-.22,.47-.29,.18-.07,.38-.11,.6-.11s.4,.03,.57,.1c.17,.07,.31,.16,.43,.28s.21,.26,.26,.42c.06,.16,.09,.34,.09,.53,0,.14-.02,.28-.07,.4s-.11,.24-.18,.35-.17,.22-.28,.33c-.11,.11-.23,.22-.36,.33l-1.26,1.04h2.21v.49h-2.94Z"/><g><line class="d" x1="44.23" y1="11.97" x2="45.14" y2="14.85"/><g><line class="c" x1="44.23" y1="11.97" x2="44.6" y2="13.14"/><polygon class="d" points="43.3 13.17 45.14 14.85 45.68 12.41 43.3 13.17"/></g></g><path class="b" d="M46.05,17.02c5.18,16.29,16.74,56.76,1.98,63.06-3.04,1.3-10.73,2.66-15.45-.51-3.39-2.29-5.06-6.81-3.08-10.21,2.35-4.03,8.82-4.74,11.56-5.05,15.95-1.76,29.8,11.67,32.24,14.11"/></svg>