<?xml version="1.0" encoding="UTF-8"?><svg id="a" xmlns="http://www.w3.org/2000/svg" viewBox="0 0 100 100"><defs><style>.b{stroke:#1a1a1a;stroke-width:5px;}.b,.c{fill:none;stroke-miterlimit:10;}.c{stroke:#ccc;stroke-width:.25px;}.d{fill:#ccc;}</style></defs><path class="b" d="M44.91,16.54l17.56,32.71c-1.07-.63-13.46-7.68-25.32-1.59-1.49,.76-8.34,4.28-10.72,11.99-2.85,9.21,2.45,18.66,8.63,23.39,5.58,4.27,11.76,4.78,14.7,4.79,22.87,.12,32.34-18.25,32.34-18.25h0"/><path class="b" d="M27.85,28.67c2.76,1.01,13.21,4.57,26.68,2.88,11.04-1.39,17.91-5.51,20.36-7.14"/><path class="d" d="M19.23,27.68v-.49h1v-3.09l-1,.71v-.61l1.02-.72h.56v3.71h.82v.49h-2.4Z"/><g><line class="d" x1="23.7" y1="26.57" x2="26.32" y2="28.09"/><g><line class="c" x1="23.7" y1="26.57" x2="24.77" y2="27.19"/><polygon class="d" points="23.83 28.08 26.32 28.09 25.08 25.92 23.83 28.08"/></g></g><path class="d" d="M39.63,11.28v-.46l1.68-1.46c.13-.11,.23-.21,.32-.29s.15-.17,.2-.25c.05-.08,.08-.16,.1-.23s.03-.16,.03-.25c0-.24-.07-.44-.21-.59-.14-.15-.33-.23-.58-.23-.29,0-.52,.08-.67,.24s-.23,.38-.23,.67h-.56c0-.2,.04-.39,.11-.57,.07-.17,.17-.32,.3-.45s.29-.22,.47-.29c.18-.07,.38-.11,.6-.11s.4,.03,.57,.1c.17,.07,.31,.16,.43,.28s.2,.26,.26,.42,.09,.34,.09,.53c0,.14-.02,.28-.07,.4s-.1,.24-.18,.35-.17,.22-.28,.33c-.11,.11-.23,.22-.36,.33l-1.26,1.04h2.21v.49h-2.94Z"/><g><line class="d" x1="42.88" y1="12.89" x2="44.36" y2="15.53"/><g><line class="c" x1="42.88" y1="12.89" x2="43.48" y2="13.96"/><polygon class="d" points="42.22 14.26 44.36 15.53 44.39 13.03 42.22 14.26"/></g></g></svg>