<?xml version="1.0" encoding="UTF-8"?><svg id="a" xmlns="http://www.w3.org/2000/svg" viewBox="0 0 100 100"><defs><style>.b{stroke:#1a1a1a;stroke-width:5px;}.b,.c{fill:none;stroke-miterlimit:10;}.c{stroke:#ccc;stroke-width:.25px;}.d{fill:#ccc;}</style></defs><path class="b" d="M21.17,23.21l28.83-6.2s-8.4,59.94-19.13,60.07c-1.24,.01-3.09-.16-4.57-1.29-6.31-4.82-4.56-24.15,4.44-29.99,13.29-8.62,39.01,6.74,49.52,14.8,2.34,1.79,4.23,3.44,5.63,4.73"/><path class="b" d="M73.12,35.11s4.95,15.81-5.31,31.02c-10.26,15.21-12.48,15.22-12.48,15.22"/><path class="d" d="M11.33,27v-.49h1v-3.09l-1,.71v-.61l1.02-.72h.56v3.71h.82v.49h-2.4Z"/><g><line class="d" x1="15.56" y1="24.52" x2="18.49" y2="23.75"/><g><line class="c" x1="15.56" y1="24.52" x2="16.75" y2="24.21"/><polygon class="d" points="16.71 25.5 18.49 23.75 16.08 23.09 16.71 25.5"/></g></g><path class="d" d="M69.87,29.13v-.46l1.68-1.46c.13-.11,.23-.21,.32-.29s.15-.17,.2-.25c.05-.08,.08-.16,.1-.23,.02-.08,.03-.16,.03-.25,0-.24-.07-.44-.21-.59-.14-.15-.33-.23-.58-.23-.29,0-.52,.08-.67,.24s-.23,.38-.23,.67h-.56c0-.2,.04-.39,.11-.57,.07-.17,.17-.32,.3-.45,.13-.12,.29-.22,.47-.29,.18-.07,.38-.11,.6-.11s.4,.03,.57,.1c.17,.07,.31,.16,.43,.28s.2,.26,.26,.42c.06,.16,.09,.34,.09,.53,0,.14-.02,.28-.07,.4s-.1,.24-.18,.35-.17,.22-.28,.33c-.11,.11-.23,.22-.36,.33l-1.26,1.04h2.21v.49h-2.95Z"/><g><line class="d" x1="72.21" y1="30.88" x2="72.94" y2="33.81"/><g><line class="c" x1="72.21" y1="30.88" x2="72.51" y2="32.07"/><polygon class="d" points="71.21 32.02 72.94 33.81 73.63 31.42 71.21 32.02"/></g></g></svg>