<?xml version="1.0" encoding="UTF-8"?><svg id="a" xmlns="http://www.w3.org/2000/svg" viewBox="0 0 100 100"><defs><style>.b{stroke:#1a1a1a;stroke-width:5px;}.b,.c{fill:none;stroke-miterlimit:10;}.c{stroke:#ccc;stroke-width:.25px;}.d{fill:#ccc;}</style></defs><path class="b" d="M26.82,31.88c5.03,2.01,14.42,4.99,26.42,4.36,11.78-.62,20.66-4.43,25.45-6.91"/><path class="b" d="M52.51,18.31c-3.9,9.22-9.66,26.62-7.03,48.11,1.1,9.01,3.42,16.65,5.82,22.66"/><path class="b" d="M65.72,41.33c-2.1,21.96-12.29,38.17-25.08,40.6-5.07,.96-13.38,.29-18.03-5.36-5-6.08-4.51-16.36-.03-21.9,11.09-13.69,51.59-4.59,55.87,11.03,1.67,6.1-1.5,15.7-8,18.06-4.01,1.46-8.14-.27-10.18-1.33"/><path class="d" d="M17.74,31.54v-.49h1v-3.09l-1,.71v-.61l1.02-.72h.56v3.71h.82v.49h-2.4Z"/><g><line class="d" x1="21.38" y1="29.81" x2="24.19" y2="30.93"/><g><line class="c" x1="21.38" y1="29.81" x2="22.53" y2="30.26"/><polygon class="d" points="21.73 31.29 24.19 30.93 22.65 28.97 21.73 31.29"/></g></g><path class="d" d="M53.76,13.38v-.46l1.68-1.46c.13-.11,.23-.21,.32-.29,.08-.09,.15-.17,.2-.25s.08-.16,.1-.23c.02-.08,.03-.16,.03-.25,0-.24-.07-.44-.21-.59-.14-.15-.33-.23-.58-.23-.29,0-.52,.08-.67,.24s-.23,.38-.23,.67h-.56c0-.2,.04-.39,.1-.57,.07-.17,.17-.32,.3-.45,.13-.12,.29-.22,.47-.29,.18-.07,.38-.11,.6-.11s.4,.03,.57,.1c.17,.07,.31,.16,.43,.28s.2,.26,.26,.42c.06,.16,.09,.34,.09,.53,0,.14-.02,.28-.07,.4-.04,.12-.11,.24-.18,.35-.08,.11-.17,.22-.28,.33-.11,.11-.23,.22-.36,.33l-1.26,1.04h2.21v.49h-2.94Z"/><g><line class="d" x1="54.23" y1="14.6" x2="53.02" y2="17.37"/><g><line class="c" x1="54.23" y1="14.6" x2="53.73" y2="15.73"/><polygon class="d" points="52.74 14.9 53.02 17.37 55.02 15.89 52.74 14.9"/></g></g><path class="d" d="M69.91,41c-.23,0-.43-.03-.61-.09-.18-.06-.33-.15-.45-.26-.12-.11-.22-.24-.28-.38-.06-.15-.1-.3-.1-.47h.56c0,.2,.07,.37,.21,.5,.14,.13,.36,.2,.67,.2s.53-.07,.67-.2c.14-.13,.21-.31,.21-.53,0-.23-.07-.41-.21-.55-.14-.14-.36-.2-.66-.2h-.45v-.48h.45c.29,0,.5-.06,.62-.18,.13-.12,.19-.29,.19-.51s-.06-.37-.18-.49-.33-.18-.63-.18-.5,.06-.62,.18c-.13,.12-.19,.27-.19,.45h-.57c0-.16,.03-.3,.09-.44,.06-.14,.15-.26,.27-.36s.26-.18,.43-.24c.17-.06,.37-.09,.59-.09s.42,.03,.59,.09c.17,.06,.31,.14,.43,.24s.21,.22,.27,.35c.06,.13,.09,.28,.09,.43,0,.24-.06,.44-.19,.61-.13,.17-.3,.28-.53,.35,.24,.08,.43,.2,.57,.37,.14,.17,.21,.41,.21,.71,0,.16-.03,.31-.1,.45-.06,.14-.16,.27-.28,.37-.12,.11-.27,.19-.45,.25-.18,.06-.38,.09-.61,.09Z"/><g><line class="d" x1="66.11" y1="37.82" x2="65.74" y2="40.82"/><g><line class="c" x1="66.11" y1="37.82" x2="65.96" y2="39.04"/><polygon class="d" points="64.76 38.53 65.74 40.82 67.24 38.83 64.76 38.53"/></g></g></svg>