<?xml version="1.0" encoding="UTF-8"?><svg id="a" xmlns="http://www.w3.org/2000/svg" viewBox="0 0 100 100"><defs><style>.b{stroke:#1a1a1a;stroke-width:5px;}.b,.c{fill:none;stroke-miterlimit:10;}.c{stroke:#ccc;stroke-width:.25px;}.d{fill:#ccc;}</style></defs><path class="b" d="M51.34,16.89c-3.11,6.54-7.16,16.37-9.95,28.85-3.48,15.56-6.71,29.99,.89,37.28,4.66,4.47,11.72,4.65,19.15,4.85,7.13,.19,13.92,.37,18.26-3.89,5.51-5.42,5.45-16.46,0-27.13"/><path class="b" d="M26.19,28.76s14.81,3.48,24.29,3.6,14.9-.63,14.9-.63"/><path class="b" d="M22.86,42.13s17.19,5.04,28.29,6.14c11.1,1.1,17.47,.92,17.47,.92"/><path class="d" d="M53.61,11.85v-.49h1v-3.09l-1,.71v-.61l1.02-.72h.57v3.71h.82v.49h-2.4Z"/><g><line class="d" x1="53.34" y1="13.35" x2="51.9" y2="16.01"/><g><line class="c" x1="53.34" y1="13.35" x2="52.76" y2="14.43"/><polygon class="d" points="51.83 13.52 51.9 16.01 54.03 14.7 51.83 13.52"/></g></g><path class="d" d="M17.48,28.25v-.46l1.68-1.46c.13-.11,.23-.21,.32-.29,.08-.09,.15-.17,.2-.25s.08-.16,.1-.23c.02-.08,.03-.16,.03-.25,0-.24-.07-.44-.21-.59-.14-.15-.33-.23-.58-.23-.29,0-.52,.08-.67,.24s-.23,.38-.23,.67h-.57c0-.2,.04-.39,.11-.57,.07-.17,.17-.32,.3-.45,.13-.12,.29-.22,.47-.29,.18-.07,.38-.11,.6-.11s.4,.03,.57,.1c.17,.07,.31,.16,.43,.28s.21,.26,.26,.42c.06,.16,.09,.34,.09,.53,0,.14-.02,.28-.07,.4-.04,.12-.11,.24-.18,.35-.08,.11-.17,.22-.28,.33s-.23,.21-.36,.33l-1.26,1.04h2.21v.49h-2.94Z"/><g><line class="d" x1="22.25" y1="27.45" x2="25.1" y2="28.44"/><g><line class="c" x1="22.25" y1="27.45" x2="23.41" y2="27.85"/><polygon class="d" points="22.66 28.91 25.1 28.44 23.47 26.55 22.66 28.91"/></g></g><path class="d" d="M14.71,41.58c-.23,0-.43-.03-.61-.09-.18-.06-.33-.15-.45-.26-.12-.11-.22-.24-.28-.38-.06-.15-.1-.3-.1-.47h.57c0,.2,.07,.37,.21,.5,.14,.13,.36,.2,.67,.2s.53-.07,.67-.2c.14-.13,.21-.31,.21-.53,0-.23-.07-.41-.21-.55-.14-.14-.36-.2-.66-.2h-.45v-.48h.45c.29,0,.5-.06,.62-.18,.13-.12,.19-.29,.19-.51s-.06-.37-.18-.49-.33-.18-.63-.18-.5,.06-.62,.18c-.13,.12-.19,.27-.19,.45h-.57c0-.16,.03-.3,.09-.44,.06-.14,.15-.26,.27-.36,.12-.1,.26-.18,.43-.24,.17-.06,.37-.09,.59-.09s.42,.03,.59,.09c.17,.06,.31,.14,.43,.24,.12,.1,.21,.22,.27,.35,.06,.13,.09,.28,.09,.43,0,.24-.06,.44-.19,.61s-.3,.28-.53,.35c.24,.08,.43,.2,.57,.37,.14,.17,.21,.41,.21,.71,0,.16-.03,.31-.1,.45s-.16,.27-.28,.37c-.12,.11-.27,.19-.45,.25-.18,.06-.38,.09-.61,.09Z"/><g><line class="d" x1="18.02" y1="40.72" x2="20.87" y2="41.71"/><g><line class="c" x1="18.02" y1="40.72" x2="19.18" y2="41.12"/><polygon class="d" points="18.42 42.18 20.87 41.71 19.24 39.82 18.42 42.18"/></g></g></svg>