<?xml version="1.0" encoding="UTF-8"?><svg id="a" xmlns="http://www.w3.org/2000/svg" viewBox="0 0 100 100"><defs><style>.b{stroke:#1a1a1a;stroke-width:5px;}.b,.c{fill:none;stroke-miterlimit:10;}.c{stroke:#ccc;stroke-width:.25px;}.d{fill:#ccc;}</style></defs><path class="b" d="M33.14,16.19c6.9,5.74,39.83,5.11,39.83,5.11"/><path class="b" d="M24.43,53.53c-1.36,1.76-8.86,11.68-5.41,17.44,1.34,2.24,3.86,3.04,5.22,3.44,0,0,20.08,5.54,51.32,1.02h0"/><path class="d" d="M26.06,12.95v-.49h1v-3.09l-1,.71v-.61l1.02-.72h.57v3.71h.82v.49h-2.4Z"/><g><line class="d" x1="29.99" y1="13.93" x2="32.37" y2="15.78"/><g><line class="c" x1="29.99" y1="13.93" x2="30.96" y2="14.68"/><polygon class="d" points="29.91 15.44 32.37 15.78 31.44 13.47 29.91 15.44"/></g></g><path class="d" d="M27.78,49.65v-.46l1.68-1.46c.13-.11,.23-.21,.32-.29,.08-.09,.15-.17,.2-.25,.05-.08,.08-.16,.1-.23,.02-.08,.03-.16,.03-.25,0-.24-.07-.44-.21-.59-.14-.15-.33-.23-.58-.23-.29,0-.52,.08-.67,.24s-.23,.38-.23,.67h-.56c0-.2,.04-.39,.11-.57,.07-.17,.17-.32,.3-.45,.13-.12,.29-.22,.47-.29,.18-.07,.38-.11,.6-.11s.4,.03,.57,.1,.31,.16,.43,.28,.2,.26,.26,.42c.06,.16,.09,.34,.09,.53,0,.14-.02,.28-.07,.4-.04,.12-.1,.24-.18,.35-.08,.11-.17,.22-.28,.33-.11,.11-.23,.21-.36,.33l-1.26,1.04h2.21v.49h-2.95Z"/><g><line class="d" x1="27.19" y1="50.58" x2="25.15" y2="52.81"/><g><line class="c" x1="27.19" y1="50.58" x2="26.36" y2="51.49"/><polygon class="d" points="25.69 50.38 25.15 52.81 27.52 52.06 25.69 50.38"/></g></g></svg>