<?xml version="1.0" encoding="UTF-8"?><svg id="a" xmlns="http://www.w3.org/2000/svg" viewBox="0 0 100 100"><defs><style>.b{stroke:#1a1a1a;stroke-width:5px;}.b,.c{fill:none;stroke-miterlimit:10;}.c{stroke:#ccc;stroke-width:.25px;}.d{fill:#ccc;}</style></defs><path class="b" d="M22.21,24.05c1.25,6.79,4.37,18.64,13.02,30.69,6.66,9.28,14.11,15.22,19.32,18.72"/><path class="b" d="M53.36,16.95c-.89,18.16-4.26,60.75-19.54,63.84-7.77,1.57-18.87-7.01-21.35-17.21-2.9-11.88,7.31-21.95,10.17-25.19,8.77-9.93,36.12-15.23,47.32-9.96,2.26,1.06,9.98,4.69,14.21,13.02,7.64,15.04-.53,36.09-7.66,36.94-3.8,.45-8.95-4.65-8.52-9.01,.29-2.98,3.17-5.56,6.05-6.22,3.86-.89,7.2,1.76,10.35,4.26,3.48,2.76,5.54,5.84,6.67,7.83"/><path class="d" d="M20.6,18.14v-.49h1v-3.09l-1,.71v-.61l1.02-.72h.57v3.71h.82v.49h-2.4Z"/><g><line class="d" x1="21.72" y1="19.99" x2="22.21" y2="22.98"/><g><line class="c" x1="21.72" y1="19.99" x2="21.92" y2="21.21"/><polygon class="d" points="20.63 21.05 22.21 22.98 23.09 20.65 20.63 21.05"/></g></g><path class="d" d="M52.45,10.87v-.46l1.68-1.46c.13-.11,.23-.21,.32-.29,.08-.09,.15-.17,.2-.25,.05-.08,.08-.16,.1-.23,.02-.08,.03-.16,.03-.25,0-.24-.07-.44-.21-.59-.14-.15-.33-.23-.58-.23-.29,0-.52,.08-.67,.24s-.23,.38-.23,.67h-.56c0-.2,.04-.39,.11-.57,.07-.17,.17-.32,.3-.45,.13-.12,.29-.22,.47-.29,.18-.07,.38-.11,.6-.11s.4,.03,.57,.1,.31,.16,.43,.28,.2,.26,.26,.42c.06,.16,.09,.34,.09,.53,0,.14-.02,.28-.07,.4-.04,.12-.1,.24-.18,.35-.08,.11-.17,.22-.28,.33-.11,.11-.23,.21-.36,.33l-1.26,1.04h2.21v.49h-2.95Z"/><g><line class="d" x1="53.95" y1="12.44" x2="53.61" y2="15.44"/><g><line class="c" x1="53.95" y1="12.44" x2="53.81" y2="13.66"/><polygon class="d" points="52.61 13.16 53.61 15.44 55.09 13.43 52.61 13.16"/></g></g></svg>