<?xml version="1.0" encoding="UTF-8"?><svg id="a" xmlns="http://www.w3.org/2000/svg" viewBox="0 0 100 100"><defs><style>.b{stroke:#1a1a1a;stroke-width:5px;}.b,.c{fill:none;stroke-miterlimit:10;}.c{stroke:#ccc;stroke-width:.25px;}.d{fill:#ccc;}</style></defs><path class="b" d="M40.2,17.47c-.02,3.19,.08,11.41,1.83,19.31,.78,3.53,1.66,5.94,2.34,7.51"/><path class="b" d="M80.32,83.79c-5.51,.29-13.12,.59-22.21,.63-25.26,.11-30.14-1.96-33.08-4.78-3.5-3.36-3.95-8.35-3.95-10.83,.04-14.01,22.81-28.11,55.15-36.73"/><path class="d" d="M39.81,11.38v-.49h1v-3.09l-1,.71v-.61l1.02-.72h.57v3.71h.82v.49h-2.4Z"/><g><line class="d" x1="40.63" y1="13.16" x2="40.2" y2="16.16"/><g><line class="c" x1="40.63" y1="13.16" x2="40.45" y2="14.38"/><polygon class="d" points="39.27 13.84 40.2 16.16 41.74 14.19 39.27 13.84"/></g></g><path class="d" d="M82.76,32.96v-.46l1.68-1.46c.13-.11,.23-.21,.32-.29,.08-.09,.15-.17,.2-.25,.05-.08,.08-.16,.1-.23,.02-.08,.03-.16,.03-.25,0-.24-.07-.44-.21-.59-.14-.15-.33-.23-.58-.23-.29,0-.52,.08-.67,.24s-.23,.38-.23,.67h-.56c0-.2,.04-.39,.11-.57,.07-.17,.17-.32,.3-.45,.13-.12,.29-.22,.47-.29,.18-.07,.38-.11,.6-.11s.4,.03,.57,.1,.31,.16,.43,.28,.2,.26,.26,.42c.06,.16,.09,.34,.09,.53,0,.14-.02,.28-.07,.4-.04,.12-.1,.24-.18,.35-.08,.11-.17,.22-.28,.33-.11,.11-.23,.21-.36,.33l-1.26,1.04h2.21v.49h-2.95Z"/><g><line class="d" x1="80.89" y1="31.51" x2="77.9" y2="31.93"/><g><line class="c" x1="80.89" y1="31.51" x2="79.67" y2="31.68"/><polygon class="d" points="79.86 30.39 77.9 31.93 80.21 32.86 79.86 30.39"/></g></g></svg>