<?xml version="1.0" encoding="UTF-8"?><svg id="a" xmlns="http://www.w3.org/2000/svg" viewBox="0 0 100 100"><defs><style>.b{stroke:#1a1a1a;stroke-width:5px;}.b,.c{fill:none;stroke-miterlimit:10;}.c{stroke:#ccc;stroke-width:.25px;}.d{fill:#ccc;}</style></defs><path class="b" d="M19.87,45.68c7.11-3.26,50.72-22.97,59.92-10.97,2.52,3.29,3.26,10.01,.72,15.23-3.55,7.3-12.1,8.74-13.32,8.93-10.88,1.66-18.57-7.18-19.11-7.81"/><line class="b" x1="61.56" y1="15.84" x2="59.89" y2="30.74"/><path class="b" d="M29.57,23.29s13.41,60.83,28.28,68.89"/><path class="d" d="M11.78,50.39v-.49h1v-3.09l-1,.71v-.61l1.02-.72h.56v3.71h.82v.49h-2.4Z"/><g><line class="d" x1="15.71" y1="47.96" x2="18.34" y2="46.46"/><g><line class="c" x1="15.71" y1="47.96" x2="16.78" y2="47.35"/><polygon class="d" points="17.08 48.61 18.34 46.46 15.84 46.45 17.08 48.61"/></g></g><path class="d" d="M61.11,9.99v-.46l1.68-1.46c.13-.11,.23-.21,.32-.29,.08-.09,.15-.17,.2-.25,.05-.08,.08-.16,.1-.23,.02-.08,.03-.16,.03-.25,0-.24-.07-.44-.21-.59-.14-.15-.33-.23-.58-.23-.29,0-.52,.08-.67,.24s-.23,.38-.23,.67h-.56c0-.2,.04-.39,.11-.57,.07-.17,.17-.32,.3-.45,.13-.12,.29-.22,.47-.29,.18-.07,.38-.11,.6-.11s.4,.03,.57,.1,.31,.16,.43,.28,.2,.26,.26,.42c.06,.16,.09,.34,.09,.53,0,.14-.02,.28-.07,.4-.04,.12-.1,.24-.18,.35-.08,.11-.17,.22-.28,.33-.11,.11-.23,.21-.36,.33l-1.26,1.04h2.21v.49h-2.95Z"/><g><line class="d" x1="62.39" y1="12.07" x2="61.83" y2="15.04"/><g><line class="c" x1="62.39" y1="12.07" x2="62.16" y2="13.28"/><polygon class="d" points="61 12.69 61.83 15.04 63.45 13.15 61 12.69"/></g></g><path class="d" d="M27.86,17.3c-.23,0-.43-.03-.61-.09s-.33-.15-.45-.26c-.12-.11-.22-.23-.28-.38-.06-.15-.1-.3-.1-.47h.56c0,.2,.07,.37,.21,.5,.14,.13,.36,.2,.67,.2s.53-.07,.67-.2c.14-.13,.21-.31,.21-.53,0-.23-.07-.41-.21-.55s-.36-.2-.66-.2h-.45v-.48h.45c.29,0,.5-.06,.62-.18,.13-.12,.19-.29,.19-.51s-.06-.37-.18-.49c-.12-.12-.33-.18-.63-.18s-.5,.06-.62,.18c-.13,.12-.19,.27-.19,.45h-.56c0-.16,.03-.3,.09-.44,.06-.14,.15-.26,.27-.36,.12-.1,.26-.18,.43-.24,.17-.06,.37-.09,.59-.09s.42,.03,.59,.09c.17,.06,.31,.14,.43,.24,.12,.1,.21,.22,.27,.35,.06,.13,.09,.28,.09,.43,0,.24-.06,.44-.19,.61-.13,.17-.3,.28-.53,.35,.24,.08,.43,.2,.57,.37,.14,.17,.21,.41,.21,.71,0,.16-.03,.31-.1,.45s-.16,.27-.28,.37c-.12,.11-.27,.19-.45,.25s-.38,.09-.61,.09Z"/><g><line class="d" x1="28.68" y1="19.28" x2="29.29" y2="22.24"/><g><line class="c" x1="28.68" y1="19.28" x2="28.93" y2="20.49"/><polygon class="d" points="27.63 20.38 29.29 22.24 30.07 19.88 27.63 20.38"/></g></g></svg>