<?xml version="1.0" encoding="UTF-8"?><svg id="a" xmlns="http://www.w3.org/2000/svg" viewBox="0 0 100 100"><defs><style>.b{stroke:#1a1a1a;stroke-width:5px;}.b,.c{fill:none;stroke-miterlimit:10;}.c{stroke:#ccc;stroke-width:.25px;}.d{fill:#ccc;}</style></defs><path class="d" d="M34.63,11.15v-.49h1v-3.09l-1,.71v-.61l1.02-.72h.56v3.71h.82v.49h-2.4Z"/><g><line class="d" x1="38.79" y1="11.4" x2="41.17" y2="13.27"/><g><line class="c" x1="38.79" y1="11.4" x2="39.75" y2="12.16"/><polygon class="d" points="38.7 12.92 41.17 13.27 40.24 10.96 38.7 12.92"/></g></g><path class="d" d="M18.2,40.38v-.46l1.68-1.46c.13-.11,.23-.21,.32-.29,.08-.09,.15-.17,.2-.25,.05-.08,.08-.16,.1-.23,.02-.08,.03-.16,.03-.25,0-.24-.07-.44-.21-.59-.14-.15-.33-.23-.58-.23-.29,0-.52,.08-.67,.24s-.23,.38-.23,.67h-.56c0-.2,.04-.39,.11-.57,.07-.17,.17-.32,.3-.45,.13-.12,.29-.22,.47-.29,.18-.07,.38-.11,.6-.11s.4,.03,.57,.1c.17,.07,.31,.16,.43,.28s.2,.26,.26,.42c.06,.16,.09,.34,.09,.53,0,.14-.02,.28-.07,.4-.04,.12-.1,.24-.18,.35-.08,.11-.17,.22-.28,.33-.11,.11-.23,.22-.36,.33l-1.26,1.04h2.21v.49h-2.95Z"/><g><line class="d" x1="22.91" y1="37.89" x2="25.69" y2="36.7"/><g><line class="c" x1="22.91" y1="37.89" x2="24.04" y2="37.41"/><polygon class="d" points="24.2 38.7 25.69 36.7 23.21 36.41 24.2 38.7"/></g></g><path class="b" d="M41.75,13.73c2.32,2,6.29,4.75,11.68,5.49,.98,.14,1.92,.19,2.81,.19"/><path class="b" d="M27.13,36.23l34.6-10.85L27.13,73s18.53-26.17,29.11-19.53-15.71,24.77,1.01,27.32,25.28,3.19,25.28,3.19"/></svg>