<?xml version="1.0" encoding="UTF-8"?><svg id="a" xmlns="http://www.w3.org/2000/svg" viewBox="0 0 100 100"><defs><style>.b{stroke:#1a1a1a;stroke-width:5px;}.b,.c{fill:none;stroke-miterlimit:10;}.c{stroke:#ccc;stroke-width:.25px;}.d{fill:#ccc;}</style></defs><path class="b" d="M43.07,16.98l17.56,32.71c-1.07-.63-13.46-7.68-25.32-1.59-1.49,.76-8.34,4.28-10.72,11.99-2.85,9.21,2.45,18.66,8.63,23.39,5.58,4.27,11.76,4.78,14.7,4.79,22.87,.12,32.34-18.25,32.34-18.25h0"/><path class="b" d="M23.01,25.12c2.76,1.01,13.21,4.57,26.68,2.88,11.04-1.39,17.91-5.51,20.36-7.14"/><path class="b" d="M26.55,35.28c2.81,.86,13.43,3.84,26.8,1.42,10.95-1.98,17.58-6.48,19.94-8.24"/><path class="d" d="M14.38,24.12v-.49h1v-3.09l-1,.71v-.61l1.02-.72h.56v3.71h.82v.49h-2.4Z"/><g><line class="d" x1="18.86" y1="23.01" x2="21.48" y2="24.53"/><g><line class="c" x1="18.86" y1="23.01" x2="19.93" y2="23.63"/><polygon class="d" points="18.98 24.53 21.48 24.53 20.24 22.37 18.98 24.53"/></g></g><path class="d" d="M17.36,34.45v-.46l1.68-1.46c.13-.11,.23-.21,.32-.29s.15-.17,.2-.25,.08-.16,.1-.23c.02-.08,.03-.16,.03-.25,0-.24-.07-.44-.21-.59-.14-.15-.33-.23-.58-.23-.29,0-.52,.08-.67,.24s-.23,.38-.23,.67h-.57c0-.2,.04-.39,.11-.57,.07-.17,.17-.32,.3-.45,.13-.12,.29-.22,.47-.29,.18-.07,.38-.11,.6-.11s.4,.03,.57,.1c.17,.07,.31,.16,.43,.28s.21,.26,.26,.42c.06,.16,.09,.34,.09,.53,0,.14-.02,.28-.07,.4s-.11,.24-.18,.35-.17,.22-.28,.33c-.11,.11-.23,.22-.36,.33l-1.26,1.04h2.21v.49h-2.94Z"/><g><line class="d" x1="22.21" y1="33.33" x2="24.83" y2="34.85"/><g><line class="c" x1="22.21" y1="33.33" x2="23.28" y2="33.95"/><polygon class="d" points="22.34 34.85 24.83 34.85 23.59 32.69 22.34 34.85"/></g></g><path class="d" d="M39.25,11.79c-.23,0-.43-.03-.61-.09-.18-.06-.33-.15-.45-.26-.12-.11-.22-.24-.28-.38-.06-.15-.1-.3-.1-.47h.56c0,.21,.07,.37,.21,.5,.14,.13,.36,.2,.67,.2s.53-.07,.67-.2c.14-.13,.21-.31,.21-.53,0-.23-.07-.41-.21-.55-.14-.14-.36-.21-.66-.21h-.45v-.48h.45c.29,0,.5-.06,.62-.18,.13-.12,.19-.29,.19-.51s-.06-.37-.18-.49c-.12-.12-.33-.18-.63-.18s-.5,.06-.62,.18c-.13,.12-.19,.27-.19,.45h-.57c0-.16,.03-.3,.09-.45,.06-.14,.15-.26,.27-.36s.26-.18,.43-.24c.17-.06,.37-.09,.58-.09s.42,.03,.59,.09c.17,.06,.31,.14,.43,.24s.21,.22,.27,.35c.06,.13,.09,.28,.09,.43,0,.24-.06,.44-.19,.61s-.3,.28-.53,.35c.24,.08,.43,.2,.57,.37,.14,.17,.21,.41,.21,.71,0,.16-.03,.31-.1,.45-.06,.14-.16,.27-.28,.37s-.27,.19-.45,.25c-.18,.06-.38,.09-.61,.09Z"/><g><line class="d" x1="41.04" y1="13.34" x2="42.52" y2="15.97"/><g><line class="c" x1="41.04" y1="13.34" x2="41.64" y2="14.41"/><polygon class="d" points="40.37 14.71 42.52 15.97 42.55 13.48 40.37 14.71"/></g></g></svg>