<?xml version="1.0" encoding="UTF-8"?><svg id="a" xmlns="http://www.w3.org/2000/svg" viewBox="0 0 100 100"><defs><style>.b{stroke:#1a1a1a;stroke-width:5px;}.b,.c{fill:none;stroke-miterlimit:10;}.c{stroke:#ccc;stroke-width:.25px;}.d{fill:#ccc;}</style></defs><path class="d" d="M23.33,15.88v-.49h1v-3.09l-1,.71v-.61l1.02-.72h.56v3.71h.82v.49h-2.4Z"/><g><line class="d" x1="24.45" y1="17.48" x2="24.42" y2="20.5"/><g><line class="c" x1="24.45" y1="17.48" x2="24.44" y2="18.71"/><polygon class="d" points="23.19 18.33 24.42 20.5 25.69 18.35 23.19 18.33"/></g></g><path class="d" d="M59.58,16.74v-.46l1.68-1.46c.13-.11,.23-.21,.32-.29,.08-.09,.15-.17,.2-.25s.08-.16,.1-.23c.02-.08,.03-.16,.03-.25,0-.24-.07-.44-.21-.59-.14-.15-.33-.23-.58-.23-.29,0-.52,.08-.67,.24s-.23,.38-.23,.67h-.57c0-.2,.04-.39,.11-.57s.17-.32,.3-.45c.13-.12,.29-.22,.47-.29,.18-.07,.38-.11,.6-.11s.4,.03,.57,.1c.17,.07,.31,.16,.43,.28s.21,.26,.26,.42c.06,.16,.09,.34,.09,.53,0,.14-.02,.28-.07,.4-.04,.12-.11,.24-.18,.35-.08,.11-.17,.22-.28,.33-.11,.11-.23,.22-.36,.33l-1.26,1.04h2.21v.49h-2.94Z"/><g><line class="d" x1="63.85" y1="17.94" x2="66.02" y2="20.04"/><g><line class="c" x1="63.85" y1="17.94" x2="64.73" y2="18.79"/><polygon class="d" points="63.61 19.43 66.02 20.04 65.34 17.64 63.61 19.43"/></g></g><path class="b" d="M24.45,21.89s-.4,51.54,13.04,60.57c13.44,9.03,22.46-18.05,22.46-18.05"/><path class="b" d="M67.23,21.89c10.61,9.65,15.38,33.12,15.38,33.12"/></svg>