<?xml version="1.0" encoding="UTF-8"?><svg id="a" xmlns="http://www.w3.org/2000/svg" viewBox="0 0 100 100"><defs><style>.b{stroke:#1a1a1a;stroke-width:5px;}.b,.c{fill:none;stroke-miterlimit:10;}.c{stroke:#ccc;stroke-width:.25px;}.d{fill:#ccc;}</style></defs><path class="b" d="M61.6,15.49l-17.56,32.71c1.07-.63,13.46-7.68,25.32-1.59,1.49,.76,8.34,4.28,10.72,11.99,2.85,9.21-2.45,18.66-8.63,23.39-5.58,4.27-11.76,4.78-14.7,4.79-22.87,.12-32.34-18.25-32.34-18.25h0"/><path class="b" d="M78.66,27.63c-2.76,1.01-13.21,4.57-26.68,2.88-11.04-1.39-17.91-5.51-20.36-7.14"/><path class="d" d="M22.66,22.02v-.49h1v-3.1l-1,.71v-.61l1.02-.72h.57v3.71h.82v.49h-2.4Z"/><g><line class="d" x1="27.14" y1="20.91" x2="29.75" y2="22.43"/><g><line class="c" x1="27.14" y1="20.91" x2="28.2" y2="21.52"/><polygon class="d" points="27.26 22.42 29.75 22.43 28.51 20.26 27.26 22.42"/></g></g><path class="d" d="M63.92,10.49v-.46l1.68-1.46c.13-.11,.23-.21,.32-.29,.08-.09,.15-.17,.2-.25,.05-.08,.08-.16,.1-.23,.02-.08,.03-.16,.03-.25,0-.24-.07-.44-.21-.59-.14-.15-.33-.23-.58-.23-.29,0-.52,.08-.67,.24s-.23,.38-.23,.67h-.56c0-.2,.04-.39,.11-.57,.07-.17,.17-.32,.3-.45,.13-.12,.29-.22,.47-.29,.18-.07,.38-.11,.6-.11s.4,.03,.57,.1,.31,.16,.43,.28,.2,.26,.26,.42c.06,.16,.09,.34,.09,.53,0,.14-.02,.28-.07,.4-.04,.12-.1,.24-.18,.35-.08,.11-.17,.22-.28,.33-.11,.11-.23,.21-.36,.33l-1.26,1.04h2.21v.49h-2.95Z"/><g><line class="d" x1="63.74" y1="11.84" x2="62.11" y2="14.38"/><g><line class="c" x1="63.74" y1="11.84" x2="63.08" y2="12.87"/><polygon class="d" points="62.22 11.89 62.11 14.38 64.32 13.24 62.22 11.89"/></g></g></svg>