<?xml version="1.0" encoding="UTF-8"?><svg id="a" xmlns="http://www.w3.org/2000/svg" viewBox="0 0 100 100"><defs><style>.b{stroke:#1a1a1a;stroke-width:5px;}.b,.c{fill:none;stroke-miterlimit:10;}.c{stroke:#ccc;stroke-width:.25px;}.d{fill:#ccc;}</style></defs><path class="b" d="M40.74,10.3c1.21,1.77,3.4,4.5,6.94,6.79,2.63,1.7,5.13,2.6,6.94,3.08"/><path class="b" d="M41.93,25.26c-2.37,6.21-4.44,14.42-.52,19.23,4.66,5.73,13.47,1.29,20.05,6.89,7.37,6.27,10.4,23.82,.2,32.18-8.4,6.88-21.68,4.19-28.57-2.88-3.43-3.52-4.78-7.61-5.35-10.08"/><path class="b" d="M28.42,49.04s-12.82,12.28-15.08,19.46"/><path class="b" d="M72.19,50.37s13.66,8.52,16.07,17.92"/><path class="d" d="M33.54,7.92v-.49h1v-3.1l-1,.71v-.61l1.02-.72h.56v3.71h.82v.49h-2.4Z"/><g><line class="d" x1="38.22" y1="7.11" x2="40.11" y2="9.47"/><g><line class="c" x1="38.22" y1="7.11" x2="38.99" y2="8.07"/><polygon class="d" points="37.78 8.57 40.11 9.47 39.73 7.01 37.78 8.57"/></g></g><path class="d" d="M37.08,22.47v-.46l1.68-1.46c.13-.11,.23-.21,.32-.29,.08-.09,.15-.17,.2-.25,.05-.08,.08-.16,.1-.23,.02-.08,.03-.16,.03-.25,0-.24-.07-.44-.21-.59-.14-.15-.33-.23-.58-.23-.29,0-.52,.08-.67,.24s-.23,.38-.23,.67h-.56c0-.2,.04-.39,.11-.57,.07-.17,.17-.32,.3-.45,.13-.12,.29-.22,.47-.29,.18-.07,.38-.11,.6-.11s.4,.03,.57,.1,.31,.16,.43,.28,.2,.26,.26,.42c.06,.16,.09,.34,.09,.53,0,.14-.02,.28-.07,.4-.04,.12-.1,.24-.18,.35-.08,.11-.17,.22-.28,.33-.11,.11-.23,.21-.36,.33l-1.26,1.04h2.21v.49h-2.95Z"/><g><line class="d" x1="43.51" y1="21.35" x2="42.39" y2="24.16"/><g><line class="c" x1="43.51" y1="21.35" x2="43.05" y2="22.49"/><polygon class="d" points="42.03 21.69 42.39 24.16 44.35 22.62 42.03 21.69"/></g></g><path class="d" d="M33.17,45.88c-.23,0-.43-.03-.61-.09-.18-.06-.33-.15-.45-.26-.12-.11-.22-.24-.28-.38-.06-.15-.1-.3-.1-.47h.57c0,.2,.07,.37,.21,.5,.14,.13,.36,.2,.67,.2s.53-.07,.67-.2c.14-.13,.21-.31,.21-.53,0-.23-.07-.41-.21-.55-.14-.14-.36-.2-.66-.2h-.45v-.48h.45c.29,0,.5-.06,.62-.18s.19-.29,.19-.51-.06-.37-.18-.49-.33-.18-.63-.18-.5,.06-.62,.18c-.13,.12-.19,.27-.19,.45h-.56c0-.16,.03-.3,.09-.44,.06-.14,.15-.26,.27-.36,.12-.1,.26-.18,.43-.24,.17-.06,.37-.09,.59-.09s.42,.03,.59,.09c.17,.06,.31,.14,.43,.24,.12,.1,.21,.22,.27,.35,.06,.13,.09,.28,.09,.43,0,.24-.06,.44-.19,.61-.13,.17-.3,.28-.53,.35,.24,.08,.43,.2,.57,.37,.14,.17,.21,.41,.21,.71,0,.16-.03,.31-.1,.45-.06,.14-.16,.27-.28,.37-.12,.11-.27,.19-.45,.25-.18,.06-.38,.09-.61,.09Z"/><g><line class="d" x1="31.28" y1="46.26" x2="29.19" y2="48.45"/><g><line class="c" x1="31.28" y1="46.26" x2="30.43" y2="47.15"/><polygon class="d" points="29.78 46.03 29.19 48.45 31.59 47.75 29.78 46.03"/></g></g><path class="d" d="M66.42,48v-1.02h-2.14v-.43l2.08-2.76h.62v2.7h.54v.49h-.54v1.02h-.57Zm-1.54-1.51h1.54v-2.04l-1.54,2.04Z"/><g><line class="d" x1="68.8" y1="48" x2="71.22" y2="49.82"/><g><line class="c" x1="68.8" y1="48" x2="69.79" y2="48.74"/><polygon class="d" points="68.74 49.51 71.22 49.82 70.25 47.52 68.74 49.51"/></g></g></svg>