<?xml version="1.0" encoding="UTF-8"?><svg id="a" xmlns="http://www.w3.org/2000/svg" viewBox="0 0 100 100"><defs><style>.b{stroke:#1a1a1a;stroke-width:5px;}.b,.c{fill:none;stroke-miterlimit:10;}.c{stroke:#ccc;stroke-width:.25px;}.d{fill:#ccc;}</style></defs><path class="b" d="M53.67,23.98c-10.05,42.47-18.79,51.93-25.15,52.03-6.51,.1-13.59-9.56-14.88-18.26-1.57-10.63,5.72-18.39,8.62-21.48,10.12-10.76,24.48-12.1,29.88-12.24,4.08-.11,11.38-.3,18.9,3.76,11.39,6.14,14.21,17.11,14.76,19.54,1.85,8.18,.85,21.2-8.15,25.99-2.49,1.33-5.02,1.71-6.85,1.82"/><g><line class="d" x1="65.43" y1="75.38" x2="68.46" y2="75.25"/><g><line class="c" x1="65.43" y1="75.38" x2="66.66" y2="75.33"/><polygon class="d" points="66.35 76.59 68.46 75.25 66.25 74.1 66.35 76.59"/></g></g></svg>