<?xml version="1.0" encoding="UTF-8"?><svg id="a" xmlns="http://www.w3.org/2000/svg" viewBox="0 0 100 100"><defs><style>.b{stroke:#1a1a1a;stroke-width:5px;}.b,.c{fill:none;stroke-miterlimit:10;}.c{stroke:#ccc;stroke-width:.25px;}.d{fill:#ccc;}</style></defs><path class="d" d="M32.83,11.15v-.49h1v-3.09l-1,.71v-.61l1.02-.72h.56v3.71h.82v.49h-2.4Z"/><g><line class="d" x1="36.99" y1="11.4" x2="39.36" y2="13.27"/><g><line class="c" x1="36.99" y1="11.4" x2="37.95" y2="12.16"/><polygon class="d" points="36.89 12.92 39.36 13.27 38.44 10.96 36.89 12.92"/></g></g><path class="d" d="M22.73,47.65v-.46l1.68-1.46c.13-.11,.23-.21,.32-.29,.08-.09,.15-.17,.2-.25s.08-.16,.1-.23c.02-.08,.03-.16,.03-.25,0-.24-.07-.44-.21-.59-.14-.15-.33-.23-.58-.23-.29,0-.52,.08-.67,.24s-.23,.38-.23,.67h-.57c0-.2,.04-.39,.11-.57s.17-.32,.3-.45c.13-.12,.29-.22,.47-.29,.18-.07,.38-.11,.6-.11s.4,.03,.57,.1c.17,.07,.31,.16,.43,.28s.21,.26,.26,.42c.06,.16,.09,.34,.09,.53,0,.14-.02,.28-.07,.4-.04,.12-.11,.24-.18,.35-.08,.11-.17,.22-.28,.33-.11,.11-.23,.22-.36,.33l-1.26,1.04h2.21v.49h-2.94Z"/><g><line class="d" x1="26.9" y1="43.16" x2="28.67" y2="40.71"/><g><line class="c" x1="26.9" y1="43.16" x2="27.62" y2="42.16"/><polygon class="d" points="28.42 43.19 28.67 40.71 26.4 41.73 28.42 43.19"/></g></g><path class="b" d="M29.43,39.81c9.23-11.02,21.99-14.58,30.77-9.81,7.01,3.8,9.28,11.7,9.62,12.93,3.41,12.53-5.37,24.78-11.39,33.18-4.12,5.76-8.29,9.85-11.24,12.46"/><path class="b" d="M39.95,13.73c2.32,2,6.29,4.75,11.68,5.49,.98,.14,1.92,.19,2.81,.19"/></svg>