<?xml version="1.0" encoding="UTF-8"?><svg id="a" xmlns="http://www.w3.org/2000/svg" viewBox="0 0 100 100"><defs><style>.b{stroke:#1a1a1a;stroke-width:5px;}.b,.c{fill:none;stroke-miterlimit:10;}.c{stroke:#ccc;stroke-width:.25px;}.d{fill:#ccc;}</style></defs><path class="b" d="M22.64,19.43s19.76,1.53,31.02-2.94"/><path class="b" d="M41.3,9.22c-2.73,9.02-6.9,19.33-13.4,29.91-1.72,2.8-3.48,5.42-5.25,7.87,10.92-13.32,24.11-19.51,31.85-15.74,3.12,1.52,5.28,4.62,5.62,5.11,2.38,3.48,2.81,7.07,2.64,19.96-.05,3.56-.14,8.04-.34,13.23"/><path class="b" d="M79.34,38.63c-3.09,.85-46.9,13.26-47.34,30.53-.02,.8-.14,5.45,2.91,8.9,2.04,2.31,5.46,4.05,22.8,3.48,0,0,8.49-.28,24.55-1.73h0"/><path class="d" d="M45.44,7.01v-.46l1.68-1.46c.13-.11,.23-.21,.32-.29,.08-.09,.15-.17,.2-.25,.05-.08,.08-.16,.1-.23,.02-.08,.03-.16,.03-.25,0-.24-.07-.44-.21-.59-.14-.15-.33-.23-.58-.23-.29,0-.52,.08-.67,.24s-.23,.38-.23,.67h-.56c0-.2,.04-.39,.11-.57,.07-.17,.17-.32,.3-.45,.13-.12,.29-.22,.47-.29,.18-.07,.38-.11,.6-.11s.4,.03,.57,.1,.31,.16,.43,.28,.2,.26,.26,.42c.06,.16,.09,.34,.09,.53,0,.14-.02,.28-.07,.4-.04,.12-.1,.24-.18,.35-.08,.11-.17,.22-.28,.33-.11,.11-.23,.21-.36,.33l-1.26,1.04h2.21v.49h-2.95Z"/><g><line class="d" x1="42.78" y1="4.04" x2="42.21" y2="7.01"/><g><line class="c" x1="42.78" y1="4.04" x2="42.55" y2="5.25"/><polygon class="d" points="41.39 4.65 42.21 7.01 43.84 5.13 41.39 4.65"/></g></g><path class="d" d="M12.6,21.17v-.49h1v-3.09l-1,.71v-.61l1.02-.72h.57v3.71h.82v.49h-2.4Z"/><g><line class="d" x1="18.04" y1="19.3" x2="21.06" y2="19.43"/><g><line class="c" x1="18.04" y1="19.3" x2="19.27" y2="19.35"/><polygon class="d" points="18.85 20.58 21.06 19.43 18.96 18.09 18.85 20.58"/></g></g><path class="d" d="M87.98,38.38c-.23,0-.43-.03-.61-.09-.18-.06-.33-.15-.45-.25s-.22-.24-.28-.38-.1-.3-.1-.47h.56c0,.2,.07,.37,.21,.5,.14,.13,.36,.2,.67,.2s.53-.07,.67-.2c.14-.13,.21-.31,.21-.53,0-.23-.07-.41-.21-.55-.14-.14-.36-.2-.66-.2h-.45v-.48h.45c.29,0,.5-.06,.62-.18,.13-.12,.19-.29,.19-.51s-.06-.37-.18-.49c-.12-.12-.33-.18-.63-.18s-.5,.06-.62,.18c-.13,.12-.19,.27-.19,.45h-.57c0-.16,.03-.3,.09-.44,.06-.14,.15-.26,.27-.36,.12-.1,.26-.18,.43-.24,.17-.06,.37-.09,.58-.09s.42,.03,.59,.09c.17,.06,.31,.14,.43,.24,.12,.1,.21,.22,.27,.35,.06,.13,.09,.28,.09,.43,0,.24-.06,.44-.19,.61-.13,.17-.3,.28-.53,.35,.24,.08,.43,.2,.57,.37,.14,.17,.21,.41,.21,.71,0,.16-.03,.31-.1,.45-.06,.14-.16,.27-.28,.37s-.27,.19-.45,.25c-.18,.06-.38,.09-.61,.09Z"/><g><line class="d" x1="84.08" y1="37.07" x2="81.32" y2="38.32"/><g><line class="c" x1="84.08" y1="37.07" x2="82.95" y2="37.58"/><polygon class="d" points="82.78 36.29 81.32 38.32 83.8 38.57 82.78 36.29"/></g></g></svg>