<?xml version="1.0" encoding="UTF-8"?><svg id="a" xmlns="http://www.w3.org/2000/svg" viewBox="0 0 100 100"><defs><style>.b{stroke:#1a1a1a;stroke-width:5px;}.b,.c{fill:none;stroke-miterlimit:10;}.c{stroke:#ccc;stroke-width:.25px;}.d{fill:#ccc;}</style></defs><g><path class="b" d="M34.67,18.91c-1.56,9.63-2.91,19.91-3.91,30.79-1.22,13.27-1.77,25.77-1.86,37.38"/><path class="b" d="M20.19,31.49c8.44-2.04,16.88-4.08,25.32-6.12-5.34,5.3-13.34,14.6-19.31,28.38-4.99,11.53-6.74,21.97-7.38,29.09-.01,.14,.97-5.5,3.98-12.66,0,0,3.02-7.2,7.94-13.94,7.07-9.69,35.61-39.3,48.48-31.19,13.84,8.72,3.65,57.34-3.82,58.14-1.54,.16-4.12-1.58-4.57-3.71-.45-2.13,1.13-5.15,3.24-5.71,1.71-.45,2.99,.92,13.11,8.6l.02,.02h0"/></g><path class="d" d="M35.1,11.97v-.49h1v-3.09l-1,.71v-.61l1.02-.72h.57v3.71h.82v.49h-2.4Z"/><g><line class="d" x1="35.8" y1="13.82" x2="35.23" y2="16.79"/><g><line class="c" x1="35.8" y1="13.82" x2="35.57" y2="15.03"/><polygon class="d" points="34.41 14.44 35.23 16.79 36.86 14.91 34.41 14.44"/></g></g><path class="d" d="M10.28,34.56v-.46l1.68-1.46c.13-.11,.23-.21,.32-.29,.08-.09,.15-.17,.2-.25s.08-.16,.1-.23c.02-.08,.03-.16,.03-.25,0-.24-.07-.44-.21-.59-.14-.15-.33-.23-.58-.23-.29,0-.52,.08-.67,.24s-.23,.38-.23,.67h-.57c0-.2,.04-.39,.11-.57,.07-.17,.17-.32,.3-.45,.13-.12,.29-.22,.47-.29,.18-.07,.38-.11,.6-.11s.4,.03,.57,.1c.17,.07,.31,.16,.43,.28s.21,.26,.26,.42c.06,.16,.09,.34,.09,.53,0,.14-.02,.28-.07,.4-.04,.12-.11,.24-.18,.35-.08,.11-.17,.22-.28,.33s-.23,.21-.36,.33l-1.26,1.04h2.21v.49h-2.94Z"/><g><line class="d" x1="15.22" y1="32.59" x2="18.19" y2="32.03"/><g><line class="c" x1="15.22" y1="32.59" x2="16.43" y2="32.36"/><polygon class="d" points="16.3 33.66 18.19 32.03 15.84 31.21 16.3 33.66"/></g></g></svg>