<?xml version="1.0" encoding="UTF-8"?><svg id="a" xmlns="http://www.w3.org/2000/svg" viewBox="0 0 100 100"><defs><style>.b{stroke:#1a1a1a;stroke-width:5px;}.b,.c{fill:none;stroke-miterlimit:10;}.c{stroke:#ccc;stroke-width:.25px;}.d{fill:#ccc;}</style></defs><path class="b" d="M37.32,12.7s-8.67,39.89-1.66,43.24c1.23,.59,2.52,.35,2.52,.35,4.21-.64,6.13-7.52,6.47-8.82"/><path class="b" d="M69.31,13.17c1.09,10.93,.63,19.9,0,26.04-1.56,15.29-2.96,29.05-13.19,38.81-5.81,5.54-12.45,7.87-16.6,8.94"/><path class="d" d="M37.24,7.3v-.49h1V3.71l-1,.71v-.61l1.02-.72h.56v3.71h.82v.49h-2.4Z"/><g><line class="d" x1="38.18" y1="8.71" x2="37.47" y2="11.65"/><g><line class="c" x1="38.18" y1="8.71" x2="37.89" y2="9.9"/><polygon class="d" points="36.77 9.26 37.47 11.65 39.19 9.84 36.77 9.26"/></g></g><path class="d" d="M67.14,7.81v-.46l1.68-1.46c.13-.11,.23-.21,.32-.29s.15-.17,.2-.25c.05-.08,.08-.16,.1-.23,.02-.08,.03-.16,.03-.25,0-.24-.07-.44-.21-.59-.14-.15-.33-.23-.58-.23-.29,0-.52,.08-.67,.24s-.23,.38-.23,.67h-.56c0-.2,.04-.39,.11-.57,.07-.17,.17-.32,.3-.45,.13-.12,.29-.22,.47-.29,.18-.07,.38-.11,.6-.11s.4,.03,.57,.1c.17,.07,.31,.16,.43,.28s.2,.26,.26,.42c.06,.16,.09,.34,.09,.53,0,.14-.02,.28-.07,.4s-.1,.24-.18,.35-.17,.22-.28,.33c-.11,.11-.23,.22-.36,.33l-1.26,1.04h2.21v.49h-2.95Z"/><g><line class="d" x1="68.65" y1="9.32" x2="69.23" y2="12.29"/><g><line class="c" x1="68.65" y1="9.32" x2="68.88" y2="10.53"/><polygon class="d" points="67.59 10.41 69.23 12.29 70.04 9.93 67.59 10.41"/></g></g></svg>