<?xml version="1.0" encoding="UTF-8"?><svg id="a" xmlns="http://www.w3.org/2000/svg" viewBox="0 0 100 100"><defs><style>.b{stroke:#1a1a1a;stroke-width:5px;}.b,.c{fill:none;stroke-miterlimit:10;}.c{stroke:#ccc;stroke-width:.25px;}.d{fill:#ccc;}</style></defs><g><path class="b" d="M30.85,14.33c-5.34,13.17-7.01,24.27-7.58,31.55-1.34,17.07,1.52,36.06,6.91,37.49,1.25,.33,2.35-.06,2.35-.06,2.93-1.04,4.02-5.9,3.97-9.12,0-.69-.07-1.25-.12-1.62"/><path class="b" d="M45.65,30.84c3.6,1.29,11.57,3.57,21.03,1.26,4.42-1.08,7.9-2.84,10.38-4.39"/><path class="b" d="M64.54,11.6c.39,5.4,3.86,58.53-10.86,73.7-1.27,1.31-2.72,2.39-4.4,3.1"/></g><path class="d" d="M32.78,9.62v-.49h1v-3.09l-1,.71v-.61l1.02-.72h.56v3.71h.82v.49h-2.4Z"/><g><line class="d" x1="32.61" y1="10.72" x2="31.16" y2="13.37"/><g><line class="c" x1="32.61" y1="10.72" x2="32.02" y2="11.8"/><polygon class="d" points="31.1 10.88 31.16 13.37 33.29 12.08 31.1 10.88"/></g></g><path class="d" d="M36.93,29.99v-.46l1.68-1.46c.13-.11,.23-.21,.32-.29s.15-.17,.2-.25c.05-.08,.08-.16,.1-.23,.02-.08,.03-.16,.03-.25,0-.24-.07-.44-.21-.59-.14-.15-.33-.23-.58-.23-.29,0-.52,.08-.67,.24s-.23,.38-.23,.67h-.56c0-.2,.04-.39,.11-.57,.07-.17,.17-.32,.3-.45,.13-.12,.29-.22,.47-.29,.18-.07,.38-.11,.6-.11s.4,.03,.57,.1c.17,.07,.31,.16,.43,.28s.2,.26,.26,.42c.06,.16,.09,.34,.09,.53,0,.14-.02,.28-.07,.4s-.1,.24-.18,.35-.17,.22-.28,.33c-.11,.11-.23,.22-.36,.33l-1.26,1.04h2.21v.49h-2.95Z"/><g><line class="d" x1="41.79" y1="28.88" x2="44.4" y2="30.4"/><g><line class="c" x1="41.79" y1="28.88" x2="42.85" y2="29.5"/><polygon class="d" points="41.91 30.4 44.4 30.4 43.16 28.24 41.91 30.4"/></g></g><path class="d" d="M64.03,6.39c-.23,0-.43-.03-.61-.09-.18-.06-.33-.15-.45-.26-.12-.11-.22-.24-.28-.38-.06-.15-.1-.3-.1-.47h.56c0,.2,.07,.37,.21,.5,.14,.13,.36,.2,.67,.2s.53-.07,.67-.2c.14-.13,.21-.31,.21-.53,0-.23-.07-.41-.21-.55-.14-.14-.36-.2-.66-.2h-.45v-.48h.45c.29,0,.5-.06,.62-.18,.13-.12,.19-.29,.19-.51s-.06-.37-.18-.49c-.12-.12-.33-.18-.63-.18s-.5,.06-.62,.18c-.13,.12-.19,.27-.19,.45h-.57c0-.16,.03-.3,.09-.44,.06-.14,.15-.26,.27-.36,.12-.1,.26-.18,.43-.24,.17-.06,.37-.09,.58-.09s.42,.03,.59,.09c.17,.06,.31,.14,.43,.24,.12,.1,.21,.22,.27,.35,.06,.13,.09,.28,.09,.43,0,.24-.06,.44-.19,.61s-.3,.28-.53,.35c.24,.08,.43,.2,.57,.37,.14,.17,.21,.41,.21,.71,0,.16-.03,.31-.1,.45-.06,.14-.16,.27-.28,.37-.12,.11-.27,.19-.45,.25-.18,.06-.38,.09-.61,.09Z"/><g><line class="d" x1="64.07" y1="7.57" x2="64.39" y2="10.58"/><g><line class="c" x1="64.07" y1="7.57" x2="64.2" y2="8.79"/><polygon class="d" points="62.92 8.56 64.39 10.58 65.4 8.3 62.92 8.56"/></g></g></svg>