<?xml version="1.0" encoding="utf-8"?>
<!-- Generator: Adobe Illustrator 26.1.0, SVG Export Plug-In . SVG Version: 6.00 Build 0)  -->
<svg version="1.1" id="a" xmlns="http://www.w3.org/2000/svg" xmlns:xlink="http://www.w3.org/1999/xlink" x="0px" y="0px"
	 viewBox="0 0 100 100" style="enable-background:new 0 0 100 100;" xml:space="preserve">
<style type="text/css">
	.st0{fill:none;stroke:#1A1A1A;stroke-width:5;stroke-miterlimit:10;}
	.st1{fill:#CCCCCC;}
	.st2{fill:none;}
	.st3{fill:none;stroke:#CCCCCC;stroke-width:0.25;stroke-miterlimit:10;}
</style>
<polyline class="st0" points="25.6,79.7 25.6,24.1 77.3,24.1 77.3,79.7 "/>
<line class="st0" x1="25.6" y1="76" x2="77.3" y2="76"/>
<path class="st1" d="M12,27.1v-0.5l1.7-1.5c0.1-0.1,0.2-0.2,0.3-0.3c0.1-0.1,0.1-0.2,0.2-0.2s0.1-0.2,0.1-0.2c0-0.1,0-0.2,0-0.2
	c0-0.2-0.1-0.4-0.2-0.6s-0.3-0.2-0.6-0.2c-0.3,0-0.5,0.1-0.7,0.2s-0.2,0.4-0.2,0.7H12c0-0.2,0-0.4,0.1-0.6c0.1-0.2,0.2-0.3,0.3-0.5
	c0.1-0.1,0.3-0.2,0.5-0.3c0.2-0.1,0.4-0.1,0.6-0.1s0.4,0,0.6,0.1s0.3,0.2,0.4,0.3s0.2,0.3,0.3,0.4s0.1,0.3,0.1,0.5
	c0,0.1,0,0.3-0.1,0.4c0,0.1-0.1,0.2-0.2,0.4s-0.2,0.2-0.3,0.3s-0.2,0.2-0.4,0.3l-1.3,1h2.2v0.5L12,27.1L12,27.1z"/>
<g>
	<line class="st2" x1="17.1" y1="25.1" x2="20.1" y2="25.1"/>
	<g>
		<line class="st3" x1="17.1" y1="25.1" x2="18.4" y2="25.1"/>
		<polygon class="st1" points="18,26.3 20.1,25.1 18,23.9 		"/>
	</g>
</g>
<path class="st1" d="M13.4,78c-0.2,0-0.4,0-0.6-0.1c-0.2-0.1-0.3-0.2-0.4-0.3s-0.2-0.2-0.3-0.4S12,77,12,76.8h0.6
	c0,0.2,0.1,0.4,0.2,0.5s0.4,0.2,0.7,0.2s0.5-0.1,0.7-0.2s0.2-0.3,0.2-0.5c0-0.2-0.1-0.4-0.2-0.6S13.7,76,13.4,76H13v-0.5h0.4
	c0.3,0,0.5-0.1,0.6-0.2c0.1-0.1,0.2-0.3,0.2-0.5s-0.1-0.4-0.2-0.5c-0.1-0.1-0.3-0.2-0.6-0.2s-0.5,0.1-0.6,0.2
	c-0.1,0.1-0.2,0.3-0.2,0.4h-0.6c0-0.2,0-0.3,0.1-0.4s0.1-0.3,0.3-0.4c0.1-0.1,0.3-0.2,0.4-0.2s0.4-0.1,0.6-0.1s0.4,0,0.6,0.1
	s0.3,0.1,0.4,0.2s0.2,0.2,0.3,0.3s0.1,0.3,0.1,0.4c0,0.2-0.1,0.4-0.2,0.6s-0.3,0.3-0.5,0.3c0.2,0.1,0.4,0.2,0.6,0.4
	c0.1,0.2,0.2,0.4,0.2,0.7c0,0.2,0,0.3-0.1,0.4c-0.1,0.1-0.2,0.3-0.3,0.4c-0.1,0.1-0.3,0.2-0.4,0.2C13.9,77.9,13.7,78,13.4,78
	L13.4,78z"/>
<g>
	<line class="st2" x1="17.1" y1="76" x2="20.1" y2="76"/>
	<g>
		<line class="st3" x1="17.1" y1="76" x2="18.4" y2="76"/>
		<polygon class="st1" points="18,77.2 20.1,76 18,74.7 		"/>
	</g>
</g>
<path class="st1" d="M24.5,13.2v-0.5h1V9.6l-1,0.7V9.7l1-0.7h0.6v3.7h0.8v0.5L24.5,13.2L24.5,13.2z"/>
<g>
	<line class="st2" x1="25.6" y1="15.1" x2="25.6" y2="18.1"/>
	<g>
		<line class="st3" x1="25.6" y1="15.1" x2="25.6" y2="16.3"/>
		<polygon class="st1" points="24.3,15.9 25.6,18.1 26.8,15.9 		"/>
	</g>
</g>
<g>
	<path class="st3" d="M24.4,19.5H80c1.1,0,2.1,1,2.1,2.3v56.4"/>
	<polygon class="st1" points="80.8,78 82.1,79.7 83.3,78 	"/>
</g>
</svg>
