<?xml version="1.0" encoding="UTF-8"?><svg id="a" xmlns="http://www.w3.org/2000/svg" viewBox="0 0 100 100"><defs><style>.b{stroke:#1a1a1a;stroke-width:5px;}.b,.c{fill:none;stroke-miterlimit:10;}.c{stroke:#ccc;stroke-width:.25px;}.d{fill:#ccc;}</style></defs><polyline class="b" points="34.69 28.74 70.43 28.74 66.8 67.29"/><line class="b" x1="18.99" y1="67.29" x2="83.6" y2="67.29"/><path class="d" d="M22.72,30.85v-.49h1v-3.09l-1,.71v-.61l1.02-.72h.56v3.71h.82v.49h-2.4Z"/><g><line class="d" x1="26.93" y1="28.98" x2="29.95" y2="28.96"/><g><line class="c" x1="26.93" y1="28.98" x2="28.16" y2="28.97"/><polygon class="d" points="27.8 30.22 29.95 28.96 27.78 27.73 27.8 30.22"/></g></g><path class="d" d="M7.45,69.19v-.46l1.68-1.46c.13-.11,.23-.21,.32-.29,.08-.09,.15-.17,.2-.25,.05-.08,.08-.16,.1-.23,.02-.08,.03-.16,.03-.25,0-.24-.07-.44-.21-.59-.14-.15-.33-.23-.58-.23-.29,0-.52,.08-.67,.24s-.23,.38-.23,.67h-.56c0-.2,.04-.39,.11-.57,.07-.17,.17-.32,.3-.45,.13-.12,.29-.22,.47-.29,.18-.07,.38-.11,.6-.11s.4,.03,.57,.1,.31,.16,.43,.28,.2,.26,.26,.42c.06,.16,.09,.34,.09,.53,0,.14-.02,.28-.07,.4-.04,.12-.1,.24-.18,.35-.08,.11-.17,.22-.28,.33-.11,.11-.23,.21-.36,.33l-1.26,1.04h2.21v.49h-2.95Z"/><g><line class="d" x1="12.04" y1="67.32" x2="15.06" y2="67.29"/><g><line class="c" x1="12.04" y1="67.32" x2="13.27" y2="67.31"/><polygon class="d" points="12.91 68.56 15.06 67.29 12.89 66.06 12.91 68.56"/></g></g></svg>