<?xml version="1.0" encoding="UTF-8"?><svg id="a" xmlns="http://www.w3.org/2000/svg" viewBox="0 0 100 100"><defs><style>.b{stroke:#1a1a1a;stroke-width:5px;}.b,.c{fill:none;stroke-miterlimit:10;}.c{stroke:#ccc;stroke-width:.25px;}.d{fill:#ccc;}</style></defs><path class="b" d="M17.93,25.45h58.88s-1.08,39.79-58.88,46.38"/><line class="b" x1="82.07" y1="77.47" x2="58.48" y2="57.15"/><path class="d" d="M8.17,27.56v-.49h1v-3.09l-1,.71v-.61l1.02-.72h.56v3.71h.82v.49h-2.4Z"/><g><line class="d" x1="12.59" y1="25.72" x2="15.61" y2="25.7"/><g><line class="c" x1="12.59" y1="25.72" x2="13.82" y2="25.71"/><polygon class="d" points="13.46 26.96 15.61 25.7 13.45 24.46 13.46 26.96"/></g></g><path class="d" d="M50.59,51.44v-.46l1.68-1.46c.13-.11,.23-.21,.32-.29,.08-.09,.15-.17,.2-.25s.08-.16,.1-.23c.02-.08,.03-.16,.03-.25,0-.24-.07-.44-.21-.59-.14-.15-.33-.23-.58-.23-.29,0-.52,.08-.67,.24s-.23,.38-.23,.67h-.57c0-.2,.04-.39,.11-.57,.07-.17,.17-.32,.3-.45,.13-.12,.29-.22,.47-.29,.18-.07,.38-.11,.6-.11s.4,.03,.57,.1c.17,.07,.31,.16,.43,.28s.21,.26,.26,.42c.06,.16,.09,.34,.09,.53,0,.14-.02,.28-.07,.4-.04,.12-.11,.24-.18,.35-.08,.11-.17,.22-.28,.33s-.23,.21-.36,.33l-1.26,1.04h2.21v.49h-2.94Z"/><g><line class="d" x1="54.4" y1="52.4" x2="56.5" y2="54.58"/><g><line class="c" x1="54.4" y1="52.4" x2="55.26" y2="53.28"/><polygon class="d" points="54.1 53.88 56.5 54.58 55.9 52.16 54.1 53.88"/></g></g></svg>