<?xml version="1.0" encoding="UTF-8"?><svg id="a" xmlns="http://www.w3.org/2000/svg" viewBox="0 0 100 100"><defs><style>.b{stroke:#1a1a1a;stroke-width:5px;}.b,.c{fill:none;stroke-miterlimit:10;}.c{stroke:#ccc;stroke-width:.25px;}.d{fill:#ccc;}</style></defs><line class="b" x1="20.79" y1="26.92" x2="81.81" y2="26.92"/><path class="b" d="M50,16.84v59.37c0,.68-.78,1.08-1.33,.67l-7.71-5.66"/><path class="b" d="M37.9,43.48s-11.12,15.95-17.11,15.44"/><path class="b" d="M62.69,41.28s11.12,15.95,17.11,15.44"/><g><line class="d" x1="50.02" y1="11" x2="49.98" y2="14.02"/><g><line class="c" x1="50.02" y1="11" x2="50" y2="12.23"/><polygon class="d" points="48.76 11.85 49.98 14.02 51.25 11.88 48.76 11.85"/></g></g><path class="d" d="M42.77,14.46v-.46l1.68-1.46c.13-.11,.23-.21,.32-.29,.08-.09,.15-.17,.2-.25s.08-.16,.1-.23c.02-.08,.03-.16,.03-.25,0-.24-.07-.44-.21-.59-.14-.15-.33-.23-.58-.23-.29,0-.52,.08-.67,.24s-.23,.38-.23,.67h-.57c0-.2,.04-.39,.11-.57,.07-.17,.17-.32,.3-.45,.13-.12,.29-.22,.47-.29,.18-.07,.38-.11,.6-.11s.4,.03,.57,.1c.17,.07,.31,.16,.43,.28s.21,.26,.26,.42c.06,.16,.09,.34,.09,.53,0,.14-.02,.28-.07,.4-.04,.12-.11,.24-.18,.35-.08,.11-.17,.22-.28,.33s-.23,.21-.36,.33l-1.26,1.04h2.21v.49h-2.94Z"/><g><line class="d" x1="14.7" y1="26.95" x2="17.72" y2="27.09"/><g><line class="c" x1="14.7" y1="26.95" x2="15.93" y2="27"/><polygon class="d" points="15.51 28.23 17.72 27.09 15.62 25.74 15.51 28.23"/></g></g><path class="d" d="M10.36,28.97v-.49h1v-3.09l-1,.71v-.61l1.02-.72h.56v3.71h.82v.49h-2.4Z"/><g><line class="d" x1="40.67" y1="39.54" x2="38.99" y2="42.06"/><g><line class="c" x1="40.67" y1="39.54" x2="39.99" y2="40.57"/><polygon class="d" points="39.16 39.57 38.99 42.06 41.23 40.96 39.16 39.57"/></g></g><path class="d" d="M42.19,38.52c-.23,0-.43-.03-.61-.09-.18-.06-.33-.15-.45-.26-.12-.11-.22-.24-.28-.38-.06-.15-.1-.3-.1-.47h.57c0,.2,.07,.37,.21,.5,.14,.13,.36,.2,.67,.2s.53-.07,.67-.2c.14-.13,.21-.31,.21-.53,0-.23-.07-.41-.21-.55-.14-.14-.36-.2-.66-.2h-.45v-.48h.45c.29,0,.5-.06,.62-.18s.19-.29,.19-.51-.06-.37-.18-.49-.33-.18-.63-.18-.5,.06-.62,.18c-.13,.12-.19,.27-.19,.45h-.56c0-.16,.03-.3,.09-.44,.06-.14,.15-.26,.27-.36,.12-.1,.26-.18,.43-.24,.17-.06,.37-.09,.59-.09s.42,.03,.59,.09c.17,.06,.31,.14,.43,.24,.12,.1,.21,.22,.27,.35,.06,.13,.09,.28,.09,.43,0,.24-.06,.44-.19,.61-.13,.17-.3,.28-.53,.35,.24,.08,.43,.2,.57,.37,.14,.17,.21,.41,.21,.71,0,.16-.03,.31-.1,.45-.06,.14-.16,.27-.28,.37-.12,.11-.27,.19-.45,.25-.18,.06-.38,.09-.61,.09Z"/><g><line class="d" x1="60.1" y1="37.77" x2="61.84" y2="40.24"/><g><line class="c" x1="60.1" y1="37.77" x2="60.81" y2="38.77"/><polygon class="d" points="59.58 39.19 61.84 40.24 61.62 37.76 59.58 39.19"/></g></g><path class="d" d="M58.15,36.99v-1.02h-2.14v-.43l2.08-2.76h.62v2.7h.54v.49h-.54v1.02h-.56Zm-1.54-1.51h1.54v-2.04l-1.54,2.04Z"/></svg>