<?xml version="1.0" encoding="UTF-8"?><svg id="a" xmlns="http://www.w3.org/2000/svg" viewBox="0 0 100 100"><defs><style>.b{stroke:#1a1a1a;stroke-width:5px;}.b,.c{fill:none;stroke-miterlimit:10;}.c{stroke:#ccc;stroke-width:.25px;}.d{fill:#ccc;}</style></defs><line class="b" x1="40.96" y1="19.45" x2="40.96" y2="81.3"/><line class="b" x1="41.6" y1="47.34" x2="65.89" y2="61.38"/><path class="d" d="M39.83,12.19v-.49h1v-3.09l-1,.71v-.61l1.02-.72h.57v3.71h.82v.49h-2.4Z"/><g><line class="d" x1="40.97" y1="13.22" x2="40.94" y2="16.24"/><g><line class="c" x1="40.97" y1="13.22" x2="40.96" y2="14.45"/><polygon class="d" points="39.72 14.07 40.94 16.24 42.21 14.1 39.72 14.07"/></g></g><path class="d" d="M31.92,42.72v-.46l1.68-1.46c.13-.11,.23-.21,.32-.29s.15-.17,.2-.25c.05-.08,.08-.16,.1-.23,.02-.08,.03-.16,.03-.25,0-.24-.07-.44-.21-.59-.14-.15-.33-.23-.58-.23-.29,0-.52,.08-.67,.24s-.23,.38-.23,.67h-.56c0-.2,.04-.39,.11-.57,.07-.17,.17-.32,.3-.45,.13-.12,.29-.22,.47-.29,.18-.07,.38-.11,.6-.11s.4,.03,.57,.1c.17,.07,.31,.16,.43,.28s.2,.26,.26,.42c.06,.16,.09,.34,.09,.53,0,.14-.02,.28-.07,.4s-.1,.24-.18,.35-.17,.22-.28,.33c-.11,.11-.23,.22-.36,.33l-1.26,1.04h2.21v.49h-2.95Z"/><g><line class="d" x1="36.16" y1="44.23" x2="38.27" y2="46.4"/><g><line class="c" x1="36.16" y1="44.23" x2="37.02" y2="45.11"/><polygon class="d" points="35.87 45.73 38.27 46.4 37.66 43.98 35.87 45.73"/></g></g></svg>