<?xml version="1.0" encoding="UTF-8"?><svg id="a" xmlns="http://www.w3.org/2000/svg" viewBox="0 0 100 100"><defs><style>.b{stroke:#1a1a1a;stroke-width:5px;}.b,.c{fill:none;stroke-miterlimit:10;}.c{stroke:#ccc;stroke-width:.25px;}.d{fill:#ccc;}</style></defs><path class="b" d="M32.78,28.42s-7.13,38.59-20.14,40.92"/><path class="b" d="M59.83,25.33s27.41,23.79,27.53,44.6"/><path class="d" d="M32.75,21.94v-.49h1v-3.09l-1,.71v-.61l1.02-.72h.56v3.71h.82v.49h-2.4Z"/><g><line class="d" x1="33.64" y1="23.93" x2="33.33" y2="26.94"/><g><line class="c" x1="33.64" y1="23.93" x2="33.51" y2="25.16"/><polygon class="d" points="32.31 24.67 33.33 26.94 34.79 24.92 32.31 24.67"/></g></g><path class="d" d="M51.57,21.94v-.46l1.68-1.46c.13-.11,.23-.21,.32-.29,.08-.09,.15-.17,.2-.25s.08-.16,.1-.23c.02-.08,.03-.16,.03-.25,0-.24-.07-.44-.21-.59-.14-.15-.33-.23-.58-.23-.29,0-.52,.08-.67,.24s-.23,.38-.23,.67h-.57c0-.2,.04-.39,.11-.57,.07-.17,.17-.32,.3-.45,.13-.12,.29-.22,.47-.29,.18-.07,.38-.11,.6-.11s.4,.03,.57,.1c.17,.07,.31,.16,.43,.28s.21,.26,.26,.42c.06,.16,.09,.34,.09,.53,0,.14-.02,.28-.07,.4-.04,.12-.11,.24-.18,.35-.08,.11-.17,.22-.28,.33s-.23,.21-.36,.33l-1.26,1.04h2.21v.49h-2.94Z"/><g><line class="d" x1="56.34" y1="22.47" x2="58.63" y2="24.45"/><g><line class="c" x1="56.34" y1="22.47" x2="57.27" y2="23.28"/><polygon class="d" points="56.18 23.98 58.63 24.45 57.81 22.1 56.18 23.98"/></g></g></svg>