<?xml version="1.0" encoding="UTF-8"?><svg id="a" xmlns="http://www.w3.org/2000/svg" viewBox="0 0 100 100"><defs><style>.b{stroke:#1a1a1a;stroke-width:5px;}.b,.c{fill:none;stroke-miterlimit:10;}.c{stroke:#ccc;stroke-width:.25px;}.d{fill:#ccc;}</style></defs><path class="b" d="M18.37,31.9l62.07-5.17c.37-.03,.56,.43,.28,.67l-25.42,21.47"/><path class="b" d="M28.96,14.34l4.74,62.99c.15,1.93,1.77,3.4,3.7,3.35l44.22-1.09"/><path class="d" d="M8.81,34.54v-.49h1v-3.09l-1,.71v-.61l1.02-.72h.57v3.71h.82v.49h-2.4Z"/><g><line class="d" x1="13.35" y1="32.39" x2="16.37" y2="32.21"/><g><line class="c" x1="13.35" y1="32.39" x2="14.57" y2="32.32"/><polygon class="d" points="14.28 33.58 16.37 32.21 14.14 31.1 14.28 33.58"/></g></g><path class="d" d="M27.03,8.22v-.46l1.68-1.46c.13-.11,.23-.21,.32-.29,.08-.09,.15-.17,.2-.25s.08-.16,.1-.23c.02-.08,.03-.16,.03-.25,0-.24-.07-.44-.21-.59-.14-.15-.33-.23-.58-.23-.29,0-.52,.08-.67,.24s-.23,.38-.23,.67h-.57c0-.2,.04-.39,.11-.57,.07-.17,.17-.32,.3-.45,.13-.12,.29-.22,.47-.29,.18-.07,.38-.11,.6-.11s.4,.03,.57,.1c.17,.07,.31,.16,.43,.28s.21,.26,.26,.42c.06,.16,.09,.34,.09,.53,0,.14-.02,.28-.07,.4-.04,.12-.11,.24-.18,.35-.08,.11-.17,.22-.28,.33s-.23,.21-.36,.33l-1.26,1.04h2.21v.49h-2.94Z"/><g><line class="d" x1="28.72" y1="9.61" x2="28.87" y2="12.63"/><g><line class="c" x1="28.72" y1="9.61" x2="28.78" y2="10.84"/><polygon class="d" points="27.52 10.54 28.87 12.63 30.01 10.41 27.52 10.54"/></g></g></svg>