<?xml version="1.0" encoding="UTF-8"?><svg id="a" xmlns="http://www.w3.org/2000/svg" viewBox="0 0 100 100"><defs><style>.b{stroke:#1a1a1a;stroke-width:5px;}.b,.c{fill:none;stroke-miterlimit:10;}.c{stroke:#ccc;stroke-width:.25px;}.d{fill:#ccc;}</style></defs><g><polyline class="b" points="24.13 81.91 24.13 18.09 75.87 18.09 75.87 81.91"/><line class="b" x1="24.13" y1="69.91" x2="75.87" y2="69.91"/></g><path class="d" d="M10.5,21v-.46l1.68-1.46c.13-.11,.23-.21,.32-.29,.08-.09,.15-.17,.2-.25,.05-.08,.08-.16,.1-.23,.02-.08,.03-.16,.03-.25,0-.24-.07-.44-.21-.59-.14-.15-.33-.23-.58-.23-.29,0-.52,.08-.67,.24s-.23,.38-.23,.67h-.56c0-.2,.04-.39,.11-.57,.07-.17,.17-.32,.3-.45,.13-.12,.29-.22,.47-.29,.18-.07,.38-.11,.6-.11s.4,.03,.57,.1,.31,.16,.43,.28,.2,.26,.26,.42c.06,.16,.09,.34,.09,.53,0,.14-.02,.28-.07,.4-.04,.12-.1,.24-.18,.35-.08,.11-.17,.22-.28,.33-.11,.11-.23,.21-.36,.33l-1.26,1.04h2.21v.49h-2.95Z"/><g><line class="d" x1="15.66" y1="19.05" x2="18.68" y2="19.04"/><g><line class="c" x1="15.66" y1="19.05" x2="16.89" y2="19.05"/><polygon class="d" points="16.53 20.29 18.68 19.04 16.52 17.8 16.53 20.29"/></g></g><path class="d" d="M11.96,71.94c-.23,0-.43-.03-.61-.09-.18-.06-.33-.15-.45-.26-.12-.11-.22-.23-.28-.38s-.1-.3-.1-.47h.56c0,.2,.07,.37,.21,.5,.14,.13,.36,.2,.67,.2s.53-.07,.67-.2c.14-.13,.21-.31,.21-.53,0-.23-.07-.41-.21-.55-.14-.14-.36-.2-.66-.2h-.45v-.48h.45c.29,0,.5-.06,.62-.18,.13-.12,.19-.29,.19-.51s-.06-.37-.18-.49c-.12-.12-.33-.18-.63-.18s-.5,.06-.62,.18c-.13,.12-.19,.27-.19,.45h-.57c0-.16,.03-.3,.09-.44,.06-.14,.15-.26,.27-.36,.12-.1,.26-.18,.43-.24,.17-.06,.37-.09,.58-.09s.42,.03,.59,.09c.17,.06,.31,.14,.43,.24,.12,.1,.21,.22,.27,.35,.06,.13,.09,.28,.09,.43,0,.24-.06,.44-.19,.61s-.3,.28-.53,.35c.24,.08,.43,.2,.57,.37,.14,.17,.21,.41,.21,.71,0,.16-.03,.31-.1,.45-.06,.14-.16,.27-.28,.37-.12,.11-.27,.19-.45,.25-.18,.06-.38,.09-.61,.09Z"/><g><line class="d" x1="15.66" y1="69.92" x2="18.68" y2="69.91"/><g><line class="c" x1="15.66" y1="69.92" x2="16.89" y2="69.92"/><polygon class="d" points="16.53 71.17 18.68 69.91 16.52 68.67 16.53 71.17"/></g></g><path class="d" d="M23,7.16v-.49h1V3.57l-1,.71v-.61l1.02-.72h.57v3.71h.82v.49h-2.4Z"/><g><line class="d" x1="24.13" y1="9" x2="24.13" y2="12.02"/><g><line class="c" x1="24.13" y1="9" x2="24.13" y2="10.23"/><polygon class="d" points="22.88 9.87 24.13 12.02 25.37 9.86 22.88 9.87"/></g></g><g><path class="c" d="M22.96,13.49h55.59c1.14,0,2.07,1.29,2.07,2.87V85.8"/><polygon class="d" points="79.37 85.44 80.62 87.6 81.86 85.44 79.37 85.44"/></g></svg>