<?xml version="1.0" encoding="UTF-8"?><svg id="a" xmlns="http://www.w3.org/2000/svg" viewBox="0 0 100 100"><defs><style>.b{stroke:#1a1a1a;stroke-width:5px;}.b,.c{fill:none;stroke-miterlimit:10;}.c{stroke:#ccc;stroke-width:.25px;}.d{fill:#ccc;}</style></defs><path class="b" d="M38.96,13.72s-2.88,16.6-13.16,28.85"/><path class="b" d="M37.57,19.4h35.5s5.9,64.1-47.26,62.74"/><path class="b" d="M38.96,35.17s29.57,1.87,35.23,26.21"/><path class="d" d="M39.31,7.56v-.49h1V3.97l-1,.71v-.61l1.02-.72h.56v3.71h.82v.49h-2.4Z"/><g><line class="d" x1="40.01" y1="9.75" x2="39.15" y2="12.64"/><g><line class="c" x1="40.01" y1="9.75" x2="39.66" y2="10.92"/><polygon class="d" points="38.57 10.22 39.15 12.64 40.96 10.93 38.57 10.22"/></g></g><path class="d" d="M38.02,32.8c-.23,0-.43-.03-.61-.09-.18-.06-.33-.15-.45-.25s-.22-.24-.28-.38c-.06-.15-.1-.3-.1-.47h.56c0,.2,.07,.37,.21,.5s.36,.2,.67,.2,.53-.07,.67-.2c.14-.13,.21-.31,.21-.53,0-.23-.07-.41-.21-.55-.14-.14-.36-.2-.66-.2h-.45v-.48h.45c.29,0,.5-.06,.62-.18,.13-.12,.19-.29,.19-.51s-.06-.37-.18-.49c-.12-.12-.33-.18-.63-.18s-.5,.06-.62,.18c-.13,.12-.19,.27-.19,.45h-.56c0-.16,.03-.3,.09-.44,.06-.14,.15-.26,.27-.36,.12-.1,.26-.18,.43-.24,.17-.06,.37-.09,.59-.09s.42,.03,.59,.09c.17,.06,.31,.14,.43,.24,.12,.1,.21,.22,.27,.35,.06,.13,.09,.28,.09,.43,0,.24-.06,.44-.19,.61-.13,.17-.3,.28-.53,.35,.24,.08,.43,.2,.57,.37,.14,.17,.21,.41,.21,.71,0,.16-.03,.31-.1,.45-.06,.14-.16,.27-.28,.37s-.27,.19-.45,.25c-.18,.06-.38,.09-.61,.09Z"/><g><line class="d" x1="34.79" y1="34.66" x2="37.79" y2="35.05"/><g><line class="c" x1="34.79" y1="34.66" x2="36.01" y2="34.82"/><polygon class="d" points="35.49 36.01 37.79 35.05 35.81 33.54 35.49 36.01"/></g></g><path class="d" d="M24.64,21.41v-.46l1.68-1.46c.13-.11,.23-.21,.32-.29,.08-.09,.15-.17,.2-.25,.05-.08,.08-.16,.1-.23s.03-.16,.03-.25c0-.24-.07-.44-.21-.59s-.33-.23-.58-.23c-.29,0-.52,.08-.67,.24s-.23,.38-.23,.67h-.56c0-.2,.04-.39,.11-.57,.07-.17,.17-.32,.3-.45,.13-.12,.29-.22,.47-.29s.38-.11,.6-.11,.4,.03,.57,.1c.17,.07,.31,.16,.43,.28s.2,.26,.26,.42,.09,.34,.09,.53c0,.14-.02,.28-.07,.4-.04,.12-.1,.24-.18,.35-.08,.11-.17,.22-.28,.33-.11,.11-.23,.21-.36,.33l-1.26,1.04h2.21v.49h-2.94Z"/><g><line class="d" x1="30.64" y1="19.38" x2="33.67" y2="19.43"/><g><line class="c" x1="30.64" y1="19.38" x2="31.87" y2="19.4"/><polygon class="d" points="31.49 20.64 33.67 19.43 31.53 18.15 31.49 20.64"/></g></g></svg>