<?xml version="1.0" encoding="UTF-8"?><svg id="a" xmlns="http://www.w3.org/2000/svg" viewBox="0 0 100 100"><defs><style>.b{stroke:#1a1a1a;stroke-width:5px;}.b,.c{fill:none;stroke-miterlimit:10;}.c{stroke:#ccc;stroke-width:.25px;}.d{fill:#ccc;}</style></defs><path class="b" d="M51.74,15.81c-3.82,19.54-16.79,41.3-30.21,59.49,18.61-2.33,37.22-4.65,55.83-6.98"/><path class="b" d="M67.52,49.64s11.41,14.81,13.26,34.55"/><path class="d" d="M52.04,8.68v-.49h1v-3.09l-1,.71v-.61l1.02-.72h.56v3.71h.82v.49h-2.4Z"/><g><line class="d" x1="52.8" y1="11.11" x2="52.1" y2="14.05"/><g><line class="c" x1="52.8" y1="11.11" x2="52.52" y2="12.31"/><polygon class="d" points="51.39 11.66 52.1 14.05 53.81 12.25 51.39 11.66"/></g></g><path class="d" d="M61.13,43.68v-.46l1.68-1.46c.13-.11,.23-.21,.32-.29,.08-.09,.15-.17,.2-.25,.05-.08,.08-.16,.1-.23,.02-.08,.03-.16,.03-.25,0-.24-.07-.44-.21-.59-.14-.15-.33-.23-.58-.23-.29,0-.52,.08-.67,.24s-.23,.38-.23,.67h-.56c0-.2,.04-.39,.11-.57,.07-.17,.17-.32,.3-.45,.13-.12,.29-.22,.47-.29,.18-.07,.38-.11,.6-.11s.4,.03,.57,.1,.31,.16,.43,.28,.2,.26,.26,.42c.06,.16,.09,.34,.09,.53,0,.14-.02,.28-.07,.4-.04,.12-.1,.24-.18,.35-.08,.11-.17,.22-.28,.33-.11,.11-.23,.21-.36,.33l-1.26,1.04h2.21v.49h-2.95Z"/><g><line class="d" x1="64.62" y1="45.07" x2="66.51" y2="47.43"/><g><line class="c" x1="64.62" y1="45.07" x2="65.39" y2="46.03"/><polygon class="d" points="64.19 46.53 66.51 47.43 66.13 44.97 64.19 46.53"/></g></g></svg>