<?xml version="1.0" encoding="UTF-8"?><svg id="a" xmlns="http://www.w3.org/2000/svg" viewBox="0 0 100 100"><defs><style>.b{stroke:#1a1a1a;stroke-width:5px;}.b,.c{fill:none;stroke-miterlimit:10;}.c{stroke:#ccc;stroke-width:.25px;}.d{fill:#ccc;}</style></defs><path class="b" d="M22.8,33.25h58.25s5.93,46.1,0,47.95-10.12-4.81-10.12-4.81"/><path class="b" d="M54.52,19.55c-4.91,38.86-24.78,65.72-24.78,65.72"/><path class="d" d="M12.34,35.57v-.49h1v-3.09l-1,.71v-.61l1.02-.72h.56v3.71h.82v.49h-2.4Z"/><g><line class="d" x1="16.94" y1="33.35" x2="19.96" y2="33.25"/><g><line class="c" x1="16.94" y1="33.35" x2="18.17" y2="33.31"/><polygon class="d" points="17.84 34.57 19.96 33.25 17.77 32.07 17.84 34.57"/></g></g><path class="d" d="M53.52,13.48v-.46l1.68-1.46c.13-.11,.23-.21,.32-.29s.15-.17,.2-.25c.05-.08,.08-.16,.1-.23,.02-.08,.03-.16,.03-.25,0-.24-.07-.44-.21-.59-.14-.15-.33-.23-.58-.23-.29,0-.52,.08-.67,.24s-.23,.38-.23,.67h-.56c0-.2,.04-.39,.11-.57,.07-.17,.17-.32,.3-.45,.13-.12,.29-.22,.47-.29,.18-.07,.38-.11,.6-.11s.4,.03,.57,.1c.17,.07,.31,.16,.43,.28s.2,.26,.26,.42c.06,.16,.09,.34,.09,.53,0,.14-.02,.28-.07,.4s-.1,.24-.18,.35-.17,.22-.28,.33c-.11,.11-.23,.22-.36,.33l-1.26,1.04h2.21v.49h-2.95Z"/><g><line class="d" x1="55.02" y1="15.18" x2="54.74" y2="18.19"/><g><line class="c" x1="55.02" y1="15.18" x2="54.9" y2="16.41"/><polygon class="d" points="53.7 15.93 54.74 18.19 56.18 16.16 53.7 15.93"/></g></g></svg>