<?xml version="1.0" encoding="UTF-8"?><svg id="a" xmlns="http://www.w3.org/2000/svg" viewBox="0 0 100 100"><defs><style>.b{stroke:#1a1a1a;stroke-width:5px;}.b,.c{fill:none;stroke-miterlimit:10;}.c{stroke:#ccc;stroke-width:.25px;}.d{fill:#ccc;}</style></defs><path class="b" d="M29.55,20.53v51.96c0,3.27,2.65,5.91,5.91,5.91h41.23"/><path class="b" d="M29.55,44.02s21.23-.26,36.94-11.36"/><path class="d" d="M28.07,11.86v-.46l1.68-1.46c.13-.11,.23-.21,.32-.29,.08-.09,.15-.17,.2-.25s.08-.16,.1-.23c.02-.08,.03-.16,.03-.25,0-.24-.07-.44-.21-.59-.14-.15-.33-.23-.58-.23-.29,0-.52,.08-.67,.24s-.23,.38-.23,.67h-.57c0-.2,.04-.39,.11-.57,.07-.17,.17-.32,.3-.45,.13-.12,.29-.22,.47-.29,.18-.07,.38-.11,.6-.11s.4,.03,.57,.1c.17,.07,.31,.16,.43,.28s.21,.26,.26,.42c.06,.16,.09,.34,.09,.53,0,.14-.02,.28-.07,.4-.04,.12-.11,.24-.18,.35-.08,.11-.17,.22-.28,.33s-.23,.21-.36,.33l-1.26,1.04h2.21v.49h-2.94Z"/><g><line class="d" x1="29.57" y1="14.42" x2="29.54" y2="17.44"/><g><line class="c" x1="29.57" y1="14.42" x2="29.56" y2="15.65"/><polygon class="d" points="28.31 15.27 29.54 17.44 30.81 15.3 28.31 15.27"/></g></g><path class="d" d="M18.29,46.22v-.49h1v-3.09l-1,.71v-.61l1.02-.72h.57v3.71h.82v.49h-2.4Z"/><g><line class="d" x1="23" y1="44" x2="26.02" y2="44.04"/><g><line class="c" x1="23" y1="44" x2="24.23" y2="44.02"/><polygon class="d" points="23.85 45.26 26.02 44.04 23.88 42.77 23.85 45.26"/></g></g></svg>