<?xml version="1.0" encoding="UTF-8"?><svg id="a" xmlns="http://www.w3.org/2000/svg" viewBox="0 0 100 100"><defs><style>.b{stroke:#1a1a1a;stroke-width:5px;}.b,.c{fill:none;stroke-miterlimit:10;}.c{stroke:#ccc;stroke-width:.25px;}.d{fill:#ccc;}</style></defs><line class="b" x1="31.08" y1="31.72" x2="74.92" y2="31.72"/><line class="b" x1="19.13" y1="72.28" x2="86.87" y2="72.28"/><line class="b" x1="53" y1="31.72" x2="53" y2="72.28"/><path class="d" d="M20.77,33.64v-.49h1v-3.09l-1,.71v-.61l1.02-.72h.56v3.71h.82v.49h-2.4Z"/><g><line class="d" x1="25.89" y1="31.51" x2="28.91" y2="31.55"/><g><line class="c" x1="25.89" y1="31.51" x2="27.12" y2="31.53"/><polygon class="d" points="26.74 32.77 28.91 31.55 26.77 30.28 26.74 32.77"/></g></g><path class="d" d="M51.5,24.65v-.46l1.68-1.46c.13-.11,.23-.21,.32-.29,.08-.09,.15-.17,.2-.25s.08-.16,.1-.23c.02-.08,.03-.16,.03-.25,0-.24-.07-.44-.21-.59-.14-.15-.33-.23-.58-.23-.29,0-.52,.08-.67,.24s-.23,.38-.23,.67h-.57c0-.2,.04-.39,.11-.57s.17-.32,.3-.45c.13-.12,.29-.22,.47-.29,.18-.07,.38-.11,.6-.11s.4,.03,.57,.1c.17,.07,.31,.16,.43,.28s.21,.26,.26,.42c.06,.16,.09,.34,.09,.53,0,.14-.02,.28-.07,.4-.04,.12-.11,.24-.18,.35-.08,.11-.17,.22-.28,.33-.11,.11-.23,.22-.36,.33l-1.26,1.04h2.21v.49h-2.94Z"/><g><line class="d" x1="53.04" y1="25.84" x2="53" y2="28.87"/><g><line class="c" x1="53.04" y1="25.84" x2="53.02" y2="27.07"/><polygon class="d" points="51.78 26.69 53 28.87 54.27 26.73 51.78 26.69"/></g></g><path class="d" d="M10.62,74.33c-.23,0-.43-.03-.61-.09-.18-.06-.33-.15-.45-.26-.12-.11-.22-.24-.28-.38-.06-.15-.1-.3-.1-.47h.56c0,.2,.07,.37,.21,.5,.14,.13,.36,.2,.67,.2s.53-.07,.67-.2c.14-.13,.21-.31,.21-.53,0-.23-.07-.41-.21-.55-.14-.14-.36-.2-.66-.2h-.45v-.48h.45c.29,0,.5-.06,.62-.18,.13-.12,.19-.29,.19-.51s-.06-.37-.18-.49c-.12-.12-.33-.18-.63-.18s-.5,.06-.62,.18c-.13,.12-.19,.27-.19,.45h-.57c0-.16,.03-.3,.09-.44,.06-.14,.15-.26,.27-.36,.12-.1,.26-.18,.43-.24,.17-.06,.37-.09,.58-.09s.42,.03,.59,.09c.17,.06,.31,.14,.43,.24,.12,.1,.21,.22,.27,.35,.06,.13,.09,.28,.09,.43,0,.24-.06,.44-.19,.61s-.3,.28-.53,.35c.24,.08,.43,.2,.57,.37,.14,.17,.21,.41,.21,.71,0,.16-.03,.31-.1,.45-.06,.14-.16,.27-.28,.37-.12,.11-.27,.19-.45,.25-.18,.06-.38,.09-.61,.09Z"/><g><line class="d" x1="14.33" y1="72.26" x2="17.35" y2="72.3"/><g><line class="c" x1="14.33" y1="72.26" x2="15.56" y2="72.28"/><polygon class="d" points="15.18 73.52 17.35 72.3 15.21 71.03 15.18 73.52"/></g></g></svg>