<?xml version="1.0" encoding="UTF-8"?><svg id="a" xmlns="http://www.w3.org/2000/svg" viewBox="0 0 100 100"><defs><style>.b{stroke:#1a1a1a;stroke-width:5px;}.b,.c{fill:none;stroke-miterlimit:10;}.c{stroke:#ccc;stroke-width:.25px;}.d{fill:#ccc;}</style></defs><path class="d" d="M35.62,13.49v-.49h1v-3.09l-1,.71v-.61l1.02-.72h.57v3.71h.82v.49h-2.4Z"/><g><line class="d" x1="36.76" y1="15.47" x2="36.73" y2="18.49"/><g><line class="c" x1="36.76" y1="15.47" x2="36.75" y2="16.7"/><polygon class="d" points="35.5 16.32 36.73 18.49 38 16.35 35.5 16.32"/></g></g><path class="d" d="M53.57,8.48v-.46l1.68-1.46c.13-.11,.23-.21,.32-.29s.15-.17,.2-.25,.08-.16,.1-.23c.02-.08,.03-.16,.03-.25,0-.24-.07-.44-.21-.59-.14-.15-.33-.23-.58-.23-.29,0-.52,.08-.67,.24s-.23,.38-.23,.67h-.57c0-.2,.04-.39,.11-.57,.07-.17,.17-.32,.3-.45,.13-.12,.29-.22,.47-.29,.18-.07,.38-.11,.6-.11s.4,.03,.57,.1c.17,.07,.31,.16,.43,.28,.12,.12,.21,.26,.26,.42,.06,.16,.09,.34,.09,.53,0,.14-.02,.28-.07,.4-.04,.12-.11,.24-.18,.35s-.17,.22-.28,.33c-.11,.11-.23,.22-.36,.33l-1.26,1.04h2.21v.49h-2.94Z"/><g><line class="d" x1="55.09" y1="10.46" x2="55.05" y2="13.49"/><g><line class="c" x1="55.09" y1="10.46" x2="55.07" y2="11.69"/><polygon class="d" points="53.83 11.31 55.05 13.49 56.32 11.34 53.83 11.31"/></g></g><path class="b" d="M37.02,20.02s5.2,50.81-13.17,54.89"/><path class="b" d="M55.09,15.6v53.96s21.96-7.14,24.51-19.91"/></svg>