<?xml version="1.0" encoding="UTF-8"?><svg id="a" xmlns="http://www.w3.org/2000/svg" viewBox="0 0 100 100"><defs><style>.b{stroke:#1a1a1a;stroke-width:5px;}.b,.c{fill:none;stroke-miterlimit:10;}.c{stroke:#ccc;stroke-width:.25px;}.d{fill:#ccc;}</style></defs><line class="b" x1="38.03" y1="26.61" x2="38.03" y2="60.74"/><path class="b" d="M60.44,24.83v47.44s-.51,9.8-16.09,9.58"/><path class="d" d="M36.91,18.79v-.49h1v-3.09l-1,.71v-.61l1.02-.72h.57v3.71h.82v.49h-2.4Z"/><g><line class="d" x1="38.05" y1="20.78" x2="38.02" y2="23.8"/><g><line class="c" x1="38.05" y1="20.78" x2="38.03" y2="22.01"/><polygon class="d" points="36.79 21.63 38.02 23.8 39.29 21.66 36.79 21.63"/></g></g><path class="d" d="M58.93,17.28v-.46l1.68-1.46c.13-.11,.23-.21,.32-.29s.15-.17,.2-.25c.05-.08,.08-.16,.1-.23,.02-.08,.03-.16,.03-.25,0-.24-.07-.44-.21-.59-.14-.15-.33-.23-.58-.23-.29,0-.52,.08-.67,.24s-.23,.38-.23,.67h-.56c0-.2,.04-.39,.11-.57,.07-.17,.17-.32,.3-.45,.13-.12,.29-.22,.47-.29,.18-.07,.38-.11,.6-.11s.4,.03,.57,.1c.17,.07,.31,.16,.43,.28s.2,.26,.26,.42c.06,.16,.09,.34,.09,.53,0,.14-.02,.28-.07,.4s-.1,.24-.18,.35-.17,.22-.28,.33c-.11,.11-.23,.22-.36,.33l-1.26,1.04h2.21v.49h-2.95Z"/><g><line class="d" x1="60.45" y1="19.26" x2="60.42" y2="22.29"/><g><line class="c" x1="60.45" y1="19.26" x2="60.44" y2="20.49"/><polygon class="d" points="59.2 20.12 60.42 22.29 61.69 20.14 59.2 20.12"/></g></g></svg>