<?xml version="1.0" encoding="UTF-8"?><svg id="a" xmlns="http://www.w3.org/2000/svg" viewBox="0 0 100 100"><defs><style>.b{stroke:#1a1a1a;stroke-width:5px;}.b,.c{fill:none;stroke-miterlimit:10;}.c{stroke:#ccc;stroke-width:.25px;}.d{fill:#ccc;}</style></defs><path class="b" d="M25.41,36.16h54.52s10.44,41.47-54.52,39.64"/><line class="b" x1="33.88" y1="21.82" x2="72.72" y2="21.82"/><path class="d" d="M29.05,18.31v-.49h1v-3.09l-1,.71v-.61l1.02-.72h.56v3.71h.82v.49h-2.4Z"/><g><line class="d" x1="28.66" y1="21.79" x2="31.69" y2="21.82"/><g><line class="c" x1="28.66" y1="21.79" x2="29.89" y2="21.8"/><polygon class="d" points="29.52 23.05 31.69 21.82 29.54 20.55 29.52 23.05"/></g></g><path class="d" d="M18.14,32.64v-.46l1.68-1.46c.13-.11,.23-.21,.32-.29s.15-.17,.2-.25c.05-.08,.08-.15,.1-.23s.03-.16,.03-.25c0-.24-.07-.44-.21-.59s-.33-.23-.58-.23c-.29,0-.52,.08-.67,.24s-.23,.38-.23,.67h-.56c0-.21,.04-.39,.11-.57,.07-.17,.17-.32,.3-.45,.13-.12,.29-.22,.47-.29,.18-.07,.38-.11,.6-.11s.4,.03,.57,.1c.17,.07,.31,.16,.43,.28s.2,.26,.26,.42,.09,.34,.09,.53c0,.14-.02,.28-.07,.4-.04,.12-.1,.24-.18,.35-.08,.11-.17,.22-.28,.33-.11,.11-.23,.21-.36,.33l-1.26,1.04h2.21v.49h-2.94Z"/><g><line class="d" x1="18.13" y1="36.12" x2="21.16" y2="36.16"/><g><line class="c" x1="18.13" y1="36.12" x2="19.36" y2="36.14"/><polygon class="d" points="18.98 37.38 21.16 36.16 19.01 34.89 18.98 37.38"/></g></g></svg>