<?xml version="1.0" encoding="UTF-8"?><svg id="a" xmlns="http://www.w3.org/2000/svg" viewBox="0 0 100 100"><defs><style>.b{stroke:#1a1a1a;stroke-width:5px;}.b,.c{fill:none;stroke-miterlimit:10;}.c{stroke:#ccc;stroke-width:.25px;}.d{fill:#ccc;}</style></defs><path class="b" d="M37.4,22.81h35.5c.1,1.39,1.94,34.51-22.24,49.81-9.28,5.87-18.8,6.85-24.51,6.89"/><path class="b" d="M45.4,37.67s30.11,9.62,32.54,23.13"/><path class="d" d="M27.31,24.79v-.49h1v-3.09l-1,.71v-.61l1.02-.72h.56v3.71h.82v.49h-2.4Z"/><g><line class="d" x1="31.67" y1="22.78" x2="34.69" y2="22.84"/><g><line class="c" x1="31.67" y1="22.78" x2="32.9" y2="22.8"/><polygon class="d" points="32.51 24.04 34.69 22.84 32.56 21.55 32.51 24.04"/></g></g><path class="d" d="M35.52,38.54v-.46l1.68-1.46c.13-.11,.23-.21,.32-.29s.15-.17,.2-.25c.05-.08,.08-.16,.1-.23,.02-.08,.03-.16,.03-.25,0-.24-.07-.44-.21-.59-.14-.15-.33-.23-.58-.23-.29,0-.52,.08-.67,.24s-.23,.38-.23,.67h-.56c0-.2,.04-.39,.11-.57,.07-.17,.17-.32,.3-.45,.13-.12,.29-.22,.47-.29,.18-.07,.38-.11,.6-.11s.4,.03,.57,.1c.17,.07,.31,.16,.43,.28s.2,.26,.26,.42c.06,.16,.09,.34,.09,.53,0,.14-.02,.28-.07,.4s-.1,.24-.18,.35-.17,.22-.28,.33c-.11,.11-.23,.22-.36,.33l-1.26,1.04h2.21v.49h-2.95Z"/><g><line class="d" x1="40.46" y1="36.8" x2="43.46" y2="37.19"/><g><line class="c" x1="40.46" y1="36.8" x2="41.68" y2="36.96"/><polygon class="d" points="41.16 38.15 43.46 37.19 41.47 35.68 41.16 38.15"/></g></g></svg>