<?xml version="1.0" encoding="UTF-8"?><svg id="a" xmlns="http://www.w3.org/2000/svg" viewBox="0 0 100 100"><defs><style>.b{stroke:#1a1a1a;stroke-width:5px;}.b,.c{fill:none;stroke-miterlimit:10;}.c{stroke:#ccc;stroke-width:.25px;}.d{fill:#ccc;}</style></defs><path class="b" d="M17.31,24.11H83.6s-5.15,24.51-33.6,34.21"/><path class="b" d="M30.31,44.76s18.88,7.39,31.77,28.9"/><path class="d" d="M5.73,26.32v-.49h1v-3.09l-1,.71v-.61l1.02-.72h.56v3.71h.82v.49h-2.4Z"/><g><line class="d" x1="10.44" y1="24.11" x2="13.46" y2="24.14"/><g><line class="c" x1="10.44" y1="24.11" x2="11.67" y2="24.12"/><polygon class="d" points="11.29 25.36 13.46 24.14 11.32 22.87 11.29 25.36"/></g></g><path class="d" d="M20.68,42.89v-.46l1.68-1.46c.13-.11,.23-.21,.32-.29s.15-.17,.2-.25c.05-.08,.08-.16,.1-.23s.03-.16,.03-.25c0-.24-.07-.44-.21-.59-.14-.15-.33-.23-.58-.23-.29,0-.52,.08-.67,.24s-.23,.38-.23,.67h-.56c0-.2,.04-.39,.11-.57,.07-.17,.17-.32,.3-.45s.29-.22,.47-.29c.18-.07,.38-.11,.6-.11s.4,.03,.57,.1c.17,.07,.31,.16,.43,.28s.2,.26,.26,.42,.09,.34,.09,.53c0,.14-.02,.28-.07,.4s-.1,.24-.18,.35-.17,.22-.28,.33c-.11,.11-.23,.22-.36,.33l-1.26,1.04h2.21v.49h-2.94Z"/><g><line class="d" x1="25.85" y1="42.89" x2="28.63" y2="44.07"/><g><line class="c" x1="25.85" y1="42.89" x2="26.98" y2="43.37"/><polygon class="d" points="26.16 44.37 28.63 44.07 27.13 42.08 26.16 44.37"/></g></g></svg>