<?xml version="1.0" encoding="UTF-8"?><svg id="a" xmlns="http://www.w3.org/2000/svg" viewBox="0 0 100 100"><defs><style>.b{stroke:#1a1a1a;stroke-width:5px;}.b,.c{fill:none;stroke-miterlimit:10;}.c{stroke:#ccc;stroke-width:.25px;}.d{fill:#ccc;}</style></defs><path class="b" d="M73.3,18.81s-12.94,56.98-49.7,64.81"/><path class="b" d="M39.11,36.64s29.42,5.67,39.29,27.23"/><path class="d" d="M28.21,36.74v-.46l1.68-1.46c.13-.11,.23-.21,.32-.29,.08-.09,.15-.17,.2-.25s.08-.16,.1-.23c.02-.08,.03-.16,.03-.25,0-.24-.07-.44-.21-.59-.14-.15-.33-.23-.58-.23-.29,0-.52,.08-.67,.24s-.23,.38-.23,.67h-.57c0-.2,.04-.39,.11-.57s.17-.32,.3-.45c.13-.12,.29-.22,.47-.29,.18-.07,.38-.11,.6-.11s.4,.03,.57,.1c.17,.07,.31,.16,.43,.28s.21,.26,.26,.42c.06,.16,.09,.34,.09,.53,0,.14-.02,.28-.07,.4-.04,.12-.11,.24-.18,.36-.08,.11-.17,.22-.28,.33s-.23,.22-.36,.33l-1.26,1.04h2.21v.49h-2.94Z"/><g><line class="d" x1="32.94" y1="35.13" x2="35.84" y2="35.98"/><g><line class="c" x1="32.94" y1="35.13" x2="34.12" y2="35.48"/><polygon class="d" points="33.42 36.57 35.84 35.98 34.12 34.18 33.42 36.57"/></g></g><path class="d" d="M73.68,13.03v-.49h1v-3.09l-1,.71v-.61l1.02-.72h.56v3.71h.82v.49h-2.4Z"/><g><line class="d" x1="74.31" y1="14.53" x2="73.83" y2="17.51"/><g><line class="c" x1="74.31" y1="14.53" x2="74.11" y2="15.74"/><polygon class="d" points="72.94 15.18 73.83 17.51 75.4 15.58 72.94 15.18"/></g></g></svg>