<?xml version="1.0" encoding="UTF-8"?><svg id="a" xmlns="http://www.w3.org/2000/svg" viewBox="0 0 100 100"><defs><style>.b{stroke:#1a1a1a;stroke-width:5px;}.b,.c{fill:none;stroke-miterlimit:10;}.c{stroke:#ccc;stroke-width:.25px;}.d{fill:#ccc;}</style></defs><path class="b" d="M28.54,22.81h45.1s-2.81,30.51-58.47,37.99"/><line class="b" x1="50" y1="10.57" x2="50" y2="22.81"/><path class="b" d="M58.93,51.16s14.96,2.16,21.6,9.64"/><line class="b" x1="50" y1="55.98" x2="50" y2="84.36"/><path class="d" d="M44.45,8.04v-.49h1v-3.09l-1,.71v-.61l1.02-.72h.57v3.71h.82v.49h-2.4Z"/><g><line class="d" x1="50.03" y1="4.54" x2="49.97" y2="7.57"/><g><line class="c" x1="50.03" y1="4.54" x2="50.01" y2="5.77"/><polygon class="d" points="48.77 5.38 49.97 7.57 51.26 5.43 48.77 5.38"/></g></g><path class="d" d="M18.66,24.82v-.46l1.68-1.46c.13-.11,.23-.21,.32-.29s.15-.17,.2-.25,.08-.16,.1-.23c.02-.08,.03-.16,.03-.25,0-.24-.07-.44-.21-.59-.14-.15-.33-.23-.58-.23-.29,0-.52,.08-.67,.24s-.23,.38-.23,.67h-.57c0-.2,.04-.39,.11-.57,.07-.17,.17-.32,.3-.45,.13-.12,.29-.22,.47-.29,.18-.07,.38-.11,.6-.11s.4,.03,.57,.1c.17,.07,.31,.16,.43,.28s.21,.26,.26,.42c.06,.16,.09,.34,.09,.53,0,.14-.02,.28-.07,.4s-.11,.24-.18,.35-.17,.22-.28,.33c-.11,.11-.23,.22-.36,.33l-1.26,1.04h2.21v.49h-2.94Z"/><g><line class="d" x1="23.4" y1="22.81" x2="26.42" y2="22.87"/><g><line class="c" x1="23.4" y1="22.81" x2="24.63" y2="22.83"/><polygon class="d" points="24.23 24.07 26.42 22.87 24.29 21.58 24.23 24.07"/></g></g><path class="d" d="M42.18,61.87c-.23,0-.43-.03-.61-.09-.18-.06-.33-.15-.45-.25s-.22-.24-.28-.38c-.06-.15-.1-.3-.1-.47h.57c0,.2,.07,.37,.21,.5,.14,.13,.36,.2,.67,.2s.53-.07,.67-.2c.14-.13,.21-.31,.21-.53,0-.23-.07-.41-.21-.55-.14-.14-.36-.2-.66-.2h-.45v-.48h.45c.29,0,.5-.06,.62-.18s.19-.29,.19-.51-.06-.37-.18-.49-.33-.18-.63-.18-.5,.06-.62,.18-.19,.27-.19,.45h-.56c0-.16,.03-.3,.09-.44,.06-.14,.15-.26,.27-.36,.12-.1,.26-.18,.43-.24,.17-.06,.37-.09,.59-.09s.42,.03,.59,.09c.17,.06,.31,.14,.43,.24,.12,.1,.21,.22,.27,.35,.06,.13,.09,.28,.09,.43,0,.24-.06,.44-.19,.61-.13,.17-.3,.28-.53,.35,.24,.08,.43,.2,.57,.37,.14,.17,.21,.41,.21,.71,0,.16-.03,.31-.1,.45-.06,.14-.16,.27-.28,.37s-.27,.19-.45,.25c-.18,.06-.38,.09-.61,.09Z"/><g><line class="d" x1="46.15" y1="58.31" x2="46.08" y2="61.33"/><g><line class="c" x1="46.15" y1="58.31" x2="46.12" y2="59.54"/><polygon class="d" points="44.88 59.15 46.08 61.33 47.38 59.2 44.88 59.15"/></g></g><path class="d" d="M65.85,50v-1.02h-2.14v-.43l2.08-2.76h.62v2.7h.54v.49h-.54v1.02h-.57Zm-1.54-1.51h1.54v-2.04l-1.54,2.04Z"/><g><line class="d" x1="68.01" y1="49.48" x2="70.99" y2="50"/><g><line class="c" x1="68.01" y1="49.48" x2="69.22" y2="49.69"/><polygon class="d" points="68.65 50.85 70.99 50 69.08 48.4 68.65 50.85"/></g></g></svg>