<?xml version="1.0" encoding="UTF-8"?><svg id="a" xmlns="http://www.w3.org/2000/svg" viewBox="0 0 100 100"><defs><style>.b{stroke:#1a1a1a;stroke-width:5px;}.b,.c{fill:none;stroke-miterlimit:10;}.c{stroke:#ccc;stroke-width:.25px;}.d{fill:#ccc;}</style></defs><path class="b" d="M17.62,26.84s16.09,4.01,20.49,13.18"/><path class="b" d="M23.03,79.83c45.54,1.14,61.56-50.12,61.56-50.12"/><path class="d" d="M8.46,27.05v-.49h1v-3.09l-1,.71v-.61l1.02-.72h.57v3.71h.82v.49h-2.4Z"/><g><line class="d" x1="13.04" y1="25.51" x2="15.96" y2="26.28"/><g><line class="c" x1="13.04" y1="25.51" x2="14.23" y2="25.83"/><polygon class="d" points="13.56 26.94 15.96 26.28 14.19 24.53 13.56 26.94"/></g></g><path class="d" d="M11.98,81.78v-.46l1.68-1.46c.13-.11,.23-.21,.32-.29s.15-.17,.2-.25,.08-.16,.1-.23c.02-.08,.03-.16,.03-.25,0-.24-.07-.44-.21-.59-.14-.15-.33-.23-.58-.23-.29,0-.52,.08-.67,.24s-.23,.38-.23,.67h-.57c0-.2,.04-.39,.11-.57,.07-.17,.17-.32,.3-.45,.13-.12,.29-.22,.47-.29,.18-.07,.38-.11,.6-.11s.4,.03,.57,.1c.17,.07,.31,.16,.43,.28s.21,.26,.26,.42c.06,.16,.09,.34,.09,.53,0,.14-.02,.28-.07,.4s-.11,.24-.18,.35-.17,.22-.28,.33c-.11,.11-.23,.22-.36,.33l-1.26,1.04h2.21v.49h-2.94Z"/><g><line class="d" x1="17.43" y1="79.73" x2="20.45" y2="79.87"/><g><line class="c" x1="17.43" y1="79.73" x2="18.66" y2="79.79"/><polygon class="d" points="18.24 81.01 20.45 79.87 18.36 78.52 18.24 81.01"/></g></g></svg>