<?xml version="1.0" encoding="utf-8"?>
<!-- Generator: Adobe Illustrator 26.1.0, SVG Export Plug-In . SVG Version: 6.00 Build 0)  -->
<svg version="1.1" id="a" xmlns="http://www.w3.org/2000/svg" xmlns:xlink="http://www.w3.org/1999/xlink" x="0px" y="0px"
	 viewBox="0 0 100 100" style="enable-background:new 0 0 100 100;" xml:space="preserve">
<style type="text/css">
	.st0{fill:none;stroke:#1A1A1A;stroke-width:5;stroke-miterlimit:10;}
	.st1{fill:#CCCCCC;}
</style>
<line class="st0" x1="19.1" y1="24.6" x2="73.1" y2="24.6"/>
<line class="st0" x1="14.8" y1="46.4" x2="91.2" y2="46.4"/>
<path class="st0" d="M47.6,24.6v45.9c0,2.8,2.2,5,4.8,5h31.7"/>
<g>
	<path class="st1" d="M9.5,26.6v-0.5h1V23l-1,0.7v-0.6l1-0.7h0.6v3.7h0.8v0.5H9.5z"/>
</g>
<g>
	<g>
		<line class="st1" x1="13.6" y1="24.6" x2="16.6" y2="24.5"/>
	</g>
	<g>
		<g>
			
				<rect x="13.6" y="24.5" transform="matrix(0.9997 -2.343106e-02 2.343106e-02 0.9997 -0.572 0.3396)" class="st1" width="1.2" height="0.3"/>
		</g>
		<g>
			<g>
				<polygon class="st1" points="14.5,25.8 16.6,24.5 14.4,23.3 				"/>
			</g>
		</g>
	</g>
</g>
<g>
	<path class="st1" d="M4.7,48.5V48l1.7-1.5c0.1-0.1,0.2-0.2,0.3-0.3c0.1-0.1,0.1-0.2,0.2-0.2c0-0.1,0.1-0.2,0.1-0.2s0-0.2,0-0.2
		c0-0.2-0.1-0.4-0.2-0.6c-0.1-0.2-0.3-0.2-0.6-0.2c-0.3,0-0.5,0.1-0.7,0.2s-0.2,0.4-0.2,0.7H4.7c0-0.2,0-0.4,0.1-0.6
		c0.1-0.2,0.2-0.3,0.3-0.4c0.1-0.1,0.3-0.2,0.5-0.3c0.2-0.1,0.4-0.1,0.6-0.1c0.2,0,0.4,0,0.6,0.1c0.2,0.1,0.3,0.2,0.4,0.3
		s0.2,0.3,0.3,0.4s0.1,0.3,0.1,0.5c0,0.1,0,0.3-0.1,0.4c0,0.1-0.1,0.2-0.2,0.4c-0.1,0.1-0.2,0.2-0.3,0.3c-0.1,0.1-0.2,0.2-0.4,0.3
		l-1.3,1h2.2v0.5H4.7z"/>
</g>
<g>
	<g>
		<line class="st1" x1="9.2" y1="46.5" x2="12.2" y2="46.4"/>
	</g>
	<g>
		<g>
			
				<rect x="9.2" y="46.3" transform="matrix(0.9997 -2.343106e-02 2.343106e-02 0.9997 -1.0862 0.2418)" class="st1" width="1.2" height="0.3"/>
		</g>
		<g>
			<g>
				<polygon class="st1" points="10.1,47.7 12.2,46.4 10,45.2 				"/>
			</g>
		</g>
	</g>
</g>
<g>
	<path class="st1" d="M47.5,15.6c-0.2,0-0.4,0-0.6-0.1s-0.3-0.1-0.5-0.3c-0.1-0.1-0.2-0.2-0.3-0.4c-0.1-0.1-0.1-0.3-0.1-0.5h0.6
		c0,0.2,0.1,0.4,0.2,0.5c0.1,0.1,0.4,0.2,0.7,0.2c0.3,0,0.5-0.1,0.7-0.2c0.1-0.1,0.2-0.3,0.2-0.5c0-0.2-0.1-0.4-0.2-0.5
		s-0.4-0.2-0.7-0.2h-0.5v-0.5h0.5c0.3,0,0.5-0.1,0.6-0.2c0.1-0.1,0.2-0.3,0.2-0.5c0-0.2-0.1-0.4-0.2-0.5c-0.1-0.1-0.3-0.2-0.6-0.2
		c-0.3,0-0.5,0.1-0.6,0.2c-0.1,0.1-0.2,0.3-0.2,0.5h-0.6c0-0.2,0-0.3,0.1-0.4c0.1-0.1,0.2-0.3,0.3-0.4s0.3-0.2,0.4-0.2
		c0.2-0.1,0.4-0.1,0.6-0.1c0.2,0,0.4,0,0.6,0.1c0.2,0.1,0.3,0.1,0.4,0.2s0.2,0.2,0.3,0.4s0.1,0.3,0.1,0.4c0,0.2-0.1,0.4-0.2,0.6
		c-0.1,0.2-0.3,0.3-0.5,0.4c0.2,0.1,0.4,0.2,0.6,0.4s0.2,0.4,0.2,0.7c0,0.2,0,0.3-0.1,0.5c-0.1,0.1-0.2,0.3-0.3,0.4
		c-0.1,0.1-0.3,0.2-0.5,0.3S47.8,15.6,47.5,15.6z"/>
</g>
<g>
	<g>
		<line class="st1" x1="47.5" y1="17.4" x2="47.6" y2="20.5"/>
	</g>
	<g>
		<g>
			
				<rect x="47.4" y="17.4" transform="matrix(0.9997 -2.342487e-02 2.342487e-02 0.9997 -0.4097 1.1188)" class="st1" width="0.3" height="1.2"/>
		</g>
		<g>
			<g>
				<polygon class="st1" points="46.3,18.3 47.6,20.5 48.8,18.3 				"/>
			</g>
		</g>
	</g>
</g>
</svg>
