<?xml version="1.0" encoding="UTF-8"?><svg id="a" xmlns="http://www.w3.org/2000/svg" viewBox="0 0 100 100"><defs><style>.b{stroke:#1a1a1a;stroke-width:5px;}.b,.c{fill:none;stroke-miterlimit:10;}.c{stroke:#ccc;stroke-width:.25px;}.d{fill:#ccc;}</style></defs><path class="b" d="M41.28,20.22s22.28,1.06,43.3,18.95"/><path class="b" d="M37.57,37.54s22.28,1.06,43.3,18.95"/><path class="b" d="M23.52,53.56s30.15,1.34,58.53,25.26"/><path class="d" d="M30.92,20.98v-.49h1v-3.09l-1,.71v-.61l1.02-.72h.57v3.71h.82v.49h-2.4Z"/><g><line class="d" x1="34.95" y1="19.47" x2="37.94" y2="19.93"/><g><line class="c" x1="34.95" y1="19.47" x2="36.17" y2="19.66"/><polygon class="d" points="35.62 20.83 37.94 19.93 36 18.37 35.62 20.83"/></g></g><path class="d" d="M27.56,38.29v-.46l1.68-1.46c.13-.11,.23-.21,.32-.29,.08-.09,.15-.17,.2-.25,.05-.08,.08-.16,.1-.23,.02-.08,.03-.16,.03-.25,0-.24-.07-.44-.21-.59-.14-.15-.33-.23-.58-.23-.29,0-.52,.08-.67,.24s-.23,.38-.23,.67h-.56c0-.2,.04-.39,.11-.57,.07-.17,.17-.32,.3-.45,.13-.12,.29-.22,.47-.29,.18-.07,.38-.11,.6-.11s.4,.03,.57,.1,.31,.16,.43,.28,.2,.26,.26,.42c.06,.16,.09,.34,.09,.53,0,.14-.02,.28-.07,.4-.04,.12-.1,.24-.18,.35-.08,.11-.17,.22-.28,.33-.11,.11-.23,.21-.36,.33l-1.26,1.04h2.21v.49h-2.95Z"/><g><line class="d" x1="31.96" y1="36.79" x2="34.95" y2="37.25"/><g><line class="c" x1="31.96" y1="36.79" x2="33.18" y2="36.97"/><polygon class="d" points="32.63 38.15 34.95 37.25 33.01 35.69 32.63 38.15"/></g></g><path class="d" d="M16.01,54.75c-.23,0-.43-.03-.61-.09-.18-.06-.33-.15-.45-.26-.12-.11-.22-.24-.28-.38-.06-.15-.1-.3-.1-.47h.56c0,.21,.07,.37,.21,.5,.14,.13,.36,.2,.67,.2s.53-.07,.67-.2c.14-.13,.21-.31,.21-.53,0-.23-.07-.41-.21-.55-.14-.14-.36-.21-.66-.21h-.45v-.48h.45c.29,0,.5-.06,.62-.18,.13-.12,.19-.29,.19-.51s-.06-.37-.18-.49c-.12-.12-.33-.18-.63-.18s-.5,.06-.62,.18c-.13,.12-.19,.27-.19,.45h-.57c0-.16,.03-.3,.09-.45,.06-.14,.15-.26,.27-.36s.26-.18,.43-.24c.17-.06,.37-.09,.58-.09s.42,.03,.59,.09c.17,.06,.31,.14,.43,.24s.21,.22,.27,.35c.06,.13,.09,.28,.09,.43,0,.24-.06,.44-.19,.61s-.3,.28-.53,.35c.24,.08,.43,.2,.57,.37,.14,.17,.21,.41,.21,.71,0,.16-.03,.31-.1,.45-.06,.14-.16,.27-.28,.37s-.27,.19-.45,.25c-.18,.06-.38,.09-.61,.09Z"/><g><line class="d" x1="18.96" y1="53.18" x2="21.95" y2="53.64"/><g><line class="c" x1="18.96" y1="53.18" x2="20.18" y2="53.37"/><polygon class="d" points="19.63 54.54 21.95 53.64 20.01 52.08 19.63 54.54"/></g></g></svg>