<?xml version="1.0" encoding="UTF-8"?><svg id="a" xmlns="http://www.w3.org/2000/svg" viewBox="0 0 100 100"><defs><style>.b{stroke:#1a1a1a;stroke-width:5px;}.b,.c{fill:none;stroke-miterlimit:10;}.c{stroke:#ccc;stroke-width:.25px;}.d{fill:#ccc;}</style></defs><path class="d" d="M18.29,27.49v-.49h1v-3.09l-1,.71v-.61l1.02-.72h.56v3.71h.82v.49h-2.4Z"/><g><line class="d" x1="17.91" y1="30.97" x2="20.93" y2="31"/><g><line class="c" x1="17.91" y1="30.97" x2="19.14" y2="30.98"/><polygon class="d" points="18.76 32.22 20.93 31 18.79 29.73 18.76 32.22"/></g></g><path class="d" d="M4.25,66.81v-.46l1.68-1.46c.13-.11,.23-.21,.32-.29s.15-.17,.2-.25,.08-.16,.1-.23c.02-.08,.03-.16,.03-.25,0-.24-.07-.44-.21-.59-.14-.15-.33-.23-.58-.23-.29,0-.52,.08-.67,.24s-.23,.38-.23,.67h-.57c0-.2,.04-.39,.11-.57,.07-.17,.17-.32,.3-.45,.13-.12,.29-.22,.47-.29,.18-.07,.38-.11,.6-.11s.4,.03,.57,.1c.17,.07,.31,.16,.43,.28s.21,.26,.26,.42c.06,.16,.09,.34,.09,.53,0,.14-.02,.28-.07,.4s-.11,.24-.18,.35-.17,.22-.28,.33c-.11,.11-.23,.22-.36,.33l-1.26,1.04h2.21v.49h-2.94Z"/><g><line class="d" x1="4.24" y1="70.29" x2="7.26" y2="70.32"/><g><line class="c" x1="4.24" y1="70.29" x2="5.47" y2="70.3"/><polygon class="d" points="5.09 71.54 7.26 70.32 5.12 69.05 5.09 71.54"/></g></g><line class="b" x1="24.4" y1="31" x2="75.81" y2="31"/><line class="b" x1="8.96" y1="70.32" x2="91.26" y2="70.32"/></svg>