<?xml version="1.0" encoding="UTF-8"?><svg id="a" xmlns="http://www.w3.org/2000/svg" viewBox="0 0 100 100"><defs><style>.b{stroke:#1a1a1a;stroke-width:5px;}.b,.c{fill:none;stroke-miterlimit:10;}.c{stroke:#ccc;stroke-width:.25px;}.d{fill:#ccc;}</style></defs><line class="b" x1="50" y1="10.2" x2="50" y2="19.51"/><path class="b" d="M22.78,38.4V19.51h59.87c1.09,27.78-9.06,52.32-26.17,62.37-8.86,5.2-17.68,5.4-23.67,4.7"/><path class="d" d="M48.7,5.09v-.49h1V1.51l-1,.71v-.61l1.02-.72h.57v3.71h.82v.49h-2.4Z"/><g><line class="d" x1="49.96" y1="6.15" x2="50.04" y2="9.18"/><g><line class="c" x1="49.96" y1="6.15" x2="49.99" y2="7.38"/><polygon class="d" points="48.74 7.05 50.04 9.18 51.23 6.99 48.74 7.05"/></g></g><path class="d" d="M21.17,12.3v-.46l1.68-1.46c.13-.11,.23-.21,.32-.29,.08-.09,.15-.17,.2-.25,.05-.08,.08-.16,.1-.23,.02-.08,.03-.16,.03-.25,0-.24-.07-.44-.21-.59-.14-.15-.33-.23-.58-.23-.29,0-.52,.08-.67,.24s-.23,.38-.23,.67h-.56c0-.2,.04-.39,.11-.57,.07-.17,.17-.32,.3-.45,.13-.12,.29-.22,.47-.29,.18-.07,.38-.11,.6-.11s.4,.03,.57,.1c.17,.07,.31,.16,.43,.28s.2,.26,.26,.42c.06,.16,.09,.34,.09,.53,0,.14-.02,.28-.07,.4-.04,.12-.1,.24-.18,.35-.08,.11-.17,.22-.28,.33-.11,.11-.23,.22-.36,.33l-1.26,1.04h2.21v.49h-2.95Z"/><g><line class="d" x1="22.81" y1="13.36" x2="22.88" y2="16.38"/><g><line class="c" x1="22.81" y1="13.36" x2="22.84" y2="14.59"/><polygon class="d" points="21.58 14.25 22.88 16.38 24.07 14.2 21.58 14.25"/></g></g><path class="d" d="M13.77,21.64c-.23,0-.43-.03-.61-.09-.18-.06-.33-.15-.45-.26-.12-.11-.22-.24-.28-.38-.06-.15-.1-.3-.1-.47h.57c0,.2,.07,.37,.21,.5,.14,.13,.36,.2,.67,.2s.53-.07,.67-.2,.21-.31,.21-.53c0-.23-.07-.41-.21-.55-.14-.14-.36-.2-.66-.2h-.45v-.48h.45c.29,0,.5-.06,.62-.18s.19-.29,.19-.51-.06-.37-.18-.49-.33-.18-.63-.18-.5,.06-.62,.18c-.13,.12-.19,.27-.19,.45h-.56c0-.16,.03-.3,.09-.44s.15-.26,.27-.36,.26-.18,.43-.24,.37-.09,.59-.09,.42,.03,.59,.09,.31,.14,.43,.24,.21,.22,.27,.35c.06,.13,.09,.28,.09,.43,0,.24-.06,.44-.19,.61-.13,.17-.3,.28-.53,.35,.24,.08,.43,.2,.57,.37,.14,.17,.21,.41,.21,.71,0,.16-.03,.31-.1,.45-.06,.14-.16,.27-.28,.37-.12,.11-.27,.19-.45,.25-.18,.06-.38,.09-.61,.09Z"/><g><line class="d" x1="16.61" y1="19.55" x2="19.63" y2="19.48"/><g><line class="c" x1="16.61" y1="19.55" x2="17.84" y2="19.52"/><polygon class="d" points="17.5 20.77 19.63 19.48 17.45 18.28 17.5 20.77"/></g></g></svg>