<?xml version="1.0" encoding="UTF-8"?><svg id="a" xmlns="http://www.w3.org/2000/svg" viewBox="0 0 100 100"><defs><style>.b{stroke:#1a1a1a;stroke-width:5px;}.b,.c{fill:none;stroke-miterlimit:10;}.c{stroke:#ccc;stroke-width:.25px;}.d{fill:#ccc;}</style></defs><path class="b" d="M18.66,35.17l61.28-13.62s-4.44,16-23.13,26.89"/><line class="b" x1="31.19" y1="18.49" x2="50.94" y2="83.17"/><path class="d" d="M9.42,39.05v-.49h1v-3.09l-1,.71v-.61l1.02-.72h.56v3.71h.82v.49h-2.4Z"/><g><line class="d" x1="13.81" y1="36.61" x2="16.69" y2="35.69"/><g><line class="c" x1="13.81" y1="36.61" x2="14.98" y2="36.23"/><polygon class="d" points="15.01 37.53 16.69 35.69 14.26 35.16 15.01 37.53"/></g></g><path class="d" d="M27.16,10.81v-.46l1.68-1.46c.13-.11,.23-.21,.32-.29,.08-.09,.15-.17,.2-.25,.05-.08,.08-.16,.1-.23s.03-.16,.03-.25c0-.24-.07-.44-.21-.59s-.33-.23-.58-.23c-.29,0-.52,.08-.67,.24s-.23,.38-.23,.67h-.56c0-.2,.04-.39,.11-.57,.07-.17,.17-.32,.3-.45,.13-.12,.29-.22,.47-.29s.38-.11,.6-.11,.4,.03,.57,.1c.17,.07,.31,.16,.43,.28s.2,.26,.26,.42,.09,.34,.09,.53c0,.14-.02,.28-.07,.4-.04,.12-.1,.24-.18,.35-.08,.11-.17,.22-.28,.33-.11,.11-.23,.21-.36,.33l-1.26,1.04h2.21v.49h-2.94Z"/><g><line class="d" x1="29.45" y1="12.85" x2="30.37" y2="15.73"/><g><line class="c" x1="29.45" y1="12.85" x2="29.82" y2="14.02"/><polygon class="d" points="28.52 14.05 30.37 15.73 30.9 13.29 28.52 14.05"/></g></g></svg>