<?xml version="1.0" encoding="UTF-8"?><svg id="a" xmlns="http://www.w3.org/2000/svg" viewBox="0 0 100 100"><defs><style>.b{stroke:#1a1a1a;stroke-width:5px;}.b,.c{fill:none;stroke-miterlimit:10;}.c{stroke:#ccc;stroke-width:.25px;}.d{fill:#ccc;}</style></defs><path class="b" d="M37.09,17.8s.42,9.14-8,18.53c-8.43,9.39-11.6,9.67-11.6,9.67"/><path class="d" d="M35.77,10.6v-.49h1v-3.09l-1,.71v-.61l1.02-.72h.57v3.71h.82v.49h-2.4Z"/><g><line class="d" x1="36.9" y1="12.83" x2="37.08" y2="15.85"/><g><line class="c" x1="36.9" y1="12.83" x2="36.97" y2="14.06"/><polygon class="d" points="35.71 13.77 37.08 15.85 38.19 13.62 35.71 13.77"/></g></g><path class="d" d="M21.79,31.9v-.46l1.68-1.46c.13-.11,.23-.21,.32-.29s.15-.17,.2-.25c.05-.08,.08-.16,.1-.23,.02-.08,.03-.16,.03-.25,0-.24-.07-.44-.21-.59-.14-.15-.33-.23-.58-.23-.29,0-.52,.08-.67,.24s-.23,.38-.23,.67h-.56c0-.2,.04-.39,.11-.57,.07-.17,.17-.32,.3-.45,.13-.12,.29-.22,.47-.29,.18-.07,.38-.11,.6-.11s.4,.03,.57,.1c.17,.07,.31,.16,.43,.28s.2,.26,.26,.42c.06,.16,.09,.34,.09,.53,0,.14-.02,.28-.07,.4s-.1,.24-.18,.35-.17,.22-.28,.33c-.11,.11-.23,.22-.36,.33l-1.26,1.04h2.21v.49h-2.95Z"/><g><line class="d" x1="26.75" y1="29.88" x2="29.78" y2="29.91"/><g><line class="c" x1="26.75" y1="29.88" x2="27.98" y2="29.89"/><polygon class="d" points="27.61 31.13 29.78 29.91 27.63 28.64 27.61 31.13"/></g></g><path class="d" d="M58.89,22.14c-.23,0-.43-.03-.61-.09-.18-.06-.33-.15-.45-.25s-.22-.24-.28-.38c-.06-.15-.1-.3-.1-.47h.57c0,.2,.07,.37,.21,.5,.14,.13,.36,.2,.67,.2s.53-.07,.67-.2c.14-.13,.21-.31,.21-.53,0-.23-.07-.41-.21-.55-.14-.14-.36-.2-.66-.2h-.45v-.48h.45c.29,0,.5-.06,.62-.18s.19-.29,.19-.51-.06-.37-.18-.49-.33-.18-.63-.18-.5,.06-.62,.18-.19,.27-.19,.45h-.56c0-.16,.03-.3,.09-.44,.06-.14,.15-.26,.27-.36,.12-.1,.26-.18,.43-.24,.17-.06,.37-.09,.59-.09s.42,.03,.59,.09c.17,.06,.31,.14,.43,.24,.12,.1,.21,.22,.27,.35,.06,.13,.09,.28,.09,.43,0,.24-.06,.44-.19,.61-.13,.17-.3,.28-.53,.35,.24,.08,.43,.2,.57,.37,.14,.17,.21,.41,.21,.71,0,.16-.03,.31-.1,.45-.06,.14-.16,.27-.28,.37s-.27,.19-.45,.25c-.18,.06-.38,.09-.61,.09Z"/><g><line class="d" x1="58.96" y1="24.25" x2="58.93" y2="27.27"/><g><line class="c" x1="58.96" y1="24.25" x2="58.95" y2="25.48"/><polygon class="d" points="57.71 25.1 58.93 27.27 60.2 25.13 57.71 25.1"/></g></g><line class="b" x1="33.66" y1="29.89" x2="82.52" y2="29.89"/><path class="b" d="M58.96,30.37s5.61,49.45-33.53,48.87"/></svg>