<?xml version="1.0" encoding="UTF-8"?><svg id="a" xmlns="http://www.w3.org/2000/svg" viewBox="0 0 100 100"><defs><style>.b{stroke:#1a1a1a;stroke-width:5px;}.b,.c{fill:none;stroke-miterlimit:10;}.c{stroke:#ccc;stroke-width:.25px;}.d{fill:#ccc;}</style></defs><path class="d" d="M50.04,9.47v-.46l1.68-1.46c.13-.11,.23-.21,.32-.29s.15-.17,.2-.25c.05-.08,.08-.16,.1-.23,.02-.08,.03-.16,.03-.25,0-.24-.07-.44-.21-.59-.14-.15-.33-.23-.58-.23-.29,0-.52,.08-.67,.24s-.23,.38-.23,.67h-.56c0-.2,.04-.39,.11-.57,.07-.17,.17-.32,.3-.45s.29-.22,.47-.29c.18-.07,.38-.11,.6-.11s.4,.03,.57,.1c.17,.07,.31,.16,.43,.28s.2,.26,.26,.42c.06,.16,.09,.34,.09,.53,0,.14-.02,.28-.07,.4s-.1,.24-.18,.35-.17,.22-.28,.33c-.11,.11-.23,.22-.36,.33l-1.26,1.04h2.21v.49h-2.95Z"/><g><line class="d" x1="51.54" y1="12.03" x2="51.51" y2="15.05"/><g><line class="c" x1="51.54" y1="12.03" x2="51.53" y2="13.26"/><polygon class="d" points="50.28 12.88 51.51 15.05 52.78 12.91 50.28 12.88"/></g></g><path class="d" d="M16.18,32.96v-.49h1v-3.09l-1,.71v-.61l1.02-.72h.56v3.71h.82v.49h-2.4Z"/><g><line class="d" x1="21.33" y1="30.98" x2="24.36" y2="31.02"/><g><line class="c" x1="21.33" y1="30.98" x2="22.56" y2="31"/><polygon class="d" points="22.19 32.24 24.36 31.02 22.21 29.75 22.19 32.24"/></g></g><line class="b" x1="25.81" y1="31" x2="77.21" y2="31"/><path class="b" d="M51.51,16.7v47.74s1.45,16.09-23.83,15.32"/></svg>