<?xml version="1.0" encoding="UTF-8"?><svg id="a" xmlns="http://www.w3.org/2000/svg" viewBox="0 0 100 100"><defs><style>.b{stroke:#1a1a1a;stroke-width:5px;}.b,.c{fill:none;stroke-miterlimit:10;}.c{stroke:#ccc;stroke-width:.25px;}.d{fill:#ccc;}</style></defs><polyline class="b" points="21.04 23.09 83.09 23.09 63.43 41.21"/><path class="b" d="M53.81,33.09c.38,7.59,.04,23.39-9.62,38.85-3.26,5.22-6.89,9.3-10.21,12.43"/><path class="d" d="M11.53,25.36v-.49h1v-3.09l-1,.71v-.61l1.02-.72h.56v3.71h.82v.49h-2.4Z"/><g><line class="d" x1="16.13" y1="23.13" x2="19.15" y2="23.04"/><g><line class="c" x1="16.13" y1="23.13" x2="17.36" y2="23.09"/><polygon class="d" points="17.03 24.35 19.15 23.04 16.95 21.86 17.03 24.35"/></g></g><path class="d" d="M46.29,32.15v-.46l1.68-1.46c.13-.11,.23-.21,.32-.29,.08-.09,.15-.17,.2-.25,.05-.08,.08-.16,.1-.23s.03-.16,.03-.25c0-.24-.07-.44-.21-.59-.14-.15-.33-.23-.58-.23-.29,0-.52,.08-.67,.24s-.23,.38-.23,.67h-.56c0-.2,.04-.39,.11-.57,.07-.17,.17-.32,.3-.45,.13-.12,.29-.22,.47-.29,.18-.07,.38-.11,.6-.11s.4,.03,.57,.1c.17,.07,.31,.16,.43,.28s.2,.26,.26,.42,.09,.34,.09,.53c0,.14-.02,.28-.07,.4-.04,.12-.1,.24-.18,.35-.08,.11-.17,.22-.28,.33-.11,.11-.23,.22-.36,.33l-1.26,1.04h2.21v.49h-2.94Z"/><g><line class="d" x1="53.71" y1="28.92" x2="53.9" y2="31.94"/><g><line class="c" x1="53.71" y1="28.92" x2="53.79" y2="30.15"/><polygon class="d" points="52.52 29.86 53.9 31.94 55.01 29.7 52.52 29.86"/></g></g></svg>