<?xml version="1.0" encoding="UTF-8"?><svg id="a" xmlns="http://www.w3.org/2000/svg" viewBox="0 0 100 100"><defs><style>.b{stroke:#1a1a1a;stroke-width:5px;}.b,.c{fill:none;stroke-miterlimit:10;}.c{stroke:#ccc;stroke-width:.25px;}.d{fill:#ccc;}</style></defs><path class="b" d="M48.05,15.06s.42,9.14-8,18.53c-8.43,9.39-11.6,9.67-11.6,9.67"/><path class="b" d="M44.7,25.83h27.92c-.19,30.24-12.27,42.6-16.14,46.08-6.8,6.12-22.14,13.07-22.14,13.07"/><path class="d" d="M46.74,9.86v-.49h1v-3.09l-1,.71v-.61l1.02-.72h.57v3.71h.82v.49h-2.4Z"/><g><line class="d" x1="47.86" y1="11.09" x2="48.05" y2="14.11"/><g><line class="c" x1="47.86" y1="11.09" x2="47.94" y2="12.32"/><polygon class="d" points="46.67 12.03 48.05 14.11 49.16 11.88 46.67 12.03"/></g></g><path class="d" d="M33.19,27.15v-.46l1.68-1.46c.13-.11,.23-.21,.32-.29,.08-.09,.15-.17,.2-.25s.08-.16,.1-.23c.02-.08,.03-.16,.03-.25,0-.24-.07-.44-.21-.59-.14-.15-.33-.23-.58-.23-.29,0-.52,.08-.67,.24s-.23,.38-.23,.67h-.57c0-.2,.04-.39,.11-.57,.07-.17,.17-.32,.3-.45,.13-.12,.29-.22,.47-.29,.18-.07,.38-.11,.6-.11s.4,.03,.57,.1c.17,.07,.31,.16,.43,.28s.21,.26,.26,.42c.06,.16,.09,.34,.09,.53,0,.14-.02,.28-.07,.4-.04,.12-.11,.24-.18,.35-.08,.11-.17,.22-.28,.33s-.23,.21-.36,.33l-1.26,1.04h2.21v.49h-2.94Z"/><g><line class="d" x1="38.53" y1="25.37" x2="41.55" y2="25.31"/><g><line class="c" x1="38.53" y1="25.37" x2="39.76" y2="25.35"/><polygon class="d" points="39.42 26.6 41.55 25.31 39.37 24.11 39.42 26.6"/></g></g></svg>