<?xml version="1.0" encoding="UTF-8"?><svg id="a" xmlns="http://www.w3.org/2000/svg" viewBox="0 0 100 100"><defs><style>.b{stroke:#1a1a1a;stroke-width:5px;}.b,.c{fill:none;stroke-miterlimit:10;}.c{stroke:#ccc;stroke-width:.25px;}.d{fill:#ccc;}</style></defs><path class="b" d="M78.34,15.85C57.86,52.79,21.66,54.66,21.66,54.66"/><line class="b" x1="60.98" y1="82.06" x2="60.98" y2="37.92"/><path class="d" d="M81.14,10.2v-.49h1v-3.09l-1,.71v-.61l1.02-.72h.56v3.71h.82v.49h-2.4Z"/><g><line class="d" x1="80.7" y1="11.85" x2="79.23" y2="14.49"/><g><line class="c" x1="80.7" y1="11.85" x2="80.1" y2="12.92"/><polygon class="d" points="79.19 12 79.23 14.49 81.37 13.21 79.19 12"/></g></g><path class="d" d="M58.61,29.24v-.46l1.68-1.46c.13-.11,.23-.21,.32-.29,.08-.09,.15-.17,.2-.25,.05-.08,.08-.16,.1-.23,.02-.08,.03-.16,.03-.25,0-.24-.07-.44-.21-.59-.14-.15-.33-.23-.58-.23-.29,0-.52,.08-.67,.24s-.23,.38-.23,.67h-.56c0-.2,.04-.39,.11-.57,.07-.17,.17-.32,.3-.45,.13-.12,.29-.22,.47-.29,.18-.07,.38-.11,.6-.11s.4,.03,.57,.1c.17,.07,.31,.16,.43,.28s.2,.26,.26,.42c.06,.16,.09,.34,.09,.53,0,.14-.02,.28-.07,.4-.04,.12-.1,.24-.18,.35-.08,.11-.17,.22-.28,.33-.11,.11-.23,.22-.36,.33l-1.26,1.04h2.21v.49h-2.95Z"/><g><line class="d" x1="60.11" y1="31.31" x2="60.41" y2="34.32"/><g><line class="c" x1="60.11" y1="31.31" x2="60.23" y2="32.54"/><polygon class="d" points="58.96 32.3 60.41 34.32 61.44 32.05 58.96 32.3"/></g></g></svg>