<?xml version="1.0" encoding="UTF-8"?><svg id="a" xmlns="http://www.w3.org/2000/svg" viewBox="0 0 100 100"><defs><style>.b{stroke:#1a1a1a;stroke-width:5px;}.b,.c{fill:none;stroke-miterlimit:10;}.c{stroke:#ccc;stroke-width:.25px;}.d{fill:#ccc;}</style></defs><line class="b" x1="24.15" y1="31.72" x2="81.85" y2="31.72"/><polyline class="b" points="66.02 20.38 66.02 76.45 56.32 72.28"/><path class="b" d="M66.02,31.72c-13.32,18.5-23.89,33.24-44.94,42.55"/><path class="d" d="M12.94,33.84v-.49h1v-3.09l-1,.71v-.61l1.02-.72h.56v3.71h.82v.49h-2.4Z"/><g><line class="d" x1="18.06" y1="31.72" x2="21.08" y2="31.76"/><g><line class="c" x1="18.06" y1="31.72" x2="19.29" y2="31.73"/><polygon class="d" points="18.91 32.98 21.08 31.76 18.94 30.48 18.91 32.98"/></g></g><path class="d" d="M64.39,14.14v-.46l1.68-1.46c.13-.11,.23-.21,.32-.29,.08-.09,.15-.17,.2-.25,.05-.08,.08-.16,.1-.23,.02-.08,.03-.16,.03-.25,0-.24-.07-.44-.21-.59-.14-.15-.33-.23-.58-.23-.29,0-.52,.08-.67,.24s-.23,.38-.23,.67h-.56c0-.2,.04-.39,.11-.57,.07-.17,.17-.32,.3-.45,.13-.12,.29-.22,.47-.29,.18-.07,.38-.11,.6-.11s.4,.03,.57,.1c.17,.07,.31,.16,.43,.28,.12,.12,.21,.26,.27,.42,.06,.16,.09,.34,.09,.53,0,.14-.02,.28-.07,.4-.04,.12-.11,.24-.18,.35-.08,.11-.17,.22-.28,.33-.11,.11-.23,.22-.36,.33l-1.26,1.04h2.21v.49h-2.95Z"/><g><line class="d" x1="65.93" y1="15.95" x2="65.89" y2="18.97"/><g><line class="c" x1="65.93" y1="15.95" x2="65.92" y2="17.18"/><polygon class="d" points="64.68 16.8 65.89 18.97 67.17 16.83 64.68 16.8"/></g></g><path class="d" d="M74.15,26.01c-.23,0-.43-.03-.61-.09-.18-.06-.33-.15-.45-.26-.12-.11-.22-.24-.28-.38-.06-.15-.1-.3-.1-.47h.57c0,.2,.07,.37,.21,.5,.14,.13,.36,.2,.67,.2s.53-.07,.67-.2,.21-.31,.21-.53c0-.23-.07-.41-.21-.55s-.36-.2-.66-.2h-.45v-.48h.45c.29,0,.5-.06,.62-.18s.19-.29,.19-.51-.06-.37-.18-.49c-.12-.12-.33-.18-.63-.18s-.5,.06-.62,.18c-.13,.12-.19,.27-.19,.45h-.56c0-.16,.03-.3,.09-.44,.06-.14,.15-.26,.27-.36s.26-.18,.43-.24c.17-.06,.37-.09,.58-.09s.42,.03,.59,.09c.17,.06,.31,.14,.43,.24,.12,.1,.21,.22,.27,.35s.09,.28,.09,.43c0,.24-.06,.44-.19,.61-.12,.17-.3,.28-.53,.35,.24,.08,.43,.2,.57,.37,.14,.17,.21,.41,.21,.71,0,.16-.03,.31-.1,.45-.06,.14-.16,.27-.28,.37-.12,.11-.27,.19-.45,.25s-.38,.09-.61,.09Z"/><g><line class="d" x1="71.47" y1="26.88" x2="69.3" y2="28.99"/><g><line class="c" x1="71.47" y1="26.88" x2="70.59" y2="27.73"/><polygon class="d" points="69.98 26.59 69.3 28.99 71.72 28.37 69.98 26.59"/></g></g></svg>