<?xml version="1.0" encoding="UTF-8"?><svg id="a" xmlns="http://www.w3.org/2000/svg" viewBox="0 0 100 100"><defs><style>.b{stroke:#1a1a1a;stroke-width:5px;}.b,.c{fill:none;stroke-miterlimit:10;}.c{stroke:#ccc;stroke-width:.25px;}.d{fill:#ccc;}</style></defs><path class="b" d="M19.64,35.34V19h60.91s5.73,64.6-50.38,63.57"/><path class="d" d="M18.83,11v-.49h1v-3.09l-1,.71v-.61l1.02-.72h.56v3.71h.82v.49h-2.4Z"/><g><line class="d" x1="19.97" y1="12.99" x2="19.94" y2="16.01"/><g><line class="c" x1="19.97" y1="12.99" x2="19.96" y2="14.22"/><polygon class="d" points="18.71 13.84 19.94 16.01 21.21 13.87 18.71 13.84"/></g></g><path class="d" d="M7.99,20.67v-.46l1.68-1.46c.13-.11,.23-.21,.32-.29s.15-.17,.2-.25c.05-.08,.08-.16,.1-.23s.03-.16,.03-.25c0-.24-.07-.44-.21-.59-.14-.15-.33-.23-.58-.23-.29,0-.52,.08-.67,.24s-.23,.38-.23,.67h-.56c0-.2,.04-.39,.11-.57,.07-.17,.17-.32,.3-.45s.29-.22,.47-.29c.18-.07,.38-.11,.6-.11s.4,.03,.57,.1c.17,.07,.31,.16,.43,.28s.2,.26,.26,.42,.09,.34,.09,.53c0,.14-.02,.28-.07,.4s-.1,.24-.18,.35-.17,.22-.28,.33c-.11,.11-.23,.22-.36,.33l-1.26,1.04h2.21v.49h-2.94Z"/><g><line class="d" x1="12.96" y1="18.98" x2="15.99" y2="19.02"/><g><line class="c" x1="12.96" y1="18.98" x2="14.19" y2="19"/><polygon class="d" points="13.81 20.24 15.99 19.02 13.84 17.75 13.81 20.24"/></g></g></svg>