<?xml version="1.0" encoding="UTF-8"?><svg id="a" xmlns="http://www.w3.org/2000/svg" viewBox="0 0 100 100"><defs><style>.b{stroke:#1a1a1a;stroke-width:5px;}.b,.c{fill:none;stroke-miterlimit:10;}.c{stroke:#ccc;stroke-width:.25px;}.d{fill:#ccc;}</style></defs><path class="b" d="M21.69,20.16s16.09,4.01,20.49,13.18"/><path class="b" d="M15.41,34.37s16.09,4.01,20.49,13.18"/><path class="b" d="M23.03,79.83c45.54,1.14,61.56-50.12,61.56-50.12"/><path class="d" d="M12.53,20.37v-.49h1v-3.09l-1,.71v-.61l1.02-.72h.57v3.71h.82v.49h-2.4Z"/><g><line class="d" x1="17.11" y1="18.83" x2="20.03" y2="19.6"/><g><line class="c" x1="17.11" y1="18.83" x2="18.3" y2="19.14"/><polygon class="d" points="17.63 20.26 20.03 19.6 18.26 17.85 17.63 20.26"/></g></g><path class="d" d="M5.76,34.54v-.46l1.68-1.46c.13-.11,.23-.21,.32-.29s.15-.17,.2-.25c.05-.08,.08-.16,.1-.23,.02-.08,.03-.16,.03-.25,0-.24-.07-.44-.21-.59-.14-.15-.33-.23-.58-.23-.29,0-.52,.08-.67,.24s-.23,.38-.23,.67h-.56c0-.2,.04-.39,.11-.57,.07-.17,.17-.32,.3-.45,.13-.12,.29-.22,.47-.29,.18-.07,.38-.11,.6-.11s.4,.03,.57,.1c.17,.07,.31,.16,.43,.28s.2,.26,.26,.42c.06,.16,.09,.34,.09,.53,0,.14-.02,.28-.07,.4s-.1,.24-.18,.35-.17,.22-.28,.33c-.11,.11-.23,.22-.36,.33l-1.26,1.04h2.21v.49h-2.95Z"/><g><line class="d" x1="10.71" y1="33" x2="13.64" y2="33.77"/><g><line class="c" x1="10.71" y1="33" x2="11.9" y2="33.31"/><polygon class="d" points="11.23 34.43 13.64 33.77 11.87 32.01 11.23 34.43"/></g></g><path class="d" d="M13.44,81.84c-.23,0-.43-.03-.61-.09-.18-.06-.33-.15-.45-.26-.12-.11-.22-.23-.28-.38-.06-.15-.1-.3-.1-.47h.57c0,.2,.07,.37,.21,.5,.14,.13,.36,.2,.67,.2s.53-.07,.67-.2c.14-.13,.21-.31,.21-.53,0-.23-.07-.41-.21-.55-.14-.14-.36-.2-.66-.2h-.45v-.48h.45c.29,0,.5-.06,.62-.18s.19-.29,.19-.51-.06-.37-.18-.49c-.12-.12-.33-.18-.63-.18s-.5,.06-.62,.18c-.13,.12-.19,.27-.19,.45h-.56c0-.16,.03-.3,.09-.44s.15-.26,.27-.36c.12-.1,.26-.18,.43-.24,.17-.06,.37-.09,.59-.09s.42,.03,.59,.09c.17,.06,.31,.14,.43,.24,.12,.1,.21,.22,.27,.35,.06,.13,.09,.28,.09,.43,0,.24-.06,.44-.19,.61-.13,.17-.3,.28-.53,.35,.24,.08,.43,.2,.57,.37,.14,.17,.21,.41,.21,.71,0,.16-.03,.31-.1,.45-.06,.14-.16,.27-.28,.37-.12,.11-.27,.19-.45,.25-.18,.06-.38,.09-.61,.09Z"/><g><line class="d" x1="17.43" y1="79.73" x2="20.45" y2="79.87"/><g><line class="c" x1="17.43" y1="79.73" x2="18.66" y2="79.79"/><polygon class="d" points="18.24 81.01 20.45 79.87 18.36 78.52 18.24 81.01"/></g></g></svg>