<?xml version="1.0" encoding="UTF-8"?><svg id="a" xmlns="http://www.w3.org/2000/svg" viewBox="0 0 100 100"><defs><style>.b{stroke:#1a1a1a;stroke-width:5px;}.b,.c{fill:none;stroke-miterlimit:10;}.c{stroke:#ccc;stroke-width:.25px;}.d{fill:#ccc;}</style></defs><line class="b" x1="27.23" y1="24.59" x2="38.35" y2="38.34"/><path class="b" d="M79.77,24.86s-8.68,42.95-52.85,53.42"/><path class="d" d="M21.32,19.2v-.49h1v-3.09l-1,.71v-.61l1.02-.72h.57v3.71h.82v.49h-2.4Z"/><g><line class="d" x1="24.85" y1="20.77" x2="26.51" y2="23.3"/><g><line class="c" x1="24.85" y1="20.77" x2="25.53" y2="21.8"/><polygon class="d" points="24.29 22.18 26.51 23.3 26.37 20.81 24.29 22.18"/></g></g><path class="d" d="M14.81,81.28v-.46l1.68-1.46c.13-.11,.23-.21,.32-.29s.15-.17,.2-.25,.08-.16,.1-.23c.02-.08,.03-.16,.03-.25,0-.24-.07-.44-.21-.59-.14-.15-.33-.23-.58-.23-.29,0-.52,.08-.67,.24s-.23,.38-.23,.67h-.57c0-.2,.04-.39,.11-.57,.07-.17,.17-.32,.3-.45,.13-.12,.29-.22,.47-.29,.18-.07,.38-.11,.6-.11s.4,.03,.57,.1c.17,.07,.31,.16,.43,.28s.21,.26,.26,.42c.06,.16,.09,.34,.09,.53,0,.14-.02,.28-.07,.4s-.11,.24-.18,.35-.17,.22-.28,.33c-.11,.11-.23,.22-.36,.33l-1.26,1.04h2.21v.49h-2.94Z"/><g><line class="d" x1="19.94" y1="79.14" x2="22.96" y2="78.91"/><g><line class="c" x1="19.94" y1="79.14" x2="21.17" y2="79.05"/><polygon class="d" points="20.9 80.32 22.96 78.91 20.71 77.83 20.9 80.32"/></g></g></svg>