<?xml version="1.0" encoding="utf-8"?>
<!-- Generator: Adobe Illustrator 27.8.1, SVG Export Plug-In . SVG Version: 6.00 Build 0)  -->
<svg version="1.1" id="a" xmlns="http://www.w3.org/2000/svg" xmlns:xlink="http://www.w3.org/1999/xlink" x="0px" y="0px"
	 viewBox="0 0 19.8 19.8" style="enable-background:new 0 0 19.8 19.8;" xml:space="preserve">
<style type="text/css">
	.st0{fill:#17C3B2;}
	.st1{opacity:0.33;fill:#FFFFFF;enable-background:new    ;}
</style>
<path class="st0" d="M9.9,0c0.5,0.3,5.1,3.5,5.5,9.4c0.4,6.4-4.6,10.2-4.9,10.4c-3.7-2.2-6-6.2-5.8-10.4C4.8,3.5,9.4,0.3,9.9,0z"/>
<path class="st0" d="M9.9,0c0.5,0.3,5.1,3.5,5.5,9.4c0.4,6.4-4.6,10.2-4.9,10.4c-3.7-2.2-6-6.2-5.8-10.4C4.8,3.5,9.4,0.3,9.9,0z"/>
<path class="st1" d="M6.4,9.4c0.1-4.5,2.9-7.4,4.4-8.7C10.4,0.3,10,0.1,9.9,0C9.4,0.3,4.8,3.5,4.6,9.4c-0.1,4.2,2.1,8.2,5.8,10.4
	c0.1-0.1,0.4-0.3,0.8-0.7C8.1,16.8,6.3,13.2,6.4,9.4z"/>
</svg>
