<?xml version="1.0" encoding="utf-8"?>
<!-- Generator: Adobe Illustrator 27.8.1, SVG Export Plug-In . SVG Version: 6.00 Build 0)  -->
<svg version="1.1" id="a" xmlns="http://www.w3.org/2000/svg" xmlns:xlink="http://www.w3.org/1999/xlink" x="0px" y="0px"
	 viewBox="0 0 19.8 19.8" style="enable-background:new 0 0 19.8 19.8;" xml:space="preserve">
<style type="text/css">
	.st0{fill:#17C3B2;}
	.st1{opacity:0.28;fill:#FFFFFF;enable-background:new    ;}
</style>
<path class="st0" d="M18.2,13.9c2.9-5.3-0.4-13.1-2-13.1c-1.1,0-0.9,3.7-3.2,7.8c-3.1,5.5-8.6,8.2-13,9.7C8,21,15.6,18.8,18.2,13.9z
	"/>
<path class="st1" d="M16.2,0.8c-0.1,0-0.1,0-0.2,0.1c-0.2,1.1,1,4.1,0.7,8c-0.3,3.6-1.6,6.7-3.4,9.3c2.2-1,3.9-2.4,4.9-4.3
	C21.1,8.6,17.8,0.8,16.2,0.8z"/>
</svg>
