<?xml version="1.0" encoding="utf-8"?>
<!-- Generator: Adobe Illustrator 27.8.1, SVG Export Plug-In . SVG Version: 6.00 Build 0)  -->
<svg version="1.1" id="a" xmlns="http://www.w3.org/2000/svg" xmlns:xlink="http://www.w3.org/1999/xlink" x="0px" y="0px"
	 viewBox="0 0 19.8 19.8" style="enable-background:new 0 0 19.8 19.8;" xml:space="preserve">
<style type="text/css">
	.st0{fill:#17C3B2;}
	.st1{opacity:0.33;fill:#FFFFFF;enable-background:new    ;}
</style>
<path class="st0" d="M2.3,17.8C2.1,17.2,1,11,5.3,6c4.7-5.4,11.7-4.4,12.1-4.4c1.2,4.7-0.2,9.7-3.6,12.8C9.1,19.1,2.9,18,2.3,17.8z"
	/>
<path class="st0" d="M2.3,17.8C2.1,17.2,1,11,5.3,6c4.7-5.4,11.7-4.4,12.1-4.4c1.2,4.7-0.2,9.7-3.6,12.8C9.1,19.1,2.9,18,2.3,17.8z"
	/>
<path class="st1" d="M12.5,13.2c-3.6,3.5-8.1,3.6-10.4,3.4c0,0.6,0.2,1.1,0.2,1.3c0.6,0.2,6.8,1.3,11.6-3.2
	c3.4-3.2,4.8-8.1,3.6-12.8c-0.2,0-0.6-0.1-1.2-0.1C17,6,15.6,10.2,12.5,13.2z"/>
</svg>
