<?xml version="1.0" encoding="utf-8"?>
<!-- Generator: Adobe Illustrator 27.8.1, SVG Export Plug-In . SVG Version: 6.00 Build 0)  -->
<svg version="1.1" id="a" xmlns="http://www.w3.org/2000/svg" xmlns:xlink="http://www.w3.org/1999/xlink" x="0px" y="0px"
	 viewBox="0 0 19.8 19.8" style="enable-background:new 0 0 19.8 19.8;" xml:space="preserve">
<style type="text/css">
	.st0{fill:#17C3B2;}
	.st1{opacity:0.33;fill:#FFFFFF;enable-background:new    ;}
</style>
<path class="st0" d="M3.9,3.2C5.9,3.7,14,6.2,17,13.5c0.4,1,0.8,2.2,1,3.5c-4.2,1-8.6-0.3-11.4-3.5C2.6,9.2,3.7,3.7,3.9,3.2z"/>
<path class="st1" d="M7.8,12.4C4.8,9.1,4.8,5,5,3C4.4,3,4,3.2,3.9,3.2C3.7,3.7,2.6,9.2,6.5,13.6c2.8,3.1,7.2,4.5,11.4,3.5
	c0-0.1,0.1-0.5,0.1-1.1C14.2,16.5,10.4,15.2,7.8,12.4z"/>
</svg>
