<?xml version="1.0" encoding="utf-8"?>
<!-- Generator: Adobe Illustrator 27.8.1, SVG Export Plug-In . SVG Version: 6.00 Build 0)  -->
<svg version="1.1" id="a" xmlns="http://www.w3.org/2000/svg" xmlns:xlink="http://www.w3.org/1999/xlink" x="0px" y="0px"
	 viewBox="0 0 19.8 19.8" style="enable-background:new 0 0 19.8 19.8;" xml:space="preserve">
<style type="text/css">
	.st0{fill:#17C3B2;}
	.st1{opacity:0.33;fill:#FFFFFF;enable-background:new    ;}
</style>
<path class="st0" d="M2.7,16.6c0.2-1.5,1-5.4,4.3-9c3.6-4,8-5,9.5-5.3c1,4.2-0.2,8.6-3.4,11.4C8.7,17.8,3.2,16.7,2.7,16.6z"/>
<path class="st1" d="M11.8,12.5c-3.3,3.1-7.3,3.1-9.3,2.9c0,0.6,0.1,1,0.1,1.1c0.6,0.1,6.1,1.2,10.4-2.8c3.1-2.9,4.4-7.2,3.4-11.4
	c-0.1,0-0.5-0.1-1.1-0.1C15.9,6.1,14.6,9.9,11.8,12.5z"/>
</svg>
