<?xml version="1.0" encoding="UTF-8"?><svg id="a" xmlns="http://www.w3.org/2000/svg" viewBox="0 0 19.83 19.83"><defs><style>.b{fill:#fff;opacity:.33;}.c{fill:#fe6d73;}</style></defs><path class="c" d="M19.49,15.09c-1.8-5.46-4.4-7.9-6.44-9.11-2.55-1.51-7.37-2.98-7.37-2.98h0l2.2,4.26L1.07,3.61s.1,2.43,.7,4.99c.09,.39,1.27,3.73,3.68,5.78,3.34,2.85,8.89,3.06,14.04,.7Z"/><path class="c" d="M19.49,15.09c-1.8-5.46-4.4-7.9-6.44-9.11-2.55-1.51-7.37-2.98-7.37-2.98h0l2.2,4.26L1.07,3.61s.1,2.43,.7,4.99c.09,.39,1.27,3.73,3.68,5.78,3.34,2.85,8.89,3.06,14.04,.7Z"/><path class="b" d="M5.45,14.39c3.34,2.85,8.89,3.06,14.04,.7-.24-.74-.5-1.42-.77-2.05-4.92,1.98-10.08,1.66-13.24-1.04C3.07,9.94,1.89,6.61,1.8,6.22c-.2-.87-.35-1.71-.45-2.45l-.28-.15s.1,2.43,.7,4.99c.09,.39,1.27,3.73,3.68,5.78Z"/></svg>