<?xml version="1.0" encoding="UTF-8"?><svg id="a" xmlns="http://www.w3.org/2000/svg" viewBox="0 0 19.83 19.83"><defs><style>.b{fill:#fff;opacity:.33;}.c{fill:#fe6d73;}</style></defs><path class="c" d="M16.34-.05S8.12,3.54,5.31,8.59c-2.3,4.14,.16,11.22,2.81,11.05,.53-.03,.94-.37,1.75-1.3,3.19-3.65,4.79-5.47,5.64-7.6,1.91-4.77,1.21-9.07,.83-10.8Z"/><path class="b" d="M9.87,18.35c.08-.13,.17-.27,.25-.41-2.17-1.41-3.73-7.17-1.74-10.73C10.06,4.19,13.65,1.7,16.28,.18c.04-.15,.06-.23,.06-.23C16.34-.05,8.12,3.54,5.31,8.59c-2.81,5.06,1.49,14.52,4.56,9.75Z"/></svg>