<?xml version="1.0" encoding="UTF-8"?><svg id="a" xmlns="http://www.w3.org/2000/svg" viewBox="0 0 19.83 19.83"><defs><style>.b{fill:#fff;opacity:.33;}.c{fill:#fe6d73;}</style></defs><path class="c" d="M4.48,.04c-1.52,5.55-.7,9.01,.34,11.15,1.29,2.67,4.5,6.55,4.5,6.55h0l.52-4.77,3.66,6.81s1.26-2.09,2.17-4.55c.14-.38,1-3.81,.13-6.85C14.59,4.16,10.07,.92,4.48,.04Z"/><path class="c" d="M4.48,.04c-1.52,5.55-.7,9.01,.34,11.15,1.29,2.67,4.5,6.55,4.5,6.55h0l.52-4.77,3.66,6.81s1.26-2.09,2.17-4.55c.14-.38,1-3.81,.13-6.85C14.59,4.16,10.07,.92,4.48,.04Z"/><path class="b" d="M15.8,8.38C14.59,4.16,10.07,.92,4.48,.04c-.21,.75-.36,1.46-.49,2.14,5.19,1.06,9.32,4.18,10.47,8.18,.87,3.04,.01,6.47-.13,6.85-.31,.83-.65,1.61-.98,2.29l.15,.28s1.26-2.09,2.17-4.55c.14-.38,1-3.81,.13-6.85Z"/></svg>