<?xml version="1.0" encoding="UTF-8"?><svg id="a" xmlns="http://www.w3.org/2000/svg" viewBox="0 0 19.83 19.83"><defs><style>.b{fill:#fff;opacity:.33;}.c{fill:#fe6d73;}</style></defs><path class="c" d="M.85,6.63c2.64,1.64,4.62,1.77,5.96,1.57,3.22-.47,4.38-3.08,7.57-2.85,.45,.03,2.22,.19,3.4,1.53,1.18,1.35,1.58,3.64,.77,5.05-2.01,3.48-12.43,3.52-16.25-1.74-.95-1.31-1.3-2.68-1.45-3.57Z"/><path class="b" d="M18.23,7.5c.31,1.11,.27,2.3-.23,3.17-2.01,3.48-12.43,3.52-16.25-1.74-.21-.29-.38-.58-.53-.86,.23,.67,.56,1.41,1.09,2.14,3.82,5.25,14.24,5.21,16.25,1.74,.71-1.22,.5-3.09-.32-4.44Z"/></svg>