<?xml version="1.0" encoding="UTF-8"?><svg id="a" xmlns="http://www.w3.org/2000/svg" viewBox="0 0 19.83 19.83"><defs><style>.b{fill:#fff;opacity:.33;}.c{fill:#fe6d73;}</style></defs><path class="c" d="M1.6,.53s.39,9.64,4.36,14.44c3.25,3.93,11.32,4.23,12.19,1.5,.23-.72-.18-1.54-.62-2.27-2-3.31-5.53-3.8-8.47-5.34C6.85,7.71,3.99,5.44,1.6,.53Z"/><path class="b" d="M17.53,14.21c-.1-.13-.2-.27-.31-.41-2.26,1.63-8.65,.94-11.45-2.45C3.4,8.49,2.31,3.92,1.81,.68c-.13-.09-.21-.15-.21-.15,0,0,.39,9.64,4.36,14.44,3.97,4.8,15.15,4.18,11.57-.77Z"/></svg>