<?xml version="1.0" standalone="no"?>
<!DOCTYPE svg PUBLIC "-//W3C//DTD SVG 20010904//EN"
 "http://www.w3.org/TR/2001/REC-SVG-20010904/DTD/svg10.dtd">
<svg version="1.0" xmlns="http://www.w3.org/2000/svg"
 width="700.000000pt" height="700.000000pt" viewBox="0 0 700.000000 700.000000"
 preserveAspectRatio="xMidYMid meet">
<metadata>
Created by potrace 1.14, written by Peter Selinger 2001-2017
</metadata>
<g transform="translate(0.000000,700.000000) scale(0.100000,-0.100000)"
fill="#000000" stroke="none">
<path d="M1530 6993 c-233 -25 -505 -111 -695 -221 -374 -214 -659 -582 -769
-992 -66 -247 -61 -68 -61 -2250 0 -1874 1 -1980 18 -2079 70 -393 251 -723
543 -991 93 -87 229 -180 364 -253 112 -60 326 -138 445 -162 202 -41 98 -39
2115 -41 1569 -1 1934 1 2019 12 501 66 937 338 1212 757 111 168 208 401 243
582 8 44 19 96 23 115 10 50 14 3986 3 4040 -4 25 -11 65 -15 90 -3 25 -8 53
-11 62 -5 16 -10 40 -20 86 -15 73 -73 223 -129 337 -166 333 -426 589 -760
750 -102 49 -251 103 -335 121 -19 4 -37 8 -40 9 -5 1 -71 13 -125 23 -34 6
-3970 11 -4025 5z"/>
</g>
</svg>
