<?xml version="1.0" encoding="UTF-8"?><svg id="a" xmlns="http://www.w3.org/2000/svg" viewBox="0 0 775.48 706.71"><defs><style>.b{fill:#17c3b2;}.c{opacity:.33;}.c,.d{fill:#fff;}.d{opacity:.28;}.e{fill:#352927;}.f{fill:#fe6d73;}</style></defs><path class="b" d="M775.48,706.71V397.14c-68.29,10.24-99.3,27.29-174.48,37.75-153.48,21.34-166.68-29.94-296.95-8.17-57.13,9.55-185.07,30.93-254.73,133.49C21.27,601.53,4.02,654.02,0,706.71H775.48Z"/><path class="d" d="M775.48,397.14c-68.29,10.24-99.3,27.29-174.48,37.75-153.48,21.34-166.68-29.94-296.95-8.17-57.13,9.55-185.07,30.93-254.73,133.49C21.27,601.53,4.02,654.02,0,706.71H32.88c6.04-47.09,22.5-93.12,47.66-130.16,69.66-102.56,197.6-123.95,254.73-133.49,130.27-21.77,143.47,29.51,296.95,8.17,62.73-8.72,94.71-22.04,143.26-32.16v-21.93Z"/><path class="e" d="M775.48,497.74c-54.04-15.4-116.99-42.24-176.68-89.74-41-32.62-85.02-68.59-107.23-133.11-21.09-61.26-11.6-116.51-4.77-144,.7-2.81-24.59,58.76-10.38,128,12.49,60.89,46.61,99.67,41.06,103.79-4.89,3.63-35.65-23.29-62.17-58.85-79.27-106.32-80.71-235.48-80.68-233.36,.76,54.53,10.44,96.99,19.15,125.62,28.75,94.47,81.44,165.33,86.55,172.09,21.92,28.93,26.38,37.79,33.56,47.53,.36,.48,.52,.87,.37,1.14-2.26,4.14-78.65-28.37-148.82-74.72-37.7-24.9-62.66-46.57-84.26-72.51-27.25-32.74-33.39-53.37-35.23-68.43-3.46-28.19,6.44-50.36,5.62-50.55-.96-.22-16,29.45-10.46,64.02,3.3,20.6,12.84,36.22,31.4,59.04,31.05,38.17,61.25,64.37,84.77,83.74,0,0,100.79,83.04,157.88,96.62,17.07,4.06,34.17,5.67,34.17,5.67,4.77,.45,9.04,.71,12.72,.86,38.06,40.59,79.74,82.4,125.23,124.72,29.84,27.76,59.31,53.84,88.22,78.37v-165.95Z"/><path class="e" d="M587.57,405.96c6.11-28.81,12.54-78.24-.85-136.68-8.51-37.16-22.42-66.55-34.38-87.23,1.06,1.26,2.57,3.09,4.35,5.31,1.99,2.61,4.94,6.59,8.37,11.55,4.32,8.62,8.44,17.66,12.3,27.15,28.43,69.87,31.7,137.38,27.31,190.51-2.75,2.37-5.5,4.74-8.25,7.11-2.95-5.9-5.9-11.8-8.85-17.7Z"/><path class="e" d="M290.89,284.77s10.55-10.21,10.55-31.15-16-42.36-16-42.36c2.79,2.96,6.28,7.08,9.7,12.4,0,0,5.76,8.96,9.02,18.72,7.56,22.61-1.22,51.98-2.04,54.64-3.74-4.09-7.49-8.17-11.23-12.26Z"/><ellipse class="f" cx="466.53" cy="107.32" rx="173.79" ry="107.32"/><path class="c" d="M326.54,115.85c0-57.22,74.73-103.6,166.92-103.6,34.82,0,67.14,6.62,93.89,17.93C556.08,11.5,513.48,0,466.53,0c-95.98,0-173.79,48.05-173.79,107.32,0,52.54,61.15,96.26,141.89,105.51-63.16-14.77-108.09-52.61-108.09-96.97Z"/><ellipse class="f" cx="612.95" cy="213.76" rx="138.53" ry="85.54"/><path class="c" d="M501.37,220.56c0-45.61,59.57-82.58,133.06-82.58,27.75,0,53.51,5.28,74.84,14.3-24.93-14.89-58.88-24.06-96.31-24.06-76.51,0-138.53,38.3-138.53,85.54,0,41.88,48.74,76.73,113.1,84.1-50.34-11.77-86.16-41.94-86.16-77.3Z"/><ellipse class="f" cx="210.74" cy="142.52" rx="85.58" ry="52.85"/><path class="c" d="M141.81,146.72c0-28.18,36.8-51.02,82.2-51.02,17.14,0,33.06,3.26,46.23,8.83-15.4-9.2-36.38-14.87-59.5-14.87-47.26,0-85.58,23.66-85.58,52.85,0,25.87,30.11,47.4,69.87,51.96-31.1-7.27-53.23-25.91-53.23-47.75Z"/><ellipse class="f" cx="278.24" cy="331.1" rx="104.05" ry="64.25"/><path class="c" d="M194.43,336.21c0-34.26,44.74-62.02,99.94-62.02,20.84,0,40.19,3.96,56.21,10.74-18.72-11.19-44.23-18.07-72.34-18.07-57.46,0-104.05,28.77-104.05,64.25,0,31.46,36.61,57.63,84.95,63.17-37.81-8.84-64.71-31.5-64.71-58.06Z"/><ellipse class="f" cx="411.21" cy="258.44" rx="34.28" ry="21.17"/><path class="c" d="M383.59,260.12c0-11.29,14.74-20.43,32.93-20.43,6.87,0,13.24,1.31,18.52,3.54-6.17-3.69-14.57-5.95-23.83-5.95-18.93,0-34.28,9.48-34.28,21.17,0,10.36,12.06,18.99,27.99,20.81-12.46-2.91-21.32-10.38-21.32-19.13Z"/><ellipse class="f" cx="296.32" cy="212.98" rx="39.34" ry="24.29"/><path class="c" d="M264.64,214.91c0-12.95,16.92-23.45,37.78-23.45,7.88,0,15.2,1.5,21.25,4.06-7.08-4.23-16.72-6.83-27.35-6.83-21.73,0-39.34,10.88-39.34,24.29,0,11.89,13.84,21.79,32.12,23.88-14.3-3.34-24.47-11.91-24.47-21.95Z"/></svg>