<?xml version="1.0" encoding="UTF-8"?>
<svg id="_Слой_1" data-name="Слой 1" xmlns="http://www.w3.org/2000/svg" viewBox="0 0 316.23 347.33">
  <defs>
    <style>
      .cls-1 {
        fill: #fe6d73;
      }

      .cls-1, .cls-2, .cls-3, .cls-4 {
        stroke-width: 0px;
      }

      .cls-2 {
        fill: #fff;
        opacity: .33;
      }

      .cls-4 {
        fill: #ccc;
      }

      .cls-5 {
        opacity: .16;
      }
    </style>
  </defs>
  <g>
    <path class="cls-1" d="m229.13,166.5c7.41-27.05,3.39-43.94-1.66-54.37-6.31-13.03-21.97-31.96-21.97-31.96h0l-2.52,23.24-17.85-33.21s-6.12,10.17-10.58,22.21c-.68,1.85-4.86,18.57-.62,33.41,5.88,20.59,27.93,36.38,55.2,40.68Z"/>
    <path class="cls-1" d="m229.13,166.5c7.41-27.05,3.39-43.94-1.66-54.37-6.31-13.03-21.97-31.96-21.97-31.96h0l-2.52,23.24-17.85-33.21s-6.12,10.17-10.58,22.21c-.68,1.85-4.86,18.57-.62,33.41,5.88,20.59,27.93,36.38,55.2,40.68Z"/>
    <path class="cls-2" d="m173.92,125.82c5.88,20.59,27.93,36.38,55.2,40.68,1-3.67,1.77-7.12,2.38-10.42-25.33-5.18-45.46-20.38-51.04-39.9-4.24-14.84-.06-31.57.62-33.41,1.51-4.06,3.19-7.87,4.78-11.19l-.73-1.36s-6.12,10.17-10.58,22.21c-.68,1.85-4.86,18.57-.62,33.41Z"/>
  </g>
  <g>
    <path class="cls-1" d="m124.65,88.91c6.73,11.72,14.07,16.28,19.59,18.27,13.32,4.8,23.11-2.82,34.88,4.64,1.64,1.04,8.13,5.28,9.89,12.86,1.77,7.59-1.4,17.19-7.45,20.94-14.86,9.19-54.86-12.06-58.7-40.04-.96-6.98.53-12.95,1.8-16.67Z"/>
    <path class="cls-2" d="m189.44,127.93c-1.07,4.88-3.68,9.37-7.39,11.66-14.86,9.19-54.86-12.06-58.7-40.04-.21-1.53-.26-2.99-.26-4.4-.52,3.04-.77,6.55-.24,10.43,3.84,27.98,43.85,49.23,58.7,40.04,5.21-3.22,8.27-10.79,7.89-17.69Z"/>
  </g>
  <g>
    <path class="cls-1" d="m231.92,161.84c9.54-9.56,12.02-17.85,12.49-23.69,1.14-14.11-8.78-21.56-4.67-34.87.57-1.86,2.97-9.23,9.82-12.92,6.86-3.7,16.96-3.16,22.16,1.7,12.77,11.93,2.75,56.11-23.24,67.15-6.48,2.76-12.63,2.89-16.55,2.63Z"/>
    <path class="cls-2" d="m252.58,89.08c4.99-.24,10.01,1.09,13.19,4.07,12.77,11.93,2.75,56.11-23.24,67.15-1.42.6-2.81,1.03-4.18,1.41,3.07-.3,6.53-.97,10.13-2.51,25.99-11.05,36.01-55.23,23.24-67.15-4.48-4.18-12.59-5.15-19.14-2.97Z"/>
  </g>
  <g>
    <path class="cls-1" d="m90.27,95.24c-5.71,20.84-2.61,33.84,1.28,41.88,4.86,10.03,16.92,24.61,16.92,24.61h0l1.94-17.9,13.75,25.57s4.72-7.83,8.15-17.1c.53-1.42,3.75-14.3.48-25.73-4.53-15.86-21.51-28.02-42.51-31.33Z"/>
    <path class="cls-1" d="m90.27,95.24c-5.71,20.84-2.61,33.84,1.28,41.88,4.86,10.03,16.92,24.61,16.92,24.61h0l1.94-17.9,13.75,25.57s4.72-7.83,8.15-17.1c.53-1.42,3.75-14.3.48-25.73-4.53-15.86-21.51-28.02-42.51-31.33Z"/>
    <path class="cls-2" d="m132.79,126.57c-4.53-15.86-21.51-28.02-42.51-31.33-.77,2.83-1.36,5.48-1.83,8.03,19.51,3.99,35.01,15.69,39.31,30.73,3.27,11.43.05,24.31-.48,25.73-1.16,3.13-2.46,6.06-3.68,8.62l.56,1.05s4.72-7.83,8.15-17.1c.53-1.42,3.75-14.3.48-25.73Z"/>
  </g>
  <g>
    <path class="cls-1" d="m50.23,88.31s1.33,32.66,14.78,48.92c13.46,16.26,51.32,14.16,39.18-2.59-12.14-16.76-53.96-46.33-53.96-46.33Z"/>
    <path class="cls-2" d="m104.19,134.64c-.33-.45-.69-.92-1.06-1.39-7.65,5.51-29.29,3.19-38.78-8.29-8.02-9.69-11.72-25.19-13.41-36.14-.45-.32-.71-.51-.71-.51,0,0,1.33,32.66,14.78,48.92,13.46,16.26,51.32,14.16,39.18-2.59Z"/>
  </g>
  <path class="cls-4" d="m53.2,132.33h232.98v161.43c0,27.65-22.45,50.11-50.11,50.11H103.31c-27.65,0-50.11-22.45-50.11-50.11v-161.43h0Z"/>
  <g class="cls-5">
    <g>
      <path class="cls-3" d="m100.46,313.47h0c-10.08,0-18.26-8.17-18.26-18.26v-137.87s36.51,0,36.51,0v137.87c0,10.08-8.17,18.26-18.26,18.26Z"/>
      <path class="cls-3" d="m169.69,313.47h0c-10.08,0-18.26-8.17-18.26-18.26v-137.87s36.51,0,36.51,0v137.87c0,10.08-8.17,18.26-18.26,18.26Z"/>
      <path class="cls-3" d="m238.92,313.47h0c-10.08,0-18.26-8.17-18.26-18.26v-137.87s36.51,0,36.51,0v137.87c0,10.08-8.17,18.26-18.26,18.26Z"/>
    </g>
  </g>
  <g>
    <path class="cls-1" d="m0,322.42c8.48,5.28,14.86,5.69,19.15,5.06,10.36-1.52,14.08-9.91,24.35-9.17,1.44.1,7.14.6,10.94,4.92,3.81,4.33,5.09,11.7,2.46,16.25-6.47,11.18-39.97,11.31-52.26-5.58-3.06-4.21-4.18-8.62-4.65-11.49Z"/>
    <path class="cls-2" d="m55.87,325.2c1.01,3.55.88,7.39-.74,10.18-6.47,11.18-39.97,11.31-52.26-5.58-.67-.92-1.21-1.85-1.71-2.78.72,2.16,1.79,4.54,3.49,6.88,12.28,16.89,45.79,16.76,52.26,5.58,2.27-3.92,1.62-9.93-1.04-14.28Z"/>
  </g>
  <g>
    <path class="cls-1" d="m81.54,76.93c5.86,4.69,10.58,5.56,13.84,5.47,7.86-.22,11.38-6.15,18.98-4.68,1.06.21,5.28,1.08,7.73,4.64,2.46,3.57,2.77,9.18.4,12.34-5.82,7.77-30.82,4.9-38.49-8.79-1.91-3.41-2.36-6.8-2.45-8.98Z"/>
    <path class="cls-2" d="m122.97,83.96c.44,2.74,0,5.59-1.45,7.53-5.82,7.77-30.82,4.9-38.49-8.79-.42-.75-.74-1.49-1.03-2.22.35,1.68.93,3.55,1.99,5.44,7.67,13.69,32.67,16.56,38.49,8.79,2.04-2.73,2.08-7.26.49-10.75Z"/>
  </g>
  <path class="cls-4" d="m314.48,118.35c7.58-21.92-10.26-48.47-40.23-59.58L129.02,4.89c-29.97-11.12-60.8-2.63-69.35,18.93l254.82,94.53Z"/>
  <rect class="cls-4" x="175.36" y="19.91" width="52.55" height="23.83" transform="translate(23.66 -68.14) rotate(20.35)"/>
</svg>